G75*
G70*
%OFA0B0*%
%FSLAX24Y24*%
%IPPOS*%
%LPD*%
%AMOC8*
5,1,8,0,0,1.08239X$1,22.5*
%
%ADD10C,0.0040*%
D10*
X033955Y007967D02*
X034142Y007967D01*
X034142Y007686D01*
X034249Y007686D02*
X034249Y007873D01*
X034142Y007827D02*
X034048Y007827D01*
X034249Y007686D02*
X034390Y007686D01*
X034436Y007733D01*
X034436Y007873D01*
X034544Y007686D02*
X034731Y007686D01*
X034638Y007686D02*
X034638Y007967D01*
X034731Y007873D01*
X034839Y007920D02*
X035026Y007733D01*
X034979Y007686D01*
X034885Y007686D01*
X034839Y007733D01*
X034839Y007920D01*
X034885Y007967D01*
X034979Y007967D01*
X035026Y007920D01*
X035026Y007733D01*
X035126Y007733D02*
X035126Y007686D01*
X035173Y007686D01*
X035173Y007733D01*
X035126Y007733D01*
X035281Y007733D02*
X035281Y007920D01*
X035468Y007733D01*
X035421Y007686D01*
X035327Y007686D01*
X035281Y007733D01*
X035468Y007733D02*
X035468Y007920D01*
X035421Y007967D01*
X035327Y007967D01*
X035281Y007920D01*
X034968Y009511D02*
X034781Y009511D01*
X034874Y009511D02*
X034874Y009791D01*
X034968Y009698D01*
X034673Y009651D02*
X034580Y009698D01*
X034533Y009698D01*
X034486Y009651D01*
X034486Y009558D01*
X034533Y009511D01*
X034626Y009511D01*
X034673Y009558D01*
X034673Y009651D02*
X034673Y009791D01*
X034486Y009791D01*
M02*
