G75*
G70*
%OFA0B0*%
%FSLAX24Y24*%
%IPPOS*%
%LPD*%
%AMOC8*
5,1,8,0,0,1.08239X$1,22.5*
%
%ADD10C,0.0600*%
%ADD11C,0.0440*%
%ADD12C,0.0780*%
%ADD13C,0.0750*%
%ADD14C,0.1050*%
%ADD15C,0.0100*%
%ADD16C,0.0396*%
%ADD17C,0.0357*%
%ADD18C,0.0120*%
%ADD19C,0.0240*%
%ADD20C,0.0400*%
%ADD21C,0.0160*%
%ADD22C,0.0320*%
%ADD23C,0.0500*%
D10*
X009648Y004454D02*
X009648Y005054D01*
X010648Y005054D02*
X010648Y004454D01*
X011648Y004454D02*
X011648Y005054D01*
X012648Y005054D02*
X012648Y004454D01*
X017963Y006817D02*
X017963Y007417D01*
X018963Y007417D02*
X018963Y006817D01*
X019963Y006817D02*
X019963Y007417D01*
X020963Y007417D02*
X020963Y006817D01*
X022714Y006754D02*
X023314Y006754D01*
X023314Y007754D02*
X022714Y007754D01*
X022714Y008754D02*
X023314Y008754D01*
X023314Y009754D02*
X022714Y009754D01*
X022714Y010754D02*
X023314Y010754D01*
X023314Y011754D02*
X022714Y011754D01*
X022714Y012754D02*
X023314Y012754D01*
X023314Y013865D02*
X022714Y013865D01*
X022714Y014865D02*
X023314Y014865D01*
X023314Y015865D02*
X022714Y015865D01*
X022714Y016865D02*
X023314Y016865D01*
X023314Y017865D02*
X022714Y017865D01*
X022714Y018865D02*
X023314Y018865D01*
X023314Y019865D02*
X022714Y019865D01*
X022714Y020865D02*
X023314Y020865D01*
X016455Y014948D02*
X016455Y014348D01*
X015455Y014348D02*
X015455Y014948D01*
X014455Y014948D02*
X014455Y014348D01*
X008239Y014663D02*
X008239Y015263D01*
X007239Y015263D02*
X007239Y014663D01*
X004448Y014125D02*
X003848Y014125D01*
X003848Y013125D02*
X004448Y013125D01*
X004448Y012125D02*
X003848Y012125D01*
X003848Y011125D02*
X004448Y011125D01*
X004448Y010125D02*
X003848Y010125D01*
X003848Y009125D02*
X004448Y009125D01*
X022714Y005754D02*
X023314Y005754D01*
X034250Y010664D02*
X034850Y010664D01*
X035569Y010664D02*
X036169Y010664D01*
X037340Y010664D02*
X037940Y010664D01*
X038659Y010664D02*
X039259Y010664D01*
X039259Y011664D02*
X038659Y011664D01*
X037940Y011664D02*
X037340Y011664D01*
X036169Y011664D02*
X035569Y011664D01*
X034850Y011664D02*
X034250Y011664D01*
X044581Y010342D02*
X044581Y009742D01*
X045581Y009742D02*
X045581Y010342D01*
X046884Y010342D02*
X046884Y009742D01*
X047884Y009742D02*
X047884Y010342D01*
X047970Y012613D02*
X048570Y012613D01*
X048570Y013613D02*
X047970Y013613D01*
X007235Y019919D02*
X007235Y020519D01*
X006235Y020519D02*
X006235Y019919D01*
X005499Y018987D02*
X004899Y018987D01*
X004082Y018987D02*
X003482Y018987D01*
X003482Y017987D02*
X004082Y017987D01*
X004899Y017987D02*
X005499Y017987D01*
D11*
X006889Y012282D02*
X007329Y012282D01*
X007329Y010282D02*
X006889Y010282D01*
D12*
X019731Y012247D02*
X020511Y012247D01*
X034451Y018845D02*
X034451Y019625D01*
X038585Y019849D02*
X038585Y020629D01*
X038979Y017381D02*
X038979Y016601D01*
X006400Y004113D02*
X006400Y003333D01*
X004254Y003333D02*
X004254Y004113D01*
X002109Y004113D02*
X002109Y003333D01*
D13*
X040947Y003408D03*
X046873Y006085D03*
D14*
X047876Y007089D03*
X045869Y007089D03*
X045869Y005081D03*
X047876Y005081D03*
X041951Y004412D03*
X039944Y004412D03*
X039944Y002404D03*
X041951Y002404D03*
D15*
X041901Y002366D02*
X039994Y002366D01*
X039994Y002354D02*
X039994Y002454D01*
X040618Y002454D01*
X040607Y002536D01*
X040584Y002622D01*
X040550Y002703D01*
X040506Y002780D01*
X040452Y002850D01*
X040390Y002913D01*
X040319Y002967D01*
X040243Y003011D01*
X040161Y003045D01*
X040075Y003068D01*
X039994Y003078D01*
X039994Y002454D01*
X039894Y002454D01*
X039894Y003078D01*
X039812Y003068D01*
X039726Y003045D01*
X039644Y003011D01*
X039568Y002967D01*
X039497Y002913D01*
X039435Y002850D01*
X039381Y002780D01*
X039337Y002703D01*
X039303Y002622D01*
X039280Y002536D01*
X039269Y002454D01*
X039893Y002454D01*
X039893Y002354D01*
X039269Y002354D01*
X039280Y002272D01*
X039303Y002187D01*
X039337Y002105D01*
X039381Y002028D01*
X039435Y001958D01*
X039497Y001896D01*
X039568Y001842D01*
X039644Y001797D01*
X039726Y001764D01*
X039812Y001741D01*
X039894Y001730D01*
X039894Y002354D01*
X039994Y002354D01*
X040618Y002354D01*
X040607Y002272D01*
X040584Y002187D01*
X040550Y002105D01*
X040506Y002028D01*
X040452Y001958D01*
X040390Y001896D01*
X040319Y001842D01*
X040243Y001797D01*
X040161Y001764D01*
X040075Y001741D01*
X039994Y001730D01*
X039994Y002354D01*
X039994Y002267D02*
X039894Y002267D01*
X039894Y002169D02*
X039994Y002169D01*
X039994Y002070D02*
X039894Y002070D01*
X039894Y001972D02*
X039994Y001972D01*
X039994Y001873D02*
X039894Y001873D01*
X039894Y001775D02*
X039994Y001775D01*
X040188Y001775D02*
X041707Y001775D01*
X041734Y001764D02*
X041819Y001741D01*
X041901Y001730D01*
X041901Y002354D01*
X041277Y002354D01*
X041288Y002272D01*
X041311Y002187D01*
X041345Y002105D01*
X041389Y002028D01*
X041443Y001958D01*
X041505Y001896D01*
X041575Y001842D01*
X041652Y001797D01*
X041734Y001764D01*
X041901Y001775D02*
X042001Y001775D01*
X042001Y001730D02*
X042083Y001741D01*
X042169Y001764D01*
X042250Y001797D01*
X042327Y001842D01*
X042397Y001896D01*
X042460Y001958D01*
X042514Y002028D01*
X042558Y002105D01*
X042592Y002187D01*
X042615Y002272D01*
X042626Y002354D01*
X042001Y002354D01*
X042001Y001730D01*
X042001Y001873D02*
X041901Y001873D01*
X041901Y001972D02*
X042001Y001972D01*
X042001Y002070D02*
X041901Y002070D01*
X041901Y002169D02*
X042001Y002169D01*
X042001Y002267D02*
X041901Y002267D01*
X041901Y002354D02*
X042001Y002354D01*
X042001Y002454D01*
X041901Y002454D01*
X041901Y002354D01*
X041901Y002454D02*
X041277Y002454D01*
X041288Y002536D01*
X041311Y002622D01*
X041345Y002703D01*
X041389Y002780D01*
X041443Y002850D01*
X041505Y002913D01*
X041575Y002967D01*
X041652Y003011D01*
X041734Y003045D01*
X041819Y003068D01*
X041901Y003078D01*
X041901Y002454D01*
X041901Y002464D02*
X042001Y002464D01*
X042001Y002454D02*
X042001Y003078D01*
X042083Y003068D01*
X042169Y003045D01*
X042250Y003011D01*
X042327Y002967D01*
X042397Y002913D01*
X042460Y002850D01*
X042514Y002780D01*
X042558Y002703D01*
X042592Y002622D01*
X042615Y002536D01*
X042626Y002454D01*
X042001Y002454D01*
X042001Y002366D02*
X049259Y002366D01*
X049259Y002464D02*
X042624Y002464D01*
X042608Y002563D02*
X049260Y002563D01*
X049261Y002661D02*
X042575Y002661D01*
X042525Y002760D02*
X049261Y002760D01*
X049262Y002858D02*
X042452Y002858D01*
X042340Y002957D02*
X049262Y002957D01*
X049263Y003055D02*
X042129Y003055D01*
X042001Y003055D02*
X041901Y003055D01*
X041901Y002957D02*
X042001Y002957D01*
X042001Y002858D02*
X041901Y002858D01*
X041901Y002760D02*
X042001Y002760D01*
X042001Y002661D02*
X041901Y002661D01*
X041901Y002563D02*
X042001Y002563D01*
X041451Y002858D02*
X040444Y002858D01*
X040518Y002760D02*
X041377Y002760D01*
X041327Y002661D02*
X040568Y002661D01*
X040600Y002563D02*
X041295Y002563D01*
X041278Y002464D02*
X040616Y002464D01*
X040606Y002267D02*
X041289Y002267D01*
X041318Y002169D02*
X040577Y002169D01*
X040530Y002070D02*
X041365Y002070D01*
X041432Y001972D02*
X040463Y001972D01*
X040361Y001873D02*
X041534Y001873D01*
X042196Y001775D02*
X049255Y001775D01*
X049256Y001873D02*
X042368Y001873D01*
X042470Y001972D02*
X049257Y001972D01*
X049257Y002070D02*
X042538Y002070D01*
X042584Y002169D02*
X049258Y002169D01*
X049258Y002267D02*
X042613Y002267D01*
X041774Y003055D02*
X041307Y003055D01*
X041374Y003123D02*
X041233Y002981D01*
X041048Y002904D01*
X040847Y002904D01*
X040662Y002981D01*
X040520Y003123D01*
X040444Y003308D01*
X040444Y003508D01*
X040520Y003693D01*
X040662Y003835D01*
X040847Y003912D01*
X041048Y003912D01*
X041233Y003835D01*
X041374Y003693D01*
X041451Y003508D01*
X041451Y003308D01*
X041374Y003123D01*
X041387Y003154D02*
X049264Y003154D01*
X049264Y003252D02*
X041428Y003252D01*
X041451Y003351D02*
X049265Y003351D01*
X049265Y003449D02*
X041451Y003449D01*
X041435Y003548D02*
X049266Y003548D01*
X049267Y003646D02*
X041394Y003646D01*
X041323Y003745D02*
X041847Y003745D01*
X041819Y003748D02*
X041901Y003738D01*
X041901Y004362D01*
X041277Y004362D01*
X041288Y004280D01*
X041311Y004194D01*
X041345Y004113D01*
X041389Y004036D01*
X041443Y003966D01*
X041505Y003903D01*
X041575Y003849D01*
X041652Y003805D01*
X041734Y003771D01*
X041819Y003748D01*
X041901Y003745D02*
X042001Y003745D01*
X042001Y003738D02*
X042083Y003748D01*
X042169Y003771D01*
X042250Y003805D01*
X042327Y003849D01*
X042397Y003903D01*
X042460Y003966D01*
X042514Y004036D01*
X042558Y004113D01*
X042592Y004194D01*
X042615Y004280D01*
X042626Y004362D01*
X042001Y004362D01*
X042001Y003738D01*
X042056Y003745D02*
X049267Y003745D01*
X049268Y003843D02*
X042316Y003843D01*
X042436Y003942D02*
X049268Y003942D01*
X049269Y004040D02*
X042516Y004040D01*
X042569Y004139D02*
X049270Y004139D01*
X049270Y004237D02*
X042603Y004237D01*
X042622Y004336D02*
X043120Y004336D01*
X043124Y004332D02*
X043245Y004282D01*
X043375Y004282D01*
X043495Y004332D01*
X043587Y004424D01*
X043595Y004444D01*
X043603Y004424D01*
X043695Y004332D01*
X043815Y004282D01*
X043945Y004282D01*
X044066Y004332D01*
X044158Y004424D01*
X044207Y004544D01*
X044207Y004674D01*
X044158Y004794D01*
X044069Y004882D01*
X044069Y008830D01*
X045652Y008830D01*
X045762Y008940D01*
X045762Y009353D01*
X045824Y009378D01*
X045945Y009499D01*
X046010Y009657D01*
X046010Y010427D01*
X045945Y010585D01*
X045824Y010705D01*
X045667Y010771D01*
X045496Y010771D01*
X045338Y010705D01*
X045218Y010585D01*
X045153Y010427D01*
X045153Y009657D01*
X045218Y009499D01*
X045338Y009378D01*
X045385Y009359D01*
X045385Y009207D01*
X034747Y009207D01*
X034637Y009096D01*
X034637Y006674D01*
X034548Y006585D01*
X034499Y006465D01*
X034499Y006335D01*
X034548Y006215D01*
X034640Y006123D01*
X034760Y006073D01*
X034890Y006073D01*
X035010Y006123D01*
X035102Y006215D01*
X035152Y006335D01*
X035152Y006465D01*
X035102Y006585D01*
X035014Y006674D01*
X035014Y008830D01*
X043692Y008830D01*
X043692Y004882D01*
X043603Y004794D01*
X043595Y004774D01*
X043587Y004794D01*
X043498Y004882D01*
X043498Y004904D01*
X043488Y004914D01*
X043488Y005549D01*
X043384Y005654D01*
X041992Y005654D01*
X041992Y006514D01*
X041999Y006517D01*
X042091Y006609D01*
X042140Y006729D01*
X042140Y006859D01*
X042091Y006979D01*
X041999Y007071D01*
X041879Y007121D01*
X041749Y007121D01*
X041628Y007071D01*
X041536Y006979D01*
X041487Y006859D01*
X041487Y006729D01*
X041523Y006641D01*
X041505Y006648D01*
X041375Y006648D01*
X041254Y006599D01*
X041162Y006507D01*
X041113Y006386D01*
X041113Y006256D01*
X041162Y006136D01*
X041254Y006044D01*
X041261Y006042D01*
X041261Y005715D01*
X041254Y005713D01*
X041162Y005621D01*
X041113Y005501D01*
X041113Y005371D01*
X041162Y005250D01*
X041254Y005159D01*
X041375Y005109D01*
X041505Y005109D01*
X041625Y005159D01*
X041717Y005250D01*
X041737Y005299D01*
X041740Y005296D01*
X043131Y005296D01*
X043131Y004914D01*
X043121Y004904D01*
X043121Y004882D01*
X043033Y004794D01*
X042983Y004674D01*
X042983Y004544D01*
X043033Y004424D01*
X043124Y004332D01*
X043028Y004434D02*
X042001Y004434D01*
X042001Y004462D02*
X042001Y004362D01*
X041901Y004362D01*
X041901Y004462D01*
X041277Y004462D01*
X041288Y004544D01*
X041311Y004629D01*
X041345Y004711D01*
X041389Y004788D01*
X041443Y004858D01*
X041505Y004921D01*
X041575Y004974D01*
X041652Y005019D01*
X041734Y005052D01*
X041819Y005075D01*
X041901Y005086D01*
X041901Y004462D01*
X042001Y004462D01*
X042001Y005086D01*
X042083Y005075D01*
X042169Y005052D01*
X042250Y005019D01*
X042327Y004974D01*
X042397Y004921D01*
X042460Y004858D01*
X042514Y004788D01*
X042558Y004711D01*
X042592Y004629D01*
X042615Y004544D01*
X042626Y004462D01*
X042001Y004462D01*
X042001Y004533D02*
X041901Y004533D01*
X041901Y004631D02*
X042001Y004631D01*
X042001Y004730D02*
X041901Y004730D01*
X041901Y004828D02*
X042001Y004828D01*
X042001Y004927D02*
X041901Y004927D01*
X041901Y005025D02*
X042001Y005025D01*
X042234Y005025D02*
X043131Y005025D01*
X043131Y004927D02*
X042389Y004927D01*
X042483Y004828D02*
X043067Y004828D01*
X043006Y004730D02*
X042547Y004730D01*
X042591Y004631D02*
X042983Y004631D01*
X042987Y004533D02*
X042616Y004533D01*
X043310Y004609D02*
X043310Y005475D01*
X041814Y005475D01*
X041814Y006794D01*
X042140Y006798D02*
X043692Y006798D01*
X043692Y006700D02*
X042128Y006700D01*
X042083Y006601D02*
X043692Y006601D01*
X043692Y006503D02*
X041992Y006503D01*
X041992Y006404D02*
X043692Y006404D01*
X043692Y006306D02*
X041992Y006306D01*
X041992Y006207D02*
X043692Y006207D01*
X043692Y006109D02*
X041992Y006109D01*
X041992Y006010D02*
X043692Y006010D01*
X043692Y005912D02*
X041992Y005912D01*
X041992Y005813D02*
X043692Y005813D01*
X043692Y005715D02*
X041992Y005715D01*
X041440Y005436D02*
X041440Y006321D01*
X041133Y006207D02*
X039031Y006207D01*
X039031Y006109D02*
X041190Y006109D01*
X041261Y006010D02*
X039030Y006010D01*
X039030Y005912D02*
X041261Y005912D01*
X041261Y005813D02*
X039029Y005813D01*
X039029Y005715D02*
X041260Y005715D01*
X041161Y005616D02*
X039028Y005616D01*
X039028Y005518D02*
X041120Y005518D01*
X041113Y005419D02*
X039027Y005419D01*
X039027Y005321D02*
X041133Y005321D01*
X041191Y005222D02*
X039026Y005222D01*
X039026Y005124D02*
X041338Y005124D01*
X041541Y005124D02*
X043131Y005124D01*
X043131Y005222D02*
X041689Y005222D01*
X041668Y005025D02*
X040226Y005025D01*
X040243Y005019D02*
X040161Y005052D01*
X040075Y005075D01*
X039994Y005086D01*
X039994Y004462D01*
X040618Y004462D01*
X040607Y004544D01*
X040584Y004629D01*
X040550Y004711D01*
X040506Y004788D01*
X040452Y004858D01*
X040390Y004921D01*
X040319Y004974D01*
X040243Y005019D01*
X040381Y004927D02*
X041514Y004927D01*
X041420Y004828D02*
X040475Y004828D01*
X040539Y004730D02*
X041355Y004730D01*
X041312Y004631D02*
X040583Y004631D01*
X040608Y004533D02*
X041286Y004533D01*
X041280Y004336D02*
X040614Y004336D01*
X040618Y004362D02*
X039994Y004362D01*
X039994Y004462D01*
X039894Y004462D01*
X039894Y005086D01*
X039812Y005075D01*
X039726Y005052D01*
X039644Y005019D01*
X039568Y004974D01*
X039497Y004921D01*
X039435Y004858D01*
X039381Y004788D01*
X039337Y004711D01*
X039303Y004629D01*
X039280Y004544D01*
X039269Y004462D01*
X039893Y004462D01*
X039893Y004362D01*
X039269Y004362D01*
X039280Y004280D01*
X039303Y004194D01*
X039337Y004113D01*
X039381Y004036D01*
X039435Y003966D01*
X039497Y003903D01*
X039568Y003849D01*
X039644Y003805D01*
X039726Y003771D01*
X039812Y003748D01*
X039894Y003738D01*
X039894Y004362D01*
X039994Y004362D01*
X039994Y003738D01*
X040075Y003748D01*
X040161Y003771D01*
X040243Y003805D01*
X040319Y003849D01*
X040390Y003903D01*
X040452Y003966D01*
X040506Y004036D01*
X040550Y004113D01*
X040584Y004194D01*
X040607Y004280D01*
X040618Y004362D01*
X040596Y004237D02*
X041299Y004237D01*
X041334Y004139D02*
X040561Y004139D01*
X040508Y004040D02*
X041386Y004040D01*
X041467Y003942D02*
X040428Y003942D01*
X040309Y003843D02*
X040682Y003843D01*
X040572Y003745D02*
X040048Y003745D01*
X039994Y003745D02*
X039894Y003745D01*
X039839Y003745D02*
X039033Y003745D01*
X039027Y003740D02*
X039120Y003832D01*
X039170Y003953D01*
X039170Y004084D01*
X039120Y004204D01*
X039027Y004297D01*
X039021Y004299D01*
X039038Y007498D01*
X039046Y007501D01*
X039138Y007593D01*
X039188Y007713D01*
X039188Y007843D01*
X039138Y007963D01*
X039046Y008055D01*
X038926Y008105D01*
X038796Y008105D01*
X038676Y008055D01*
X038584Y007963D01*
X038534Y007843D01*
X038534Y007713D01*
X038584Y007593D01*
X038676Y007501D01*
X038681Y007499D01*
X038664Y004347D01*
X032168Y004347D01*
X032168Y011380D01*
X033923Y011385D01*
X034007Y011300D01*
X034164Y011235D01*
X034935Y011235D01*
X035093Y011300D01*
X035180Y011387D01*
X035239Y011388D01*
X035326Y011300D01*
X035483Y011235D01*
X036254Y011235D01*
X036412Y011300D01*
X036501Y011390D01*
X037006Y011392D01*
X037097Y011300D01*
X037255Y011235D01*
X038026Y011235D01*
X038183Y011300D01*
X038277Y011395D01*
X038322Y011395D01*
X038416Y011300D01*
X038574Y011235D01*
X039344Y011235D01*
X039502Y011300D01*
X039599Y011398D01*
X049267Y011420D01*
X049273Y004752D01*
X049254Y001636D01*
X032168Y001656D01*
X032168Y003690D01*
X035617Y003690D01*
X035601Y003650D01*
X035601Y003520D01*
X035651Y003400D01*
X035743Y003308D01*
X035863Y003258D01*
X035993Y003258D01*
X036113Y003308D01*
X036205Y003400D01*
X036255Y003520D01*
X036255Y003650D01*
X036245Y003674D01*
X036260Y003690D01*
X038906Y003690D01*
X039027Y003740D01*
X039124Y003843D02*
X039578Y003843D01*
X039459Y003942D02*
X039165Y003942D01*
X039170Y004040D02*
X039379Y004040D01*
X039326Y004139D02*
X039147Y004139D01*
X039087Y004237D02*
X039291Y004237D01*
X039273Y004336D02*
X039022Y004336D01*
X039022Y004434D02*
X039893Y004434D01*
X039894Y004336D02*
X039994Y004336D01*
X039994Y004434D02*
X041901Y004434D01*
X041901Y004336D02*
X042001Y004336D01*
X042001Y004237D02*
X041901Y004237D01*
X041901Y004139D02*
X042001Y004139D01*
X042001Y004040D02*
X041901Y004040D01*
X041901Y003942D02*
X042001Y003942D01*
X042001Y003843D02*
X041901Y003843D01*
X041586Y003843D02*
X041213Y003843D01*
X040501Y003646D02*
X036255Y003646D01*
X036255Y003548D02*
X040460Y003548D01*
X040444Y003449D02*
X036225Y003449D01*
X036156Y003351D02*
X040444Y003351D01*
X040467Y003252D02*
X032168Y003252D01*
X032168Y003154D02*
X040507Y003154D01*
X040588Y003055D02*
X040121Y003055D01*
X039994Y003055D02*
X039894Y003055D01*
X039894Y002957D02*
X039994Y002957D01*
X039994Y002858D02*
X039894Y002858D01*
X039894Y002760D02*
X039994Y002760D01*
X039994Y002661D02*
X039894Y002661D01*
X039894Y002563D02*
X039994Y002563D01*
X039994Y002464D02*
X039894Y002464D01*
X039893Y002366D02*
X032168Y002366D01*
X032168Y002464D02*
X039271Y002464D01*
X039287Y002563D02*
X032168Y002563D01*
X032168Y002661D02*
X039319Y002661D01*
X039369Y002760D02*
X032168Y002760D01*
X032168Y002858D02*
X039443Y002858D01*
X039555Y002957D02*
X032168Y002957D01*
X032168Y003055D02*
X039766Y003055D01*
X040332Y002957D02*
X040720Y002957D01*
X041174Y002957D02*
X041563Y002957D01*
X039994Y003843D02*
X039894Y003843D01*
X039894Y003942D02*
X039994Y003942D01*
X039994Y004040D02*
X039894Y004040D01*
X039894Y004139D02*
X039994Y004139D01*
X039994Y004237D02*
X039894Y004237D01*
X039894Y004533D02*
X039994Y004533D01*
X039994Y004631D02*
X039894Y004631D01*
X039894Y004730D02*
X039994Y004730D01*
X039994Y004828D02*
X039894Y004828D01*
X039894Y004927D02*
X039994Y004927D01*
X039994Y005025D02*
X039894Y005025D01*
X039661Y005025D02*
X039025Y005025D01*
X039025Y004927D02*
X039506Y004927D01*
X039412Y004828D02*
X039024Y004828D01*
X039024Y004730D02*
X039348Y004730D01*
X039304Y004631D02*
X039023Y004631D01*
X039023Y004533D02*
X039279Y004533D01*
X038665Y004533D02*
X032168Y004533D01*
X032168Y004631D02*
X038666Y004631D01*
X038666Y004730D02*
X032168Y004730D01*
X032168Y004828D02*
X038667Y004828D01*
X038667Y004927D02*
X032168Y004927D01*
X032168Y005025D02*
X038668Y005025D01*
X038668Y005124D02*
X032168Y005124D01*
X032168Y005222D02*
X038669Y005222D01*
X038669Y005321D02*
X032168Y005321D01*
X032168Y005419D02*
X038670Y005419D01*
X038670Y005518D02*
X032168Y005518D01*
X032168Y005616D02*
X038671Y005616D01*
X038671Y005715D02*
X032168Y005715D01*
X032168Y005813D02*
X038672Y005813D01*
X038672Y005912D02*
X032168Y005912D01*
X032168Y006010D02*
X038673Y006010D01*
X038673Y006109D02*
X034976Y006109D01*
X035095Y006207D02*
X038674Y006207D01*
X038674Y006306D02*
X035140Y006306D01*
X035152Y006404D02*
X038675Y006404D01*
X038675Y006503D02*
X035137Y006503D01*
X035086Y006601D02*
X038676Y006601D01*
X038676Y006700D02*
X035014Y006700D01*
X035014Y006798D02*
X038677Y006798D01*
X038677Y006897D02*
X035014Y006897D01*
X035014Y006995D02*
X038678Y006995D01*
X038678Y007094D02*
X035014Y007094D01*
X035014Y007192D02*
X038679Y007192D01*
X038679Y007291D02*
X035014Y007291D01*
X035014Y007389D02*
X038680Y007389D01*
X038681Y007488D02*
X035014Y007488D01*
X035014Y007586D02*
X038590Y007586D01*
X038546Y007685D02*
X035014Y007685D01*
X035014Y007783D02*
X038534Y007783D01*
X038550Y007882D02*
X035014Y007882D01*
X035014Y007980D02*
X038601Y007980D01*
X038733Y008079D02*
X035014Y008079D01*
X035014Y008177D02*
X043692Y008177D01*
X043692Y008079D02*
X038989Y008079D01*
X039121Y007980D02*
X043692Y007980D01*
X043692Y007882D02*
X039172Y007882D01*
X039188Y007783D02*
X043692Y007783D01*
X043692Y007685D02*
X039176Y007685D01*
X039131Y007586D02*
X043692Y007586D01*
X043692Y007488D02*
X039038Y007488D01*
X039037Y007389D02*
X043692Y007389D01*
X043692Y007291D02*
X039037Y007291D01*
X039036Y007192D02*
X043692Y007192D01*
X043692Y007094D02*
X041943Y007094D01*
X042074Y006995D02*
X043692Y006995D01*
X043692Y006897D02*
X042125Y006897D01*
X041684Y007094D02*
X039036Y007094D01*
X039035Y006995D02*
X041553Y006995D01*
X041502Y006897D02*
X039035Y006897D01*
X039034Y006798D02*
X041487Y006798D01*
X041499Y006700D02*
X039034Y006700D01*
X039033Y006601D02*
X041261Y006601D01*
X041161Y006503D02*
X039033Y006503D01*
X039032Y006404D02*
X041120Y006404D01*
X041113Y006306D02*
X039032Y006306D01*
X037581Y005869D02*
X036892Y005869D01*
X036892Y007975D01*
X037286Y007975D01*
X038861Y007778D02*
X038841Y004018D01*
X038665Y004434D02*
X032168Y004434D01*
X032168Y003646D02*
X035601Y003646D01*
X035601Y003548D02*
X032168Y003548D01*
X032168Y003449D02*
X035630Y003449D01*
X035700Y003351D02*
X032168Y003351D01*
X032443Y003329D02*
X032778Y003329D01*
X032778Y003310D01*
X032168Y002267D02*
X039281Y002267D01*
X039310Y002169D02*
X032168Y002169D01*
X032168Y002070D02*
X039357Y002070D01*
X039424Y001972D02*
X032168Y001972D01*
X032168Y001873D02*
X039526Y001873D01*
X039699Y001775D02*
X032168Y001775D01*
X032168Y001676D02*
X049255Y001676D01*
X049271Y004336D02*
X044070Y004336D01*
X044162Y004434D02*
X045675Y004434D01*
X045651Y004441D02*
X045737Y004418D01*
X045819Y004407D01*
X045819Y005031D01*
X045919Y005031D01*
X045919Y005131D01*
X046543Y005131D01*
X046532Y005213D01*
X046509Y005299D01*
X046475Y005380D01*
X046431Y005457D01*
X046377Y005527D01*
X046315Y005590D01*
X046245Y005644D01*
X046168Y005688D01*
X046086Y005722D01*
X046001Y005745D01*
X045919Y005756D01*
X045919Y005131D01*
X045819Y005131D01*
X045819Y005031D01*
X045194Y005031D01*
X045205Y004949D01*
X045228Y004864D01*
X045262Y004782D01*
X045306Y004705D01*
X045360Y004635D01*
X045423Y004573D01*
X045493Y004519D01*
X045570Y004475D01*
X045651Y004441D01*
X045819Y004434D02*
X045919Y004434D01*
X045919Y004407D02*
X046001Y004418D01*
X046086Y004441D01*
X046168Y004475D01*
X046245Y004519D01*
X046315Y004573D01*
X046377Y004635D01*
X046431Y004705D01*
X046475Y004782D01*
X046509Y004864D01*
X046532Y004949D01*
X046543Y005031D01*
X045919Y005031D01*
X045919Y004407D01*
X045919Y004533D02*
X045819Y004533D01*
X045819Y004631D02*
X045919Y004631D01*
X045919Y004730D02*
X045819Y004730D01*
X045819Y004828D02*
X045919Y004828D01*
X045919Y004927D02*
X045819Y004927D01*
X045819Y005025D02*
X045919Y005025D01*
X045919Y005124D02*
X047826Y005124D01*
X047826Y005131D02*
X047826Y005031D01*
X047202Y005031D01*
X047213Y004949D01*
X047236Y004864D01*
X047270Y004782D01*
X047314Y004705D01*
X047368Y004635D01*
X047430Y004573D01*
X047501Y004519D01*
X047577Y004475D01*
X047659Y004441D01*
X047745Y004418D01*
X047826Y004407D01*
X047826Y005031D01*
X047926Y005031D01*
X047926Y004407D01*
X048008Y004418D01*
X048094Y004441D01*
X048176Y004475D01*
X048252Y004519D01*
X048323Y004573D01*
X048385Y004635D01*
X048439Y004705D01*
X048483Y004782D01*
X048517Y004864D01*
X048540Y004949D01*
X048551Y005031D01*
X047927Y005031D01*
X047927Y005131D01*
X048551Y005131D01*
X048540Y005213D01*
X048517Y005299D01*
X048483Y005380D01*
X048439Y005457D01*
X048385Y005527D01*
X048323Y005590D01*
X048252Y005644D01*
X048176Y005688D01*
X048094Y005722D01*
X048008Y005745D01*
X047926Y005756D01*
X047926Y005131D01*
X047826Y005131D01*
X047202Y005131D01*
X047213Y005213D01*
X047236Y005299D01*
X047270Y005380D01*
X047314Y005457D01*
X047368Y005527D01*
X047430Y005590D01*
X047501Y005644D01*
X047577Y005688D01*
X047659Y005722D01*
X047745Y005745D01*
X047826Y005756D01*
X047826Y005131D01*
X047826Y005222D02*
X047926Y005222D01*
X047927Y005124D02*
X049273Y005124D01*
X049273Y005222D02*
X048538Y005222D01*
X048508Y005321D02*
X049273Y005321D01*
X049273Y005419D02*
X048461Y005419D01*
X048392Y005518D02*
X049273Y005518D01*
X049272Y005616D02*
X048288Y005616D01*
X048111Y005715D02*
X049272Y005715D01*
X049272Y005813D02*
X047305Y005813D01*
X047300Y005800D02*
X047376Y005985D01*
X047376Y006185D01*
X047300Y006371D01*
X047158Y006512D01*
X046973Y006589D01*
X046772Y006589D01*
X046587Y006512D01*
X046446Y006371D01*
X046369Y006185D01*
X046369Y005985D01*
X046446Y005800D01*
X046587Y005658D01*
X046772Y005581D01*
X046973Y005581D01*
X047158Y005658D01*
X047300Y005800D01*
X047215Y005715D02*
X047642Y005715D01*
X047826Y005715D02*
X047926Y005715D01*
X047926Y005616D02*
X047826Y005616D01*
X047826Y005518D02*
X047926Y005518D01*
X047926Y005419D02*
X047826Y005419D01*
X047826Y005321D02*
X047926Y005321D01*
X047926Y005025D02*
X047826Y005025D01*
X047826Y004927D02*
X047926Y004927D01*
X047926Y004828D02*
X047826Y004828D01*
X047826Y004730D02*
X047926Y004730D01*
X047926Y004631D02*
X047826Y004631D01*
X047826Y004533D02*
X047926Y004533D01*
X047926Y004434D02*
X047826Y004434D01*
X047683Y004434D02*
X046062Y004434D01*
X046263Y004533D02*
X047482Y004533D01*
X047372Y004631D02*
X046373Y004631D01*
X046445Y004730D02*
X047300Y004730D01*
X047251Y004828D02*
X046495Y004828D01*
X046526Y004927D02*
X047219Y004927D01*
X047203Y005025D02*
X046542Y005025D01*
X046530Y005222D02*
X047215Y005222D01*
X047245Y005321D02*
X046500Y005321D01*
X046453Y005419D02*
X047292Y005419D01*
X047361Y005518D02*
X046385Y005518D01*
X046280Y005616D02*
X046688Y005616D01*
X046531Y005715D02*
X046103Y005715D01*
X045919Y005715D02*
X045819Y005715D01*
X045819Y005756D02*
X045737Y005745D01*
X045651Y005722D01*
X045570Y005688D01*
X045493Y005644D01*
X045423Y005590D01*
X045360Y005527D01*
X045306Y005457D01*
X045262Y005380D01*
X045228Y005299D01*
X045205Y005213D01*
X045194Y005131D01*
X045819Y005131D01*
X045819Y005756D01*
X045819Y005616D02*
X045919Y005616D01*
X045919Y005518D02*
X045819Y005518D01*
X045819Y005419D02*
X045919Y005419D01*
X045919Y005321D02*
X045819Y005321D01*
X045819Y005222D02*
X045919Y005222D01*
X045819Y005124D02*
X044069Y005124D01*
X044069Y005222D02*
X045208Y005222D01*
X045237Y005321D02*
X044069Y005321D01*
X044069Y005419D02*
X045284Y005419D01*
X045353Y005518D02*
X044069Y005518D01*
X044069Y005616D02*
X045457Y005616D01*
X045634Y005715D02*
X044069Y005715D01*
X044069Y005813D02*
X046440Y005813D01*
X046399Y005912D02*
X044069Y005912D01*
X044069Y006010D02*
X046369Y006010D01*
X046369Y006109D02*
X044069Y006109D01*
X044069Y006207D02*
X046378Y006207D01*
X046419Y006306D02*
X044069Y006306D01*
X044069Y006404D02*
X046479Y006404D01*
X046578Y006503D02*
X046203Y006503D01*
X046168Y006482D02*
X046245Y006527D01*
X046315Y006581D01*
X046377Y006643D01*
X046431Y006713D01*
X046475Y006790D01*
X046509Y006872D01*
X046532Y006957D01*
X046543Y007039D01*
X045919Y007039D01*
X045919Y007139D01*
X046543Y007139D01*
X046532Y007221D01*
X046509Y007307D01*
X046475Y007388D01*
X046431Y007465D01*
X046377Y007535D01*
X046315Y007598D01*
X046245Y007652D01*
X046168Y007696D01*
X046086Y007730D01*
X046001Y007753D01*
X045919Y007763D01*
X045919Y007139D01*
X045819Y007139D01*
X045819Y007763D01*
X045737Y007753D01*
X045651Y007730D01*
X045570Y007696D01*
X045493Y007652D01*
X045423Y007598D01*
X045360Y007535D01*
X045306Y007465D01*
X045262Y007388D01*
X045228Y007307D01*
X045205Y007221D01*
X045194Y007139D01*
X045819Y007139D01*
X045819Y007039D01*
X045919Y007039D01*
X045919Y006415D01*
X046001Y006426D01*
X046086Y006449D01*
X046168Y006482D01*
X046336Y006601D02*
X047410Y006601D01*
X047430Y006581D02*
X047501Y006527D01*
X047577Y006482D01*
X047659Y006449D01*
X047745Y006426D01*
X047826Y006415D01*
X047826Y007039D01*
X047202Y007039D01*
X047213Y006957D01*
X047236Y006872D01*
X047270Y006790D01*
X047314Y006713D01*
X047368Y006643D01*
X047430Y006581D01*
X047542Y006503D02*
X047167Y006503D01*
X047266Y006404D02*
X049272Y006404D01*
X049272Y006306D02*
X047326Y006306D01*
X047367Y006207D02*
X049272Y006207D01*
X049272Y006109D02*
X047376Y006109D01*
X047376Y006010D02*
X049272Y006010D01*
X049272Y005912D02*
X047346Y005912D01*
X047465Y005616D02*
X047057Y005616D01*
X047926Y006415D02*
X048008Y006426D01*
X048094Y006449D01*
X048176Y006482D01*
X048252Y006527D01*
X048323Y006581D01*
X048385Y006643D01*
X048439Y006713D01*
X048483Y006790D01*
X048517Y006872D01*
X048540Y006957D01*
X048551Y007039D01*
X047927Y007039D01*
X047927Y007139D01*
X048551Y007139D01*
X048540Y007221D01*
X048517Y007307D01*
X048483Y007388D01*
X048439Y007465D01*
X048385Y007535D01*
X048323Y007598D01*
X048252Y007652D01*
X048176Y007696D01*
X048094Y007730D01*
X048008Y007753D01*
X047926Y007763D01*
X047926Y007139D01*
X047826Y007139D01*
X047826Y007039D01*
X047926Y007039D01*
X047926Y006415D01*
X047926Y006503D02*
X047826Y006503D01*
X047826Y006601D02*
X047926Y006601D01*
X047926Y006700D02*
X047826Y006700D01*
X047826Y006798D02*
X047926Y006798D01*
X047926Y006897D02*
X047826Y006897D01*
X047826Y006995D02*
X047926Y006995D01*
X047927Y007094D02*
X049271Y007094D01*
X049271Y007192D02*
X048544Y007192D01*
X048521Y007291D02*
X049271Y007291D01*
X049271Y007389D02*
X048483Y007389D01*
X048421Y007488D02*
X049271Y007488D01*
X049271Y007586D02*
X048334Y007586D01*
X048195Y007685D02*
X049271Y007685D01*
X049270Y007783D02*
X044069Y007783D01*
X044069Y007685D02*
X045551Y007685D01*
X045411Y007586D02*
X044069Y007586D01*
X044069Y007488D02*
X045324Y007488D01*
X045263Y007389D02*
X044069Y007389D01*
X044069Y007291D02*
X045224Y007291D01*
X045201Y007192D02*
X044069Y007192D01*
X044069Y007094D02*
X045819Y007094D01*
X045819Y007039D02*
X045194Y007039D01*
X045205Y006957D01*
X045228Y006872D01*
X045262Y006790D01*
X045306Y006713D01*
X045360Y006643D01*
X045423Y006581D01*
X045493Y006527D01*
X045570Y006482D01*
X045651Y006449D01*
X045737Y006426D01*
X045819Y006415D01*
X045819Y007039D01*
X045819Y006995D02*
X045919Y006995D01*
X045919Y006897D02*
X045819Y006897D01*
X045819Y006798D02*
X045919Y006798D01*
X045919Y006700D02*
X045819Y006700D01*
X045819Y006601D02*
X045919Y006601D01*
X045919Y006503D02*
X045819Y006503D01*
X045534Y006503D02*
X044069Y006503D01*
X044069Y006601D02*
X045402Y006601D01*
X045317Y006700D02*
X044069Y006700D01*
X044069Y006798D02*
X045259Y006798D01*
X045221Y006897D02*
X044069Y006897D01*
X044069Y006995D02*
X045200Y006995D01*
X045819Y007192D02*
X045919Y007192D01*
X045919Y007094D02*
X047826Y007094D01*
X047826Y007139D02*
X047202Y007139D01*
X047213Y007221D01*
X047236Y007307D01*
X047270Y007388D01*
X047314Y007465D01*
X047368Y007535D01*
X047430Y007598D01*
X047501Y007652D01*
X047577Y007696D01*
X047659Y007730D01*
X047745Y007753D01*
X047826Y007763D01*
X047826Y007139D01*
X047826Y007192D02*
X047926Y007192D01*
X047926Y007291D02*
X047826Y007291D01*
X047826Y007389D02*
X047926Y007389D01*
X047926Y007488D02*
X047826Y007488D01*
X047826Y007586D02*
X047926Y007586D01*
X047926Y007685D02*
X047826Y007685D01*
X047558Y007685D02*
X046187Y007685D01*
X046326Y007586D02*
X047419Y007586D01*
X047332Y007488D02*
X046414Y007488D01*
X046475Y007389D02*
X047270Y007389D01*
X047232Y007291D02*
X046513Y007291D01*
X046536Y007192D02*
X047209Y007192D01*
X047208Y006995D02*
X046537Y006995D01*
X046516Y006897D02*
X047229Y006897D01*
X047266Y006798D02*
X046479Y006798D01*
X046421Y006700D02*
X047324Y006700D01*
X048211Y006503D02*
X049272Y006503D01*
X049272Y006601D02*
X048343Y006601D01*
X048429Y006700D02*
X049271Y006700D01*
X049271Y006798D02*
X048487Y006798D01*
X048524Y006897D02*
X049271Y006897D01*
X049271Y006995D02*
X048545Y006995D01*
X049270Y007882D02*
X044069Y007882D01*
X044069Y007980D02*
X049270Y007980D01*
X049270Y008079D02*
X044069Y008079D01*
X044069Y008177D02*
X049270Y008177D01*
X049270Y008276D02*
X044069Y008276D01*
X044069Y008374D02*
X049270Y008374D01*
X049270Y008473D02*
X044069Y008473D01*
X044069Y008571D02*
X049270Y008571D01*
X049270Y008670D02*
X044069Y008670D01*
X044069Y008768D02*
X049270Y008768D01*
X049269Y008867D02*
X045689Y008867D01*
X045762Y008965D02*
X049269Y008965D01*
X049269Y009064D02*
X045762Y009064D01*
X045762Y009162D02*
X049269Y009162D01*
X049269Y009261D02*
X045762Y009261D01*
X045778Y009359D02*
X046688Y009359D01*
X046642Y009378D02*
X046799Y009313D01*
X046970Y009313D01*
X047127Y009378D01*
X047248Y009499D01*
X047313Y009657D01*
X047313Y010427D01*
X047248Y010585D01*
X047127Y010705D01*
X046970Y010771D01*
X046799Y010771D01*
X046642Y010705D01*
X046521Y010585D01*
X046456Y010427D01*
X046456Y009657D01*
X046521Y009499D01*
X046642Y009378D01*
X046562Y009458D02*
X045904Y009458D01*
X045968Y009556D02*
X046497Y009556D01*
X046456Y009655D02*
X046009Y009655D01*
X046010Y009753D02*
X046456Y009753D01*
X046456Y009852D02*
X046010Y009852D01*
X046010Y009950D02*
X046456Y009950D01*
X046456Y010049D02*
X046010Y010049D01*
X046010Y010147D02*
X046456Y010147D01*
X046456Y010246D02*
X046010Y010246D01*
X046010Y010344D02*
X046456Y010344D01*
X046462Y010443D02*
X046003Y010443D01*
X045963Y010541D02*
X046503Y010541D01*
X046576Y010640D02*
X045890Y010640D01*
X045744Y010738D02*
X046721Y010738D01*
X047048Y010738D02*
X047671Y010738D01*
X047649Y010727D02*
X047591Y010685D01*
X047541Y010635D01*
X047500Y010578D01*
X047467Y010515D01*
X047445Y010447D01*
X047434Y010377D01*
X047434Y010092D01*
X047834Y010092D01*
X047834Y009992D01*
X047434Y009992D01*
X047434Y009706D01*
X047445Y009637D01*
X047467Y009569D01*
X047500Y009506D01*
X047541Y009449D01*
X047591Y009399D01*
X047649Y009357D01*
X047712Y009325D01*
X047779Y009303D01*
X047834Y009294D01*
X047834Y009992D01*
X047934Y009992D01*
X047934Y009294D01*
X047990Y009303D01*
X048057Y009325D01*
X048120Y009357D01*
X048178Y009399D01*
X048228Y009449D01*
X048269Y009506D01*
X048301Y009569D01*
X048323Y009637D01*
X048334Y009706D01*
X048334Y009992D01*
X047934Y009992D01*
X047934Y010092D01*
X047834Y010092D01*
X047834Y010790D01*
X047779Y010781D01*
X047712Y010759D01*
X047649Y010727D01*
X047546Y010640D02*
X047193Y010640D01*
X047266Y010541D02*
X047481Y010541D01*
X047445Y010443D02*
X047307Y010443D01*
X047313Y010344D02*
X047434Y010344D01*
X047434Y010246D02*
X047313Y010246D01*
X047313Y010147D02*
X047434Y010147D01*
X047313Y010049D02*
X047834Y010049D01*
X047834Y010147D02*
X047934Y010147D01*
X047934Y010092D02*
X047934Y010790D01*
X047990Y010781D01*
X048057Y010759D01*
X048120Y010727D01*
X048178Y010685D01*
X048228Y010635D01*
X048269Y010578D01*
X048301Y010515D01*
X048323Y010447D01*
X048334Y010377D01*
X048334Y010092D01*
X047934Y010092D01*
X047934Y010049D02*
X049268Y010049D01*
X049268Y010147D02*
X048334Y010147D01*
X048334Y010246D02*
X049268Y010246D01*
X049268Y010344D02*
X048334Y010344D01*
X048324Y010443D02*
X049268Y010443D01*
X049268Y010541D02*
X048288Y010541D01*
X048223Y010640D02*
X049268Y010640D01*
X049268Y010738D02*
X048097Y010738D01*
X047934Y010738D02*
X047834Y010738D01*
X047834Y010640D02*
X047934Y010640D01*
X047934Y010541D02*
X047834Y010541D01*
X047834Y010443D02*
X047934Y010443D01*
X047934Y010344D02*
X047834Y010344D01*
X047834Y010246D02*
X047934Y010246D01*
X047934Y009950D02*
X047834Y009950D01*
X047834Y009852D02*
X047934Y009852D01*
X047934Y009753D02*
X047834Y009753D01*
X047834Y009655D02*
X047934Y009655D01*
X047934Y009556D02*
X047834Y009556D01*
X047834Y009458D02*
X047934Y009458D01*
X047934Y009359D02*
X047834Y009359D01*
X047645Y009359D02*
X047081Y009359D01*
X047207Y009458D02*
X047535Y009458D01*
X047474Y009556D02*
X047272Y009556D01*
X047312Y009655D02*
X047443Y009655D01*
X047434Y009753D02*
X047313Y009753D01*
X047313Y009852D02*
X047434Y009852D01*
X047434Y009950D02*
X047313Y009950D01*
X048123Y009359D02*
X049269Y009359D01*
X049269Y009458D02*
X048234Y009458D01*
X048295Y009556D02*
X049269Y009556D01*
X049269Y009655D02*
X048326Y009655D01*
X048334Y009753D02*
X049269Y009753D01*
X049268Y009852D02*
X048334Y009852D01*
X048334Y009950D02*
X049268Y009950D01*
X049268Y010837D02*
X039652Y010837D01*
X039623Y010907D02*
X039502Y011027D01*
X039344Y011093D01*
X038574Y011093D01*
X038416Y011027D01*
X038300Y010911D01*
X038183Y011027D01*
X038026Y011093D01*
X037255Y011093D01*
X037097Y011027D01*
X036977Y010907D01*
X036912Y010749D01*
X036912Y010579D01*
X036977Y010421D01*
X037097Y010300D01*
X037255Y010235D01*
X038026Y010235D01*
X038183Y010300D01*
X038300Y010417D01*
X038416Y010300D01*
X038574Y010235D01*
X039344Y010235D01*
X039502Y010300D01*
X039623Y010421D01*
X039688Y010579D01*
X039688Y010749D01*
X039623Y010907D01*
X039594Y010935D02*
X049267Y010935D01*
X049267Y011034D02*
X039486Y011034D01*
X039531Y011329D02*
X049267Y011329D01*
X049267Y011231D02*
X032168Y011231D01*
X032168Y011329D02*
X033978Y011329D01*
X034023Y011034D02*
X032168Y011034D01*
X032168Y011132D02*
X049267Y011132D01*
X045418Y010738D02*
X044744Y010738D01*
X044667Y010771D02*
X044496Y010771D01*
X044338Y010705D01*
X044218Y010585D01*
X044153Y010427D01*
X044153Y009657D01*
X044218Y009499D01*
X044338Y009378D01*
X044496Y009313D01*
X044667Y009313D01*
X044824Y009378D01*
X044945Y009499D01*
X045010Y009657D01*
X045010Y010427D01*
X044945Y010585D01*
X044824Y010705D01*
X044667Y010771D01*
X044418Y010738D02*
X039688Y010738D01*
X039688Y010640D02*
X044273Y010640D01*
X044200Y010541D02*
X039673Y010541D01*
X039632Y010443D02*
X044159Y010443D01*
X044153Y010344D02*
X039546Y010344D01*
X039370Y010246D02*
X044153Y010246D01*
X044153Y010147D02*
X032168Y010147D01*
X032168Y010049D02*
X044153Y010049D01*
X044153Y009950D02*
X032168Y009950D01*
X032168Y009852D02*
X044153Y009852D01*
X044153Y009753D02*
X032168Y009753D01*
X032168Y009655D02*
X044153Y009655D01*
X044194Y009556D02*
X032168Y009556D01*
X032168Y009458D02*
X044259Y009458D01*
X044384Y009359D02*
X032168Y009359D01*
X032168Y009261D02*
X045385Y009261D01*
X045384Y009359D02*
X044778Y009359D01*
X044904Y009458D02*
X045259Y009458D01*
X045194Y009556D02*
X044968Y009556D01*
X045009Y009655D02*
X045153Y009655D01*
X045153Y009753D02*
X045010Y009753D01*
X045010Y009852D02*
X045153Y009852D01*
X045153Y009950D02*
X045010Y009950D01*
X045010Y010049D02*
X045153Y010049D01*
X045153Y010147D02*
X045010Y010147D01*
X045010Y010246D02*
X045153Y010246D01*
X045153Y010344D02*
X045010Y010344D01*
X045003Y010443D02*
X045159Y010443D01*
X045200Y010541D02*
X044963Y010541D01*
X044890Y010640D02*
X045273Y010640D01*
X043692Y008768D02*
X035014Y008768D01*
X035014Y008670D02*
X043692Y008670D01*
X043692Y008571D02*
X035014Y008571D01*
X035014Y008473D02*
X043692Y008473D01*
X043692Y008374D02*
X035014Y008374D01*
X035014Y008276D02*
X043692Y008276D01*
X045819Y007685D02*
X045919Y007685D01*
X045919Y007586D02*
X045819Y007586D01*
X045819Y007488D02*
X045919Y007488D01*
X045919Y007389D02*
X045819Y007389D01*
X045819Y007291D02*
X045919Y007291D01*
X043692Y005616D02*
X043421Y005616D01*
X043488Y005518D02*
X043692Y005518D01*
X043692Y005419D02*
X043488Y005419D01*
X043488Y005321D02*
X043692Y005321D01*
X043692Y005222D02*
X043488Y005222D01*
X043488Y005124D02*
X043692Y005124D01*
X043692Y005025D02*
X043488Y005025D01*
X043488Y004927D02*
X043692Y004927D01*
X043638Y004828D02*
X043552Y004828D01*
X044069Y004927D02*
X045211Y004927D01*
X045195Y005025D02*
X044069Y005025D01*
X044123Y004828D02*
X045243Y004828D01*
X045292Y004730D02*
X044184Y004730D01*
X044207Y004631D02*
X045364Y004631D01*
X045475Y004533D02*
X044203Y004533D01*
X043691Y004336D02*
X043499Y004336D01*
X043591Y004434D02*
X043599Y004434D01*
X048070Y004434D02*
X049271Y004434D01*
X049272Y004533D02*
X048271Y004533D01*
X048381Y004631D02*
X049273Y004631D01*
X049273Y004730D02*
X048453Y004730D01*
X048502Y004828D02*
X049273Y004828D01*
X049273Y004927D02*
X048534Y004927D01*
X048550Y005025D02*
X049273Y005025D01*
X038959Y008605D02*
X038959Y008782D01*
X036412Y010300D02*
X036254Y010235D01*
X035483Y010235D01*
X035326Y010300D01*
X035209Y010417D01*
X035093Y010300D01*
X034935Y010235D01*
X034164Y010235D01*
X034007Y010300D01*
X033886Y010421D01*
X033821Y010579D01*
X033821Y010749D01*
X033886Y010907D01*
X034007Y011027D01*
X034164Y011093D01*
X034935Y011093D01*
X035093Y011027D01*
X035209Y010911D01*
X035326Y011027D01*
X035483Y011093D01*
X036254Y011093D01*
X036412Y011027D01*
X036532Y010907D01*
X036597Y010749D01*
X036597Y010579D01*
X036532Y010421D01*
X036412Y010300D01*
X036455Y010344D02*
X037054Y010344D01*
X036968Y010443D02*
X036541Y010443D01*
X036582Y010541D02*
X036927Y010541D01*
X036912Y010640D02*
X036597Y010640D01*
X036597Y010738D02*
X036912Y010738D01*
X036948Y010837D02*
X036561Y010837D01*
X036504Y010935D02*
X037005Y010935D01*
X037113Y011034D02*
X036396Y011034D01*
X036440Y011329D02*
X037069Y011329D01*
X038168Y011034D02*
X038432Y011034D01*
X038324Y010935D02*
X038275Y010935D01*
X038212Y011329D02*
X038387Y011329D01*
X038372Y010344D02*
X038227Y010344D01*
X038051Y010246D02*
X038548Y010246D01*
X037229Y010246D02*
X036280Y010246D01*
X035458Y010246D02*
X034961Y010246D01*
X035137Y010344D02*
X035282Y010344D01*
X034139Y010246D02*
X032168Y010246D01*
X032168Y010344D02*
X033963Y010344D01*
X033877Y010443D02*
X032168Y010443D01*
X032168Y010541D02*
X033836Y010541D01*
X033821Y010640D02*
X032168Y010640D01*
X032168Y010738D02*
X033821Y010738D01*
X033857Y010837D02*
X032168Y010837D01*
X032168Y010935D02*
X033915Y010935D01*
X035077Y011034D02*
X035341Y011034D01*
X035234Y010935D02*
X035185Y010935D01*
X035122Y011329D02*
X035297Y011329D01*
X034703Y009162D02*
X032168Y009162D01*
X032168Y009064D02*
X034637Y009064D01*
X034637Y008965D02*
X032168Y008965D01*
X032168Y008867D02*
X034637Y008867D01*
X034637Y008768D02*
X032168Y008768D01*
X032168Y008670D02*
X034637Y008670D01*
X034637Y008571D02*
X032168Y008571D01*
X032168Y008473D02*
X034637Y008473D01*
X034637Y008374D02*
X032168Y008374D01*
X032168Y008276D02*
X034637Y008276D01*
X034637Y008177D02*
X032168Y008177D01*
X032168Y008079D02*
X034637Y008079D01*
X034637Y007980D02*
X032168Y007980D01*
X032168Y007882D02*
X034637Y007882D01*
X034637Y007783D02*
X032168Y007783D01*
X032168Y007685D02*
X034637Y007685D01*
X034637Y007586D02*
X032168Y007586D01*
X032168Y007488D02*
X034637Y007488D01*
X034637Y007389D02*
X032168Y007389D01*
X032168Y007291D02*
X034637Y007291D01*
X034637Y007192D02*
X032168Y007192D01*
X032168Y007094D02*
X034637Y007094D01*
X034637Y006995D02*
X032168Y006995D01*
X032168Y006897D02*
X034637Y006897D01*
X034637Y006798D02*
X032168Y006798D01*
X032168Y006700D02*
X034637Y006700D01*
X034564Y006601D02*
X032168Y006601D01*
X032168Y006503D02*
X034514Y006503D01*
X034499Y006404D02*
X032168Y006404D01*
X032168Y006306D02*
X034511Y006306D01*
X034556Y006207D02*
X032168Y006207D01*
X032168Y006109D02*
X034675Y006109D01*
X036341Y007010D02*
X036892Y007010D01*
X036892Y005869D01*
X028290Y011262D02*
X016302Y011262D01*
X016302Y011538D01*
X015928Y012266D02*
X020121Y012266D01*
X020121Y012247D01*
X027896Y012247D01*
X027896Y012483D01*
X027896Y012266D01*
X028290Y011932D02*
X028290Y011262D01*
X022188Y011066D02*
X012306Y011066D01*
X012148Y011223D01*
X012050Y010869D02*
X011695Y011223D01*
X011243Y011223D02*
X011794Y010672D01*
X021715Y010672D01*
X021951Y010869D02*
X012050Y010869D01*
X011538Y010475D02*
X010790Y011223D01*
X011538Y010475D02*
X021479Y010475D01*
X017936Y007589D02*
X017955Y002542D01*
X018963Y002562D02*
X018963Y007117D01*
X017963Y007117D02*
X017936Y007589D01*
X019963Y007117D02*
X019983Y002089D01*
X020983Y002325D02*
X020963Y007117D01*
X014825Y006282D02*
X011814Y006282D01*
X014825Y006282D02*
X014825Y010121D01*
D16*
X016302Y011538D03*
X015928Y012266D03*
X011321Y013664D03*
X008428Y013546D03*
X007896Y013231D03*
X009353Y008782D03*
X008447Y008329D03*
X007188Y004589D03*
X017955Y002542D03*
X018963Y002562D03*
X020983Y002325D03*
X032443Y003329D03*
X035928Y003585D03*
X038841Y004018D03*
X041440Y005436D03*
X041440Y006321D03*
X041814Y006794D03*
X038861Y007778D03*
X037286Y007975D03*
X038959Y008605D03*
X036341Y007010D03*
X034825Y006400D03*
X036892Y005869D03*
X037581Y005869D03*
X032443Y005475D03*
X043310Y004609D03*
X043880Y004609D03*
X036006Y014786D03*
X038369Y015121D03*
X041341Y016558D03*
X033132Y015632D03*
X023940Y019353D03*
X022030Y019373D03*
X007975Y018762D03*
D17*
X013211Y013625D03*
X012463Y012424D03*
X013369Y011774D03*
X012148Y011223D03*
X011695Y011223D03*
X011243Y011223D03*
X010790Y011223D03*
X010258Y011499D03*
X010573Y012424D03*
X008447Y012837D03*
X006676Y010829D03*
X006243Y008191D03*
X007778Y005770D03*
X011814Y006282D03*
X014412Y008329D03*
X018290Y010121D03*
X018802Y010121D03*
X018723Y008821D03*
X016676Y005770D03*
X019983Y002089D03*
X028841Y003802D03*
X028290Y006026D03*
X031597Y007483D03*
X028841Y010514D03*
X028841Y012010D03*
X027896Y012483D03*
X028290Y013388D03*
X031479Y015003D03*
X035967Y015416D03*
X036833Y015416D03*
X036420Y014058D03*
X036420Y013172D03*
X037463Y012562D03*
X034747Y012660D03*
X028841Y017877D03*
X028841Y019373D03*
X027896Y019884D03*
X036282Y018625D03*
X037404Y020613D03*
D18*
X001231Y021354D02*
X001249Y001348D01*
X031440Y001348D01*
X031440Y003518D01*
X029265Y003518D01*
X029124Y003378D01*
X028941Y003302D01*
X028742Y003302D01*
X028558Y003378D01*
X028417Y003519D01*
X028341Y003702D01*
X028341Y005548D01*
X028195Y005548D01*
X028019Y005621D01*
X027884Y005755D01*
X027811Y005931D01*
X027811Y006121D01*
X027884Y006297D01*
X027930Y006343D01*
X027930Y010912D01*
X023898Y010912D01*
X023914Y010874D01*
X023914Y010635D01*
X023823Y010415D01*
X023663Y010254D01*
X023823Y010094D01*
X023914Y009874D01*
X023914Y009635D01*
X023823Y009415D01*
X023663Y009254D01*
X023823Y009094D01*
X023914Y008874D01*
X023914Y008635D01*
X023823Y008415D01*
X023663Y008254D01*
X023823Y008094D01*
X023914Y007874D01*
X023914Y007635D01*
X023823Y007415D01*
X023663Y007254D01*
X023823Y007094D01*
X023914Y006874D01*
X023914Y006635D01*
X023823Y006415D01*
X023663Y006254D01*
X023823Y006094D01*
X023914Y005874D01*
X023914Y005635D01*
X023823Y005415D01*
X023654Y005246D01*
X023434Y005154D01*
X022595Y005154D01*
X022374Y005246D01*
X022226Y005394D01*
X021407Y005394D01*
X021320Y005431D01*
X021331Y002681D01*
X021405Y002608D01*
X021481Y002424D01*
X021481Y002226D01*
X021405Y002043D01*
X021265Y001903D01*
X021082Y001827D01*
X020884Y001827D01*
X020701Y001903D01*
X020561Y002043D01*
X020485Y002226D01*
X020485Y002424D01*
X020561Y002608D01*
X020631Y002678D01*
X020616Y006315D01*
X020463Y006468D01*
X020316Y006321D01*
X020332Y002417D01*
X020388Y002360D01*
X020461Y002184D01*
X020461Y001994D01*
X020388Y001818D01*
X020254Y001684D01*
X020078Y001611D01*
X019888Y001611D01*
X019712Y001684D01*
X019577Y001818D01*
X019504Y001994D01*
X019504Y002184D01*
X019577Y002360D01*
X019632Y002414D01*
X019616Y006315D01*
X019463Y006468D01*
X019313Y006318D01*
X019313Y002916D01*
X019385Y002844D01*
X019461Y002661D01*
X019461Y002462D01*
X019385Y002279D01*
X019245Y002139D01*
X019062Y002063D01*
X018864Y002063D01*
X018681Y002139D01*
X018541Y002279D01*
X018465Y002462D01*
X018465Y002661D01*
X018541Y002844D01*
X018613Y002916D01*
X018613Y006318D01*
X018463Y006468D01*
X018303Y006308D01*
X018291Y006303D01*
X018304Y002898D01*
X018378Y002824D01*
X018453Y002641D01*
X018453Y002443D01*
X018378Y002260D01*
X018237Y002120D01*
X018054Y002044D01*
X017856Y002044D01*
X017673Y002120D01*
X017533Y002260D01*
X017457Y002443D01*
X017457Y002641D01*
X017533Y002824D01*
X017604Y002895D01*
X017590Y006341D01*
X017454Y006477D01*
X017363Y006697D01*
X017363Y007536D01*
X017454Y007757D01*
X017623Y007925D01*
X017844Y008017D01*
X018082Y008017D01*
X018303Y007925D01*
X018463Y007765D01*
X018623Y007925D01*
X018844Y008017D01*
X019082Y008017D01*
X019303Y007925D01*
X019463Y007765D01*
X019623Y007925D01*
X019844Y008017D01*
X020082Y008017D01*
X020303Y007925D01*
X020463Y007765D01*
X020623Y007925D01*
X020844Y008017D01*
X021082Y008017D01*
X021119Y008002D01*
X021119Y010125D01*
X019280Y010125D01*
X019280Y010025D01*
X019207Y009850D01*
X019162Y009804D01*
X019162Y009012D01*
X019201Y008917D01*
X019201Y008726D01*
X019129Y008550D01*
X018994Y008416D01*
X018818Y008343D01*
X018628Y008343D01*
X018452Y008416D01*
X018317Y008550D01*
X018245Y008726D01*
X018245Y008917D01*
X018317Y009092D01*
X018442Y009217D01*
X018442Y009666D01*
X018385Y009642D01*
X018195Y009642D01*
X018019Y009715D01*
X017973Y009761D01*
X015175Y009761D01*
X015175Y006212D01*
X015122Y006084D01*
X015024Y005985D01*
X014895Y005932D01*
X012140Y005932D01*
X012085Y005876D01*
X011909Y005804D01*
X011718Y005804D01*
X011543Y005876D01*
X011408Y006011D01*
X011335Y006187D01*
X011335Y006377D01*
X011408Y006553D01*
X011543Y006688D01*
X011718Y006760D01*
X011909Y006760D01*
X012085Y006688D01*
X012140Y006632D01*
X014475Y006632D01*
X014475Y007851D01*
X014317Y007851D01*
X014176Y007909D01*
X008732Y007909D01*
X008730Y007907D01*
X008546Y007831D01*
X008348Y007831D01*
X008165Y007907D01*
X008025Y008047D01*
X007949Y008230D01*
X007949Y008422D01*
X007548Y008422D01*
X007548Y004934D01*
X007610Y004871D01*
X007686Y004688D01*
X007686Y004490D01*
X007610Y004307D01*
X007470Y004167D01*
X007287Y004091D01*
X007088Y004091D01*
X006950Y004148D01*
X006950Y003783D01*
X006460Y003783D01*
X006340Y003783D01*
X006340Y003663D01*
X005850Y003663D01*
X005850Y003290D01*
X005864Y003204D01*
X005890Y003122D01*
X005930Y003045D01*
X005981Y002975D01*
X006042Y002913D01*
X006112Y002863D01*
X006189Y002823D01*
X006271Y002797D01*
X006340Y002786D01*
X006340Y003663D01*
X006460Y003663D01*
X006460Y002786D01*
X006529Y002797D01*
X006611Y002823D01*
X006688Y002863D01*
X006758Y002913D01*
X006820Y002975D01*
X006871Y003045D01*
X006910Y003122D01*
X006937Y003204D01*
X006950Y003290D01*
X006950Y003663D01*
X006460Y003663D01*
X006460Y003783D01*
X006460Y004660D01*
X006529Y004649D01*
X006611Y004623D01*
X006688Y004583D01*
X006689Y004583D01*
X006689Y004688D01*
X006765Y004871D01*
X006828Y004934D01*
X006828Y008854D01*
X006882Y008986D01*
X006984Y009087D01*
X007116Y009142D01*
X009008Y009142D01*
X009071Y009204D01*
X009254Y009280D01*
X009452Y009280D01*
X009635Y009204D01*
X009775Y009064D01*
X009838Y008912D01*
X009838Y011039D01*
X007805Y011039D01*
X007636Y011109D01*
X007506Y011238D01*
X007436Y011407D01*
X007436Y011764D01*
X007432Y011762D01*
X006785Y011762D01*
X006603Y011838D01*
X006603Y011308D01*
X006771Y011308D01*
X006947Y011235D01*
X007081Y011100D01*
X007154Y010924D01*
X007154Y010802D01*
X007432Y010802D01*
X007623Y010723D01*
X007770Y010577D01*
X007849Y010385D01*
X007849Y010179D01*
X007770Y009987D01*
X007623Y009841D01*
X007432Y009762D01*
X006785Y009762D01*
X006603Y009838D01*
X006603Y008508D01*
X006648Y008463D01*
X006721Y008287D01*
X006721Y008096D01*
X006648Y007920D01*
X006514Y007786D01*
X006338Y007713D01*
X006148Y007713D01*
X005972Y007786D01*
X005837Y007920D01*
X005764Y008096D01*
X005764Y008287D01*
X005837Y008463D01*
X005883Y008508D01*
X005883Y012765D01*
X004937Y012765D01*
X004797Y012625D01*
X004957Y012464D01*
X005048Y012244D01*
X005048Y012005D01*
X004957Y011785D01*
X004788Y011616D01*
X004628Y011549D01*
X004689Y011518D01*
X004748Y011475D01*
X004799Y011424D01*
X004842Y011366D01*
X004874Y011301D01*
X004897Y011232D01*
X004908Y011165D01*
X004188Y011165D01*
X004188Y011085D01*
X004908Y011085D01*
X004897Y011017D01*
X004874Y010948D01*
X004842Y010883D01*
X004799Y010825D01*
X004748Y010774D01*
X004689Y010731D01*
X004628Y010700D01*
X004788Y010633D01*
X004957Y010464D01*
X005048Y010244D01*
X005048Y010005D01*
X004957Y009785D01*
X004797Y009625D01*
X004957Y009464D01*
X005048Y009244D01*
X005048Y009005D01*
X004957Y008785D01*
X004788Y008616D01*
X004568Y008525D01*
X003729Y008525D01*
X003508Y008616D01*
X003340Y008785D01*
X003248Y009005D01*
X003248Y009244D01*
X003340Y009464D01*
X003500Y009625D01*
X003360Y009765D01*
X003100Y009765D01*
X002968Y009819D01*
X002867Y009921D01*
X002812Y010053D01*
X002812Y013696D01*
X002867Y013828D01*
X002968Y013930D01*
X003100Y013985D01*
X003257Y013985D01*
X003248Y014005D01*
X003248Y014244D01*
X003340Y014464D01*
X003508Y014633D01*
X003729Y014725D01*
X004568Y014725D01*
X004788Y014633D01*
X004957Y014464D01*
X005004Y014351D01*
X005035Y014383D01*
X005167Y014437D01*
X006683Y014437D01*
X006639Y014544D01*
X006639Y015382D01*
X006730Y015603D01*
X006736Y015609D01*
X006720Y019075D01*
X006720Y019077D01*
X006720Y019175D01*
X006719Y019272D01*
X006719Y019273D01*
X006719Y019371D01*
X006719Y019470D01*
X006719Y019471D01*
X006719Y019472D01*
X006735Y019510D01*
X006735Y019571D01*
X006726Y019579D01*
X006660Y019740D01*
X006628Y019678D01*
X006586Y019619D01*
X006534Y019568D01*
X006476Y019526D01*
X006411Y019493D01*
X006343Y019470D01*
X006275Y019460D01*
X006275Y020179D01*
X006195Y020179D01*
X006195Y019460D01*
X006127Y019470D01*
X006058Y019493D01*
X001232Y019493D01*
X001232Y019611D02*
X005892Y019611D01*
X005884Y019619D02*
X005935Y019568D01*
X005994Y019526D01*
X006058Y019493D01*
X006195Y019493D02*
X006275Y019493D01*
X006275Y019611D02*
X006195Y019611D01*
X006195Y019730D02*
X006275Y019730D01*
X006275Y019848D02*
X006195Y019848D01*
X006195Y019967D02*
X006275Y019967D01*
X006275Y020085D02*
X006195Y020085D01*
X006195Y020179D02*
X005775Y020179D01*
X005775Y019883D01*
X005786Y019811D01*
X005809Y019742D01*
X005841Y019678D01*
X005884Y019619D01*
X005815Y019730D02*
X001232Y019730D01*
X001232Y019848D02*
X005780Y019848D01*
X005775Y019967D02*
X001232Y019967D01*
X001232Y020085D02*
X005775Y020085D01*
X005775Y020259D02*
X006195Y020259D01*
X006195Y020978D01*
X006127Y020968D01*
X006058Y020945D01*
X005994Y020912D01*
X005935Y020870D01*
X005884Y020819D01*
X005841Y020760D01*
X005809Y020696D01*
X005786Y020627D01*
X005775Y020555D01*
X005775Y020259D01*
X005775Y020322D02*
X001232Y020322D01*
X001232Y020204D02*
X006195Y020204D01*
X006195Y020179D02*
X006195Y020259D01*
X006275Y020259D01*
X006275Y020978D01*
X006343Y020968D01*
X006411Y020945D01*
X006476Y020912D01*
X006534Y020870D01*
X006586Y020819D01*
X006628Y020760D01*
X006660Y020698D01*
X006726Y020859D01*
X006895Y021028D01*
X007115Y021119D01*
X007354Y021119D01*
X007575Y021028D01*
X007743Y020859D01*
X007835Y020638D01*
X007835Y019873D01*
X022114Y019873D01*
X022114Y019984D01*
X022206Y020205D01*
X022366Y020365D01*
X022206Y020525D01*
X022114Y020745D01*
X022114Y020984D01*
X022206Y021205D01*
X022355Y021354D01*
X001231Y021354D01*
X001231Y021270D02*
X022271Y021270D01*
X022184Y021152D02*
X001231Y021152D01*
X001231Y021033D02*
X006909Y021033D01*
X006782Y020915D02*
X006471Y020915D01*
X006602Y020796D02*
X006700Y020796D01*
X006275Y020796D02*
X006195Y020796D01*
X006195Y020678D02*
X006275Y020678D01*
X006275Y020559D02*
X006195Y020559D01*
X006195Y020441D02*
X006275Y020441D01*
X006275Y020322D02*
X006195Y020322D01*
X005775Y020441D02*
X001232Y020441D01*
X001231Y020559D02*
X005775Y020559D01*
X005803Y020678D02*
X001231Y020678D01*
X001231Y020796D02*
X005868Y020796D01*
X005998Y020915D02*
X001231Y020915D01*
X001233Y019374D02*
X003233Y019374D01*
X003241Y019380D02*
X003182Y019338D01*
X003131Y019286D01*
X003089Y019228D01*
X003056Y019163D01*
X003033Y019094D01*
X003023Y019027D01*
X003742Y019027D01*
X003742Y019447D01*
X003446Y019447D01*
X003374Y019435D01*
X003305Y019413D01*
X003241Y019380D01*
X003109Y019256D02*
X001233Y019256D01*
X001233Y019137D02*
X003047Y019137D01*
X003023Y018947D02*
X003033Y018879D01*
X003056Y018810D01*
X003089Y018746D01*
X003131Y018687D01*
X003182Y018636D01*
X003241Y018593D01*
X003303Y018562D01*
X003142Y018495D01*
X002973Y018327D01*
X002882Y018106D01*
X002882Y017867D01*
X002973Y017647D01*
X003142Y017478D01*
X003363Y017387D01*
X004201Y017387D01*
X004422Y017478D01*
X004491Y017547D01*
X004559Y017478D01*
X004422Y017478D01*
X004559Y017478D02*
X004780Y017387D01*
X005619Y017387D01*
X005839Y017478D01*
X006008Y017647D01*
X006099Y017867D01*
X006099Y018106D01*
X006008Y018327D01*
X005839Y018495D01*
X005679Y018562D01*
X005740Y018593D01*
X005799Y018636D01*
X005850Y018687D01*
X005893Y018746D01*
X005926Y018810D01*
X005948Y018879D01*
X005959Y018947D01*
X005239Y018947D01*
X005239Y019027D01*
X005159Y019027D01*
X005159Y018947D01*
X004440Y018947D01*
X003822Y018947D01*
X003822Y019027D01*
X003742Y019027D01*
X003742Y018947D01*
X003023Y018947D01*
X003030Y018900D02*
X001233Y018900D01*
X001233Y018782D02*
X003070Y018782D01*
X003155Y018663D02*
X001233Y018663D01*
X001233Y018545D02*
X003262Y018545D01*
X003073Y018426D02*
X001233Y018426D01*
X001234Y018308D02*
X002966Y018308D01*
X002917Y018189D02*
X001234Y018189D01*
X001234Y018071D02*
X002882Y018071D01*
X002882Y017952D02*
X001234Y017952D01*
X001234Y017834D02*
X002896Y017834D01*
X002945Y017715D02*
X001234Y017715D01*
X001234Y017597D02*
X003023Y017597D01*
X003142Y017478D02*
X001234Y017478D01*
X001234Y017360D02*
X006728Y017360D01*
X006728Y017478D02*
X005840Y017478D01*
X005958Y017597D02*
X006727Y017597D01*
X006726Y017715D02*
X006036Y017715D01*
X006085Y017834D02*
X006726Y017834D01*
X006725Y017952D02*
X006099Y017952D01*
X006099Y018071D02*
X006725Y018071D01*
X006724Y018189D02*
X006065Y018189D01*
X006016Y018308D02*
X006724Y018308D01*
X006723Y018426D02*
X005908Y018426D01*
X005720Y018545D02*
X006723Y018545D01*
X006722Y018663D02*
X005827Y018663D01*
X005911Y018782D02*
X006722Y018782D01*
X006721Y018900D02*
X005951Y018900D01*
X005959Y019027D02*
X005239Y019027D01*
X005239Y019447D01*
X005536Y019447D01*
X005607Y019435D01*
X005676Y019413D01*
X005740Y019380D01*
X005799Y019338D01*
X005850Y019286D01*
X005893Y019228D01*
X005926Y019163D01*
X005948Y019094D01*
X005959Y019027D01*
X005934Y019137D02*
X006720Y019137D01*
X006721Y019019D02*
X005239Y019019D01*
X005159Y019019D02*
X003822Y019019D01*
X003822Y019027D02*
X005159Y019027D01*
X005159Y019447D01*
X004863Y019447D01*
X004792Y019435D01*
X004723Y019413D01*
X004658Y019380D01*
X004600Y019338D01*
X004549Y019286D01*
X004506Y019228D01*
X004491Y019198D01*
X004475Y019228D01*
X004433Y019286D01*
X004382Y019338D01*
X004323Y019380D01*
X004259Y019413D01*
X004190Y019435D01*
X004118Y019447D01*
X003822Y019447D01*
X003822Y019027D01*
X003742Y019019D02*
X001233Y019019D01*
X003742Y019137D02*
X003822Y019137D01*
X003822Y019256D02*
X003742Y019256D01*
X003742Y019374D02*
X003822Y019374D01*
X004331Y019374D02*
X004650Y019374D01*
X004526Y019256D02*
X004455Y019256D01*
X005159Y019256D02*
X005239Y019256D01*
X005239Y019374D02*
X005159Y019374D01*
X005748Y019374D02*
X006719Y019374D01*
X006720Y019256D02*
X005872Y019256D01*
X006412Y019493D02*
X006728Y019493D01*
X006713Y019611D02*
X006578Y019611D01*
X006655Y019730D02*
X006664Y019730D01*
X007835Y019967D02*
X022114Y019967D01*
X022156Y020085D02*
X007835Y020085D01*
X007835Y020204D02*
X022205Y020204D01*
X022323Y020322D02*
X007835Y020322D01*
X007835Y020441D02*
X022290Y020441D01*
X022191Y020559D02*
X007835Y020559D01*
X007818Y020678D02*
X022142Y020678D01*
X022114Y020796D02*
X007769Y020796D01*
X007687Y020915D02*
X022114Y020915D01*
X022135Y021033D02*
X007561Y021033D01*
X006275Y020915D02*
X006195Y020915D01*
X005239Y019137D02*
X005159Y019137D01*
X007721Y018873D02*
X022114Y018873D01*
X022114Y018745D01*
X022206Y018525D01*
X022366Y018365D01*
X022206Y018205D01*
X022114Y017984D01*
X022114Y017745D01*
X022206Y017525D01*
X022366Y017365D01*
X022206Y017205D01*
X022114Y016984D01*
X022114Y016745D01*
X022206Y016525D01*
X022366Y016365D01*
X022206Y016205D01*
X022114Y015984D01*
X022114Y015745D01*
X022206Y015525D01*
X022366Y015365D01*
X022206Y015205D01*
X022114Y014984D01*
X022114Y014745D01*
X022206Y014525D01*
X022366Y014365D01*
X022206Y014205D01*
X022114Y013984D01*
X022114Y013745D01*
X022206Y013525D01*
X022374Y013356D01*
X022487Y013310D01*
X022374Y013263D01*
X022206Y013094D01*
X022114Y012874D01*
X022114Y012635D01*
X022130Y012597D01*
X021113Y012597D01*
X021096Y012637D01*
X020901Y012832D01*
X020648Y012937D01*
X019593Y012937D01*
X019340Y012832D01*
X019146Y012637D01*
X019137Y012616D01*
X016282Y012616D01*
X016210Y012689D01*
X016027Y012764D01*
X015829Y012764D01*
X015646Y012689D01*
X015505Y012548D01*
X015430Y012365D01*
X015430Y012167D01*
X015505Y011984D01*
X015646Y011844D01*
X015829Y011768D01*
X015858Y011768D01*
X015804Y011637D01*
X015804Y011439D01*
X015813Y011416D01*
X013687Y011416D01*
X013774Y011503D01*
X013847Y011679D01*
X013847Y011869D01*
X013774Y012045D01*
X013689Y012130D01*
X013689Y012909D01*
X013634Y013041D01*
X013533Y013142D01*
X013415Y013191D01*
X013482Y013219D01*
X013617Y013354D01*
X013690Y013529D01*
X013690Y013720D01*
X013617Y013896D01*
X013571Y013941D01*
X013571Y014149D01*
X013516Y014281D01*
X013415Y014383D01*
X013283Y014437D01*
X008795Y014437D01*
X008839Y014544D01*
X008839Y015382D01*
X008747Y015603D01*
X008579Y015772D01*
X008358Y015863D01*
X008119Y015863D01*
X007899Y015772D01*
X007739Y015612D01*
X007736Y015615D01*
X007721Y018873D01*
X007722Y018782D02*
X022114Y018782D01*
X022148Y018663D02*
X007722Y018663D01*
X007723Y018545D02*
X022197Y018545D01*
X022304Y018426D02*
X007723Y018426D01*
X007724Y018308D02*
X022309Y018308D01*
X022199Y018189D02*
X007724Y018189D01*
X007725Y018071D02*
X022150Y018071D01*
X022114Y017952D02*
X007725Y017952D01*
X007726Y017834D02*
X022114Y017834D01*
X022127Y017715D02*
X007726Y017715D01*
X007727Y017597D02*
X022176Y017597D01*
X022252Y017478D02*
X007728Y017478D01*
X007728Y017360D02*
X022361Y017360D01*
X022242Y017241D02*
X007729Y017241D01*
X007729Y017123D02*
X022172Y017123D01*
X022123Y017004D02*
X007730Y017004D01*
X007730Y016886D02*
X022114Y016886D01*
X022114Y016767D02*
X007731Y016767D01*
X007731Y016649D02*
X022154Y016649D01*
X022203Y016530D02*
X007732Y016530D01*
X007732Y016412D02*
X022319Y016412D01*
X022294Y016293D02*
X007733Y016293D01*
X007733Y016175D02*
X022193Y016175D01*
X022144Y016056D02*
X007734Y016056D01*
X007734Y015938D02*
X022114Y015938D01*
X022114Y015819D02*
X008464Y015819D01*
X008650Y015701D02*
X022133Y015701D01*
X022182Y015582D02*
X008756Y015582D01*
X008805Y015464D02*
X015132Y015464D01*
X015115Y015457D02*
X014947Y015288D01*
X014880Y015128D01*
X014849Y015189D01*
X014806Y015248D01*
X014755Y015299D01*
X014696Y015342D01*
X014632Y015374D01*
X014563Y015397D01*
X014495Y015408D01*
X014495Y014688D01*
X014415Y014688D01*
X014415Y014608D01*
X013995Y014608D01*
X013995Y014312D01*
X014007Y014240D01*
X014029Y014172D01*
X014062Y014107D01*
X014104Y014049D01*
X014156Y013997D01*
X014214Y013955D01*
X014279Y013922D01*
X014348Y013900D01*
X014415Y013889D01*
X014415Y014608D01*
X014495Y014608D01*
X014495Y013889D01*
X014563Y013900D01*
X014632Y013922D01*
X014696Y013955D01*
X014755Y013997D01*
X014806Y014049D01*
X014849Y014107D01*
X014880Y014169D01*
X014947Y014008D01*
X015115Y013840D01*
X015336Y013748D01*
X015575Y013748D01*
X015795Y013840D01*
X015955Y014000D01*
X016115Y013840D01*
X016336Y013748D01*
X016575Y013748D01*
X016795Y013840D01*
X016964Y014008D01*
X017055Y014229D01*
X017055Y015068D01*
X016964Y015288D01*
X016795Y015457D01*
X016575Y015548D01*
X016336Y015548D01*
X016115Y015457D01*
X015955Y015297D01*
X015795Y015457D01*
X015575Y015548D01*
X015336Y015548D01*
X015115Y015457D01*
X015004Y015345D02*
X014689Y015345D01*
X014821Y015227D02*
X014921Y015227D01*
X014495Y015227D02*
X014415Y015227D01*
X014415Y015345D02*
X014495Y015345D01*
X014415Y015408D02*
X014348Y015397D01*
X014279Y015374D01*
X014214Y015342D01*
X014156Y015299D01*
X014104Y015248D01*
X014062Y015189D01*
X014029Y015125D01*
X014007Y015056D01*
X013995Y014984D01*
X013995Y014688D01*
X014415Y014688D01*
X014415Y015408D01*
X014222Y015345D02*
X008839Y015345D01*
X008839Y015227D02*
X014089Y015227D01*
X014024Y015108D02*
X008839Y015108D01*
X008839Y014990D02*
X013996Y014990D01*
X013995Y014871D02*
X008839Y014871D01*
X008839Y014753D02*
X013995Y014753D01*
X013995Y014516D02*
X008827Y014516D01*
X008839Y014634D02*
X014415Y014634D01*
X014415Y014516D02*
X014495Y014516D01*
X014495Y014397D02*
X014415Y014397D01*
X014415Y014279D02*
X014495Y014279D01*
X014495Y014160D02*
X014415Y014160D01*
X014415Y014042D02*
X014495Y014042D01*
X014495Y013923D02*
X014415Y013923D01*
X014276Y013923D02*
X013589Y013923D01*
X013571Y014042D02*
X014111Y014042D01*
X014035Y014160D02*
X013566Y014160D01*
X013517Y014279D02*
X014001Y014279D01*
X013995Y014397D02*
X013379Y014397D01*
X013211Y014077D02*
X005239Y014077D01*
X005239Y013625D01*
X003172Y013625D01*
X003172Y010125D01*
X004148Y010125D01*
X004997Y010368D02*
X005883Y010368D01*
X005883Y010250D02*
X005046Y010250D01*
X005048Y010131D02*
X005883Y010131D01*
X005883Y010013D02*
X005048Y010013D01*
X005002Y009894D02*
X005883Y009894D01*
X005883Y009776D02*
X004948Y009776D01*
X004830Y009657D02*
X005883Y009657D01*
X005883Y009539D02*
X004882Y009539D01*
X004975Y009420D02*
X005883Y009420D01*
X005883Y009302D02*
X005024Y009302D01*
X005048Y009183D02*
X005883Y009183D01*
X005883Y009065D02*
X005048Y009065D01*
X005024Y008946D02*
X005883Y008946D01*
X005883Y008828D02*
X004975Y008828D01*
X004882Y008709D02*
X005883Y008709D01*
X005883Y008591D02*
X004728Y008591D01*
X005792Y008354D02*
X001243Y008354D01*
X001243Y008472D02*
X005847Y008472D01*
X005764Y008235D02*
X001243Y008235D01*
X001243Y008117D02*
X005764Y008117D01*
X005805Y007998D02*
X001243Y007998D01*
X001243Y007880D02*
X005878Y007880D01*
X006031Y007761D02*
X001243Y007761D01*
X001244Y007643D02*
X006828Y007643D01*
X006828Y007761D02*
X006454Y007761D01*
X006608Y007880D02*
X006828Y007880D01*
X006828Y007998D02*
X006681Y007998D01*
X006721Y008117D02*
X006828Y008117D01*
X006828Y008235D02*
X006721Y008235D01*
X006693Y008354D02*
X006828Y008354D01*
X006828Y008472D02*
X006638Y008472D01*
X006603Y008591D02*
X006828Y008591D01*
X006828Y008709D02*
X006603Y008709D01*
X006603Y008828D02*
X006828Y008828D01*
X006866Y008946D02*
X006603Y008946D01*
X006603Y009065D02*
X006961Y009065D01*
X007188Y008782D02*
X007188Y004589D01*
X007640Y004799D02*
X009048Y004799D01*
X009048Y004917D02*
X007564Y004917D01*
X007548Y005036D02*
X009048Y005036D01*
X009048Y005154D02*
X007548Y005154D01*
X007548Y005273D02*
X009089Y005273D01*
X009048Y005174D02*
X009140Y005394D01*
X009308Y005563D01*
X009529Y005654D01*
X009768Y005654D01*
X009988Y005563D01*
X010148Y005403D01*
X010308Y005563D01*
X010529Y005654D01*
X010768Y005654D01*
X010988Y005563D01*
X011148Y005403D01*
X011308Y005563D01*
X011529Y005654D01*
X011768Y005654D01*
X011988Y005563D01*
X012148Y005403D01*
X012308Y005563D01*
X012529Y005654D01*
X012768Y005654D01*
X012988Y005563D01*
X013157Y005394D01*
X013248Y005174D01*
X013248Y004335D01*
X013157Y004115D01*
X012988Y003946D01*
X012768Y003854D01*
X012529Y003854D01*
X012308Y003946D01*
X012148Y004106D01*
X011988Y003946D01*
X011768Y003854D01*
X011529Y003854D01*
X011308Y003946D01*
X011148Y004106D01*
X010988Y003946D01*
X010768Y003854D01*
X010529Y003854D01*
X010308Y003946D01*
X010148Y004106D01*
X009988Y003946D01*
X009768Y003854D01*
X009529Y003854D01*
X009308Y003946D01*
X009140Y004115D01*
X009048Y004335D01*
X009048Y005174D01*
X009138Y005391D02*
X007548Y005391D01*
X007548Y005510D02*
X009255Y005510D01*
X009466Y005628D02*
X007548Y005628D01*
X007548Y005747D02*
X017593Y005747D01*
X017592Y005865D02*
X012058Y005865D01*
X011831Y005628D02*
X012466Y005628D01*
X012255Y005510D02*
X012041Y005510D01*
X012831Y005628D02*
X017593Y005628D01*
X017594Y005510D02*
X013041Y005510D01*
X013158Y005391D02*
X017594Y005391D01*
X017595Y005273D02*
X013207Y005273D01*
X013248Y005154D02*
X017595Y005154D01*
X017596Y005036D02*
X013248Y005036D01*
X013248Y004917D02*
X017596Y004917D01*
X017596Y004799D02*
X013248Y004799D01*
X013248Y004680D02*
X017597Y004680D01*
X017597Y004562D02*
X013248Y004562D01*
X013248Y004443D02*
X017598Y004443D01*
X017598Y004325D02*
X013244Y004325D01*
X013195Y004206D02*
X017599Y004206D01*
X017599Y004088D02*
X013130Y004088D01*
X013012Y003969D02*
X017600Y003969D01*
X017600Y003851D02*
X006950Y003851D01*
X006950Y003969D02*
X009285Y003969D01*
X009166Y004088D02*
X006950Y004088D01*
X006460Y004088D02*
X006340Y004088D01*
X006340Y004206D02*
X006460Y004206D01*
X006460Y004325D02*
X006340Y004325D01*
X006340Y004443D02*
X006460Y004443D01*
X006460Y004562D02*
X006340Y004562D01*
X006340Y004660D02*
X006271Y004649D01*
X006189Y004623D01*
X006112Y004583D01*
X006042Y004533D01*
X005981Y004471D01*
X005930Y004401D01*
X005890Y004324D01*
X005864Y004242D01*
X005850Y004156D01*
X005850Y003783D01*
X006340Y003783D01*
X006340Y004660D01*
X006082Y004562D02*
X004572Y004562D01*
X004543Y004583D02*
X004466Y004623D01*
X004383Y004649D01*
X004314Y004660D01*
X004314Y003783D01*
X004194Y003783D01*
X004194Y003663D01*
X003704Y003663D01*
X003704Y003290D01*
X003718Y003204D01*
X003745Y003122D01*
X003784Y003045D01*
X003835Y002975D01*
X003896Y002913D01*
X003966Y002863D01*
X004043Y002823D01*
X004126Y002797D01*
X004194Y002786D01*
X004194Y003663D01*
X004314Y003663D01*
X004314Y002786D01*
X004383Y002797D01*
X004466Y002823D01*
X004543Y002863D01*
X004613Y002913D01*
X004674Y002975D01*
X004725Y003045D01*
X004764Y003122D01*
X004791Y003204D01*
X004804Y003290D01*
X004804Y003663D01*
X004314Y003663D01*
X004314Y003783D01*
X004804Y003783D01*
X004804Y004156D01*
X004791Y004242D01*
X004764Y004324D01*
X004725Y004401D01*
X004674Y004471D01*
X004613Y004533D01*
X004543Y004583D01*
X004694Y004443D02*
X005960Y004443D01*
X005891Y004325D02*
X004764Y004325D01*
X004797Y004206D02*
X005858Y004206D01*
X005850Y004088D02*
X004804Y004088D01*
X004804Y003969D02*
X005850Y003969D01*
X005850Y003851D02*
X004804Y003851D01*
X004804Y003614D02*
X005850Y003614D01*
X005850Y003495D02*
X004804Y003495D01*
X004804Y003377D02*
X005850Y003377D01*
X005855Y003258D02*
X004800Y003258D01*
X004770Y003140D02*
X005885Y003140D01*
X005947Y003021D02*
X004708Y003021D01*
X004598Y002903D02*
X006056Y002903D01*
X006340Y002903D02*
X006460Y002903D01*
X006460Y003021D02*
X006340Y003021D01*
X006340Y003140D02*
X006460Y003140D01*
X006460Y003258D02*
X006340Y003258D01*
X006340Y003377D02*
X006460Y003377D01*
X006460Y003495D02*
X006340Y003495D01*
X006340Y003614D02*
X006460Y003614D01*
X006460Y003732D02*
X017601Y003732D01*
X017601Y003614D02*
X006950Y003614D01*
X006950Y003495D02*
X017602Y003495D01*
X017602Y003377D02*
X006950Y003377D01*
X006945Y003258D02*
X017602Y003258D01*
X017603Y003140D02*
X006916Y003140D01*
X006854Y003021D02*
X017603Y003021D01*
X017604Y002903D02*
X006744Y002903D01*
X006340Y003732D02*
X004314Y003732D01*
X004314Y003614D02*
X004194Y003614D01*
X004194Y003732D02*
X002169Y003732D01*
X002169Y003783D02*
X002659Y003783D01*
X002659Y004156D01*
X002645Y004242D01*
X002619Y004324D01*
X002579Y004401D01*
X002528Y004471D01*
X002467Y004533D01*
X002397Y004583D01*
X002320Y004623D01*
X002238Y004649D01*
X002169Y004660D01*
X002169Y003783D01*
X002169Y003663D01*
X002659Y003663D01*
X002659Y003290D01*
X002645Y003204D01*
X002619Y003122D01*
X002579Y003045D01*
X002528Y002975D01*
X002467Y002913D01*
X002397Y002863D01*
X002320Y002823D01*
X002238Y002797D01*
X002169Y002786D01*
X002169Y003663D01*
X002049Y003663D01*
X002049Y002786D01*
X001980Y002797D01*
X001898Y002823D01*
X001821Y002863D01*
X001751Y002913D01*
X001689Y002975D01*
X001638Y003045D01*
X001599Y003122D01*
X001572Y003204D01*
X001559Y003290D01*
X001559Y003663D01*
X002049Y003663D01*
X002049Y003783D01*
X002049Y004660D01*
X001980Y004649D01*
X001898Y004623D01*
X001821Y004583D01*
X001751Y004533D01*
X001689Y004471D01*
X001638Y004401D01*
X001599Y004324D01*
X001572Y004242D01*
X001559Y004156D01*
X001559Y003783D01*
X002049Y003783D01*
X002169Y003783D01*
X002169Y003851D02*
X002049Y003851D01*
X002049Y003969D02*
X002169Y003969D01*
X002169Y004088D02*
X002049Y004088D01*
X002049Y004206D02*
X002169Y004206D01*
X002169Y004325D02*
X002049Y004325D01*
X002049Y004443D02*
X002169Y004443D01*
X002169Y004562D02*
X002049Y004562D01*
X001791Y004562D02*
X001246Y004562D01*
X001246Y004680D02*
X006689Y004680D01*
X006735Y004799D02*
X001246Y004799D01*
X001246Y004917D02*
X006811Y004917D01*
X006828Y005036D02*
X001246Y005036D01*
X001246Y005154D02*
X006828Y005154D01*
X006828Y005273D02*
X001246Y005273D01*
X001246Y005391D02*
X006828Y005391D01*
X006828Y005510D02*
X001246Y005510D01*
X001245Y005628D02*
X006828Y005628D01*
X006828Y005747D02*
X001245Y005747D01*
X001245Y005865D02*
X006828Y005865D01*
X006828Y005984D02*
X001245Y005984D01*
X001245Y006102D02*
X006828Y006102D01*
X006828Y006221D02*
X001245Y006221D01*
X001245Y006339D02*
X006828Y006339D01*
X006828Y006458D02*
X001245Y006458D01*
X001245Y006576D02*
X006828Y006576D01*
X006828Y006695D02*
X001244Y006695D01*
X001244Y006813D02*
X006828Y006813D01*
X006828Y006932D02*
X001244Y006932D01*
X001244Y007050D02*
X006828Y007050D01*
X006828Y007169D02*
X001244Y007169D01*
X001244Y007287D02*
X006828Y007287D01*
X006828Y007406D02*
X001244Y007406D01*
X001244Y007524D02*
X006828Y007524D01*
X007548Y007524D02*
X014475Y007524D01*
X014475Y007406D02*
X007548Y007406D01*
X007548Y007287D02*
X014475Y007287D01*
X014475Y007169D02*
X007548Y007169D01*
X007548Y007050D02*
X014475Y007050D01*
X014475Y006932D02*
X007548Y006932D01*
X007548Y006813D02*
X014475Y006813D01*
X014475Y006695D02*
X012067Y006695D01*
X011560Y006695D02*
X007548Y006695D01*
X007548Y006576D02*
X011431Y006576D01*
X011369Y006458D02*
X007548Y006458D01*
X007548Y006339D02*
X011335Y006339D01*
X011335Y006221D02*
X007548Y006221D01*
X007548Y006102D02*
X011370Y006102D01*
X011435Y005984D02*
X007548Y005984D01*
X007548Y005865D02*
X011569Y005865D01*
X011466Y005628D02*
X010831Y005628D01*
X011041Y005510D02*
X011255Y005510D01*
X010466Y005628D02*
X009831Y005628D01*
X010041Y005510D02*
X010255Y005510D01*
X009048Y004680D02*
X007686Y004680D01*
X007686Y004562D02*
X009048Y004562D01*
X009048Y004443D02*
X007666Y004443D01*
X007617Y004325D02*
X009052Y004325D01*
X009102Y004206D02*
X007509Y004206D01*
X006460Y003969D02*
X006340Y003969D01*
X006340Y003851D02*
X006460Y003851D01*
X004314Y003851D02*
X004194Y003851D01*
X004194Y003783D02*
X004194Y004660D01*
X004126Y004649D01*
X004043Y004623D01*
X003966Y004583D01*
X003896Y004533D01*
X003835Y004471D01*
X003784Y004401D01*
X003745Y004324D01*
X003718Y004242D01*
X003704Y004156D01*
X003704Y003783D01*
X004194Y003783D01*
X004194Y003969D02*
X004314Y003969D01*
X004314Y004088D02*
X004194Y004088D01*
X004194Y004206D02*
X004314Y004206D01*
X004314Y004325D02*
X004194Y004325D01*
X004194Y004443D02*
X004314Y004443D01*
X004314Y004562D02*
X004194Y004562D01*
X003937Y004562D02*
X002427Y004562D01*
X002549Y004443D02*
X003815Y004443D01*
X003745Y004325D02*
X002618Y004325D01*
X002651Y004206D02*
X003712Y004206D01*
X003704Y004088D02*
X002659Y004088D01*
X002659Y003969D02*
X003704Y003969D01*
X003704Y003851D02*
X002659Y003851D01*
X002659Y003614D02*
X003704Y003614D01*
X003704Y003495D02*
X002659Y003495D01*
X002659Y003377D02*
X003704Y003377D01*
X003709Y003258D02*
X002654Y003258D01*
X002624Y003140D02*
X003739Y003140D01*
X003801Y003021D02*
X002562Y003021D01*
X002452Y002903D02*
X003911Y002903D01*
X004194Y002903D02*
X004314Y002903D01*
X004314Y003021D02*
X004194Y003021D01*
X004194Y003140D02*
X004314Y003140D01*
X004314Y003258D02*
X004194Y003258D01*
X004194Y003377D02*
X004314Y003377D01*
X004314Y003495D02*
X004194Y003495D01*
X002169Y003495D02*
X002049Y003495D01*
X002049Y003377D02*
X002169Y003377D01*
X002169Y003258D02*
X002049Y003258D01*
X002049Y003140D02*
X002169Y003140D01*
X002169Y003021D02*
X002049Y003021D01*
X002049Y002903D02*
X002169Y002903D01*
X001765Y002903D02*
X001248Y002903D01*
X001248Y003021D02*
X001655Y003021D01*
X001593Y003140D02*
X001248Y003140D01*
X001248Y003258D02*
X001564Y003258D01*
X001559Y003377D02*
X001248Y003377D01*
X001247Y003495D02*
X001559Y003495D01*
X001559Y003614D02*
X001247Y003614D01*
X001247Y003732D02*
X002049Y003732D01*
X002049Y003614D02*
X002169Y003614D01*
X001559Y003851D02*
X001247Y003851D01*
X001247Y003969D02*
X001559Y003969D01*
X001559Y004088D02*
X001247Y004088D01*
X001247Y004206D02*
X001567Y004206D01*
X001599Y004325D02*
X001247Y004325D01*
X001247Y004443D02*
X001669Y004443D01*
X001248Y002784D02*
X017517Y002784D01*
X017467Y002666D02*
X001248Y002666D01*
X001248Y002547D02*
X017457Y002547D01*
X017463Y002429D02*
X001248Y002429D01*
X001249Y002310D02*
X017512Y002310D01*
X017601Y002192D02*
X001249Y002192D01*
X001249Y002073D02*
X017785Y002073D01*
X018126Y002073D02*
X018840Y002073D01*
X018628Y002192D02*
X018310Y002192D01*
X018399Y002310D02*
X018528Y002310D01*
X018479Y002429D02*
X018448Y002429D01*
X018453Y002547D02*
X018465Y002547D01*
X018467Y002666D02*
X018443Y002666D01*
X018394Y002784D02*
X018516Y002784D01*
X018600Y002903D02*
X018304Y002903D01*
X018303Y003021D02*
X018613Y003021D01*
X018613Y003140D02*
X018303Y003140D01*
X018302Y003258D02*
X018613Y003258D01*
X018613Y003377D02*
X018302Y003377D01*
X018302Y003495D02*
X018613Y003495D01*
X018613Y003614D02*
X018301Y003614D01*
X018301Y003732D02*
X018613Y003732D01*
X018613Y003851D02*
X018300Y003851D01*
X018300Y003969D02*
X018613Y003969D01*
X018613Y004088D02*
X018299Y004088D01*
X018299Y004206D02*
X018613Y004206D01*
X018613Y004325D02*
X018298Y004325D01*
X018298Y004443D02*
X018613Y004443D01*
X018613Y004562D02*
X018297Y004562D01*
X018297Y004680D02*
X018613Y004680D01*
X018613Y004799D02*
X018296Y004799D01*
X018296Y004917D02*
X018613Y004917D01*
X018613Y005036D02*
X018296Y005036D01*
X018295Y005154D02*
X018613Y005154D01*
X018613Y005273D02*
X018295Y005273D01*
X018294Y005391D02*
X018613Y005391D01*
X018613Y005510D02*
X018294Y005510D01*
X018293Y005628D02*
X018613Y005628D01*
X018613Y005747D02*
X018293Y005747D01*
X018292Y005865D02*
X018613Y005865D01*
X018613Y005984D02*
X018292Y005984D01*
X018291Y006102D02*
X018613Y006102D01*
X018613Y006221D02*
X018291Y006221D01*
X018334Y006339D02*
X018592Y006339D01*
X018473Y006458D02*
X018453Y006458D01*
X017590Y006339D02*
X015175Y006339D01*
X015175Y006221D02*
X017591Y006221D01*
X017591Y006102D02*
X015130Y006102D01*
X015020Y005984D02*
X017592Y005984D01*
X017473Y006458D02*
X015175Y006458D01*
X015175Y006576D02*
X017413Y006576D01*
X017364Y006695D02*
X015175Y006695D01*
X015175Y006813D02*
X017363Y006813D01*
X017363Y006932D02*
X015175Y006932D01*
X015175Y007050D02*
X017363Y007050D01*
X017363Y007169D02*
X015175Y007169D01*
X015175Y007287D02*
X017363Y007287D01*
X017363Y007406D02*
X015175Y007406D01*
X015175Y007524D02*
X017363Y007524D01*
X017407Y007643D02*
X015175Y007643D01*
X015175Y007761D02*
X017459Y007761D01*
X017578Y007880D02*
X015175Y007880D01*
X015175Y007998D02*
X017800Y007998D01*
X018127Y007998D02*
X018800Y007998D01*
X018578Y007880D02*
X018349Y007880D01*
X018602Y008354D02*
X015175Y008354D01*
X015175Y008472D02*
X018395Y008472D01*
X018301Y008591D02*
X015175Y008591D01*
X015175Y008709D02*
X018252Y008709D01*
X018245Y008828D02*
X015175Y008828D01*
X015175Y008946D02*
X018257Y008946D01*
X018306Y009065D02*
X015175Y009065D01*
X015175Y009183D02*
X018408Y009183D01*
X018442Y009302D02*
X015175Y009302D01*
X015175Y009420D02*
X018442Y009420D01*
X018442Y009539D02*
X015175Y009539D01*
X015175Y009657D02*
X018158Y009657D01*
X018422Y009657D02*
X018442Y009657D01*
X018290Y010121D02*
X014825Y010121D01*
X015805Y011435D02*
X013706Y011435D01*
X013795Y011553D02*
X015804Y011553D01*
X015818Y011672D02*
X013844Y011672D01*
X013847Y011790D02*
X015775Y011790D01*
X015581Y011909D02*
X013831Y011909D01*
X013782Y012027D02*
X015488Y012027D01*
X015438Y012146D02*
X013689Y012146D01*
X013689Y012264D02*
X015430Y012264D01*
X015437Y012383D02*
X013689Y012383D01*
X013689Y012501D02*
X015486Y012501D01*
X015577Y012620D02*
X013689Y012620D01*
X013689Y012738D02*
X015766Y012738D01*
X016090Y012738D02*
X019247Y012738D01*
X019138Y012620D02*
X016279Y012620D01*
X016199Y013805D02*
X015711Y013805D01*
X015879Y013923D02*
X016032Y013923D01*
X015199Y013805D02*
X013654Y013805D01*
X013690Y013686D02*
X022139Y013686D01*
X022114Y013805D02*
X016711Y013805D01*
X016879Y013923D02*
X022114Y013923D01*
X022138Y014042D02*
X016978Y014042D01*
X017027Y014160D02*
X022187Y014160D01*
X022280Y014279D02*
X017055Y014279D01*
X017055Y014397D02*
X022333Y014397D01*
X022215Y014516D02*
X017055Y014516D01*
X017055Y014634D02*
X022160Y014634D01*
X022114Y014753D02*
X017055Y014753D01*
X017055Y014871D02*
X022114Y014871D01*
X022117Y014990D02*
X017055Y014990D01*
X017038Y015108D02*
X022166Y015108D01*
X022228Y015227D02*
X016989Y015227D01*
X016907Y015345D02*
X022346Y015345D01*
X022267Y015464D02*
X016778Y015464D01*
X016132Y015464D02*
X015778Y015464D01*
X015907Y015345D02*
X016004Y015345D01*
X014495Y015108D02*
X014415Y015108D01*
X014415Y014990D02*
X014495Y014990D01*
X014495Y014871D02*
X014415Y014871D01*
X014415Y014753D02*
X014495Y014753D01*
X014876Y014160D02*
X014884Y014160D01*
X014933Y014042D02*
X014799Y014042D01*
X014635Y013923D02*
X015032Y013923D01*
X013690Y013568D02*
X022188Y013568D01*
X022281Y013449D02*
X013656Y013449D01*
X013594Y013331D02*
X022435Y013331D01*
X022324Y013212D02*
X013466Y013212D01*
X013582Y013094D02*
X022205Y013094D01*
X022156Y012975D02*
X013662Y012975D01*
X013689Y012857D02*
X019401Y012857D01*
X020840Y012857D02*
X022114Y012857D01*
X022114Y012738D02*
X020995Y012738D01*
X021103Y012620D02*
X022121Y012620D01*
X022188Y011066D02*
X022188Y008743D01*
X023014Y008743D01*
X023014Y008754D01*
X023734Y009183D02*
X027930Y009183D01*
X027930Y009065D02*
X023835Y009065D01*
X023884Y008946D02*
X027930Y008946D01*
X027930Y008828D02*
X023914Y008828D01*
X023914Y008709D02*
X027930Y008709D01*
X027930Y008591D02*
X023896Y008591D01*
X023847Y008472D02*
X027930Y008472D01*
X027930Y008354D02*
X023762Y008354D01*
X023682Y008235D02*
X027930Y008235D01*
X027930Y008117D02*
X023800Y008117D01*
X023863Y007998D02*
X027930Y007998D01*
X027930Y007880D02*
X023912Y007880D01*
X023914Y007761D02*
X027930Y007761D01*
X027930Y007643D02*
X023914Y007643D01*
X023868Y007524D02*
X027930Y007524D01*
X027930Y007406D02*
X023814Y007406D01*
X023696Y007287D02*
X027930Y007287D01*
X027930Y007169D02*
X023748Y007169D01*
X023841Y007050D02*
X027930Y007050D01*
X027930Y006932D02*
X023890Y006932D01*
X023914Y006813D02*
X027930Y006813D01*
X027930Y006695D02*
X023914Y006695D01*
X023890Y006576D02*
X027930Y006576D01*
X027930Y006458D02*
X023841Y006458D01*
X023748Y006339D02*
X027927Y006339D01*
X027853Y006221D02*
X023696Y006221D01*
X023815Y006102D02*
X027811Y006102D01*
X027811Y005984D02*
X023869Y005984D01*
X023914Y005865D02*
X027839Y005865D01*
X027893Y005747D02*
X023914Y005747D01*
X023912Y005628D02*
X028011Y005628D01*
X028341Y005510D02*
X023862Y005510D01*
X023800Y005391D02*
X028341Y005391D01*
X028341Y005273D02*
X023681Y005273D01*
X023014Y005754D02*
X021479Y005754D01*
X021479Y010475D01*
X021715Y010672D02*
X021715Y006754D01*
X023014Y006754D01*
X023014Y007754D02*
X021951Y007754D01*
X021951Y010869D01*
X021119Y010013D02*
X019275Y010013D01*
X019226Y009894D02*
X021119Y009894D01*
X021119Y009776D02*
X019162Y009776D01*
X019162Y009657D02*
X021119Y009657D01*
X021119Y009539D02*
X019162Y009539D01*
X019162Y009420D02*
X021119Y009420D01*
X021119Y009302D02*
X019162Y009302D01*
X019162Y009183D02*
X021119Y009183D01*
X021119Y009065D02*
X019162Y009065D01*
X019189Y008946D02*
X021119Y008946D01*
X021119Y008828D02*
X019201Y008828D01*
X019194Y008709D02*
X021119Y008709D01*
X021119Y008591D02*
X019145Y008591D01*
X019051Y008472D02*
X021119Y008472D01*
X021119Y008354D02*
X018844Y008354D01*
X019127Y007998D02*
X019800Y007998D01*
X019578Y007880D02*
X019349Y007880D01*
X020127Y007998D02*
X020800Y007998D01*
X020578Y007880D02*
X020349Y007880D01*
X021119Y008117D02*
X015175Y008117D01*
X015175Y008235D02*
X021119Y008235D01*
X018802Y008821D02*
X018723Y008821D01*
X018802Y008821D02*
X018802Y010121D01*
X023667Y010250D02*
X027930Y010250D01*
X027930Y010368D02*
X023777Y010368D01*
X023853Y010487D02*
X027930Y010487D01*
X027930Y010605D02*
X023902Y010605D01*
X023914Y010724D02*
X027930Y010724D01*
X027930Y010842D02*
X023914Y010842D01*
X023786Y010131D02*
X027930Y010131D01*
X027930Y010013D02*
X023857Y010013D01*
X023906Y009894D02*
X027930Y009894D01*
X027930Y009776D02*
X023914Y009776D01*
X023914Y009657D02*
X027930Y009657D01*
X027930Y009539D02*
X023874Y009539D01*
X023825Y009420D02*
X027930Y009420D01*
X027930Y009302D02*
X023710Y009302D01*
X028290Y011932D02*
X028290Y013388D01*
X027896Y012483D02*
X027896Y019884D01*
X028841Y019373D02*
X028841Y019367D01*
X029341Y019226D02*
X029361Y019273D01*
X029361Y019472D01*
X029341Y019520D01*
X029341Y020193D01*
X034043Y020193D01*
X033866Y020016D01*
X033761Y019762D01*
X033761Y018708D01*
X033866Y018454D01*
X034060Y018260D01*
X034314Y018155D01*
X034589Y018155D01*
X034842Y018260D01*
X035036Y018454D01*
X035141Y018708D01*
X035141Y019762D01*
X035036Y020016D01*
X034859Y020193D01*
X037168Y020193D01*
X037309Y020134D01*
X037499Y020134D01*
X037675Y020207D01*
X037810Y020342D01*
X037883Y020518D01*
X037883Y020708D01*
X037810Y020884D01*
X037675Y021018D01*
X037499Y021091D01*
X037309Y021091D01*
X037168Y021033D01*
X028758Y021033D01*
X028603Y020969D01*
X028491Y020857D01*
X024135Y020857D01*
X023952Y020781D01*
X023913Y020742D01*
X023914Y020745D01*
X023914Y020984D01*
X023823Y021205D01*
X023674Y021354D01*
X049248Y021354D01*
X049256Y012032D01*
X039720Y012052D01*
X039599Y012173D01*
X039379Y012264D01*
X039285Y012264D01*
X039264Y012313D01*
X039163Y012414D01*
X039031Y012469D01*
X038335Y012469D01*
X038335Y014623D01*
X038468Y014623D01*
X038651Y014698D01*
X038791Y014838D01*
X038867Y015022D01*
X038867Y015220D01*
X038796Y015390D01*
X041425Y015390D01*
X041579Y015454D01*
X041697Y015572D01*
X041761Y015726D01*
X041761Y016273D01*
X041763Y016275D01*
X041839Y016459D01*
X041839Y016657D01*
X041763Y016840D01*
X041623Y016980D01*
X041440Y017056D01*
X041242Y017056D01*
X041059Y016980D01*
X040919Y016840D01*
X040843Y016657D01*
X040843Y016459D01*
X040919Y016275D01*
X040921Y016273D01*
X040921Y016230D01*
X039572Y016230D01*
X039669Y016463D01*
X039669Y017518D01*
X039564Y017772D01*
X039370Y017966D01*
X039116Y018071D01*
X038842Y018071D01*
X038588Y017966D01*
X038394Y017772D01*
X038289Y017518D01*
X038289Y017411D01*
X036702Y017411D01*
X036702Y018388D01*
X036760Y018529D01*
X036760Y018720D01*
X036688Y018896D01*
X036553Y019030D01*
X036377Y019103D01*
X036187Y019103D01*
X036011Y019030D01*
X035876Y018896D01*
X035804Y018720D01*
X035804Y018529D01*
X035862Y018388D01*
X035862Y016907D01*
X035926Y016753D01*
X036044Y016635D01*
X036199Y016571D01*
X038289Y016571D01*
X038289Y016463D01*
X038386Y016230D01*
X037642Y016230D01*
X037547Y016269D01*
X035037Y016269D01*
X034883Y016205D01*
X034770Y016092D01*
X033324Y016092D01*
X033232Y016131D01*
X033033Y016131D01*
X032941Y016092D01*
X031387Y016092D01*
X031218Y016022D01*
X031089Y015893D01*
X031019Y015724D01*
X031019Y015423D01*
X029341Y015423D01*
X029341Y019226D01*
X029354Y019256D02*
X033761Y019256D01*
X033761Y019374D02*
X029361Y019374D01*
X029352Y019493D02*
X033761Y019493D01*
X033761Y019611D02*
X029341Y019611D01*
X029341Y019730D02*
X033761Y019730D01*
X033797Y019848D02*
X029341Y019848D01*
X029341Y019967D02*
X033846Y019967D01*
X033936Y020085D02*
X029341Y020085D01*
X028549Y020915D02*
X023914Y020915D01*
X023914Y020796D02*
X023989Y020796D01*
X023894Y021033D02*
X037169Y021033D01*
X037639Y021033D02*
X038014Y021033D01*
X038000Y021020D02*
X037895Y020766D01*
X037895Y019711D01*
X038000Y019458D01*
X038194Y019264D01*
X038448Y019159D01*
X038722Y019159D01*
X038976Y019264D01*
X039170Y019458D01*
X039275Y019711D01*
X039275Y020766D01*
X039170Y021020D01*
X038976Y021214D01*
X038722Y021319D01*
X038448Y021319D01*
X038194Y021214D01*
X038000Y021020D01*
X037957Y020915D02*
X037779Y020915D01*
X037846Y020796D02*
X037908Y020796D01*
X037895Y020678D02*
X037883Y020678D01*
X037883Y020559D02*
X037895Y020559D01*
X037895Y020441D02*
X037851Y020441D01*
X037895Y020322D02*
X037790Y020322D01*
X037895Y020204D02*
X037667Y020204D01*
X037895Y020085D02*
X034967Y020085D01*
X035056Y019967D02*
X037895Y019967D01*
X037895Y019848D02*
X035106Y019848D01*
X035141Y019730D02*
X037895Y019730D01*
X037937Y019611D02*
X035141Y019611D01*
X035141Y019493D02*
X037986Y019493D01*
X038084Y019374D02*
X035141Y019374D01*
X035141Y019256D02*
X038213Y019256D01*
X038957Y019256D02*
X049250Y019256D01*
X049250Y019374D02*
X039087Y019374D01*
X039185Y019493D02*
X049249Y019493D01*
X049249Y019611D02*
X039234Y019611D01*
X039275Y019730D02*
X049249Y019730D01*
X049249Y019848D02*
X039275Y019848D01*
X039275Y019967D02*
X049249Y019967D01*
X049249Y020085D02*
X039275Y020085D01*
X039275Y020204D02*
X049249Y020204D01*
X049249Y020322D02*
X039275Y020322D01*
X039275Y020441D02*
X049249Y020441D01*
X049248Y020559D02*
X039275Y020559D01*
X039275Y020678D02*
X049248Y020678D01*
X049248Y020796D02*
X039263Y020796D01*
X039214Y020915D02*
X049248Y020915D01*
X049248Y021033D02*
X039156Y021033D01*
X039038Y021152D02*
X049248Y021152D01*
X049248Y021270D02*
X038839Y021270D01*
X038331Y021270D02*
X023757Y021270D01*
X023845Y021152D02*
X038133Y021152D01*
X036564Y019019D02*
X049250Y019019D01*
X049250Y019137D02*
X035141Y019137D01*
X035141Y019019D02*
X036000Y019019D01*
X035881Y018900D02*
X035141Y018900D01*
X035141Y018782D02*
X035829Y018782D01*
X035804Y018663D02*
X035123Y018663D01*
X035074Y018545D02*
X035804Y018545D01*
X035846Y018426D02*
X035009Y018426D01*
X034890Y018308D02*
X035862Y018308D01*
X035862Y018189D02*
X034672Y018189D01*
X034231Y018189D02*
X029341Y018189D01*
X029341Y018071D02*
X035862Y018071D01*
X035862Y017952D02*
X029341Y017952D01*
X029341Y017834D02*
X035862Y017834D01*
X035862Y017715D02*
X029341Y017715D01*
X029341Y017597D02*
X035862Y017597D01*
X035862Y017478D02*
X029341Y017478D01*
X029341Y017360D02*
X035862Y017360D01*
X035862Y017241D02*
X029341Y017241D01*
X029341Y017123D02*
X035862Y017123D01*
X035862Y017004D02*
X029341Y017004D01*
X029341Y016886D02*
X035871Y016886D01*
X035920Y016767D02*
X029341Y016767D01*
X029341Y016649D02*
X036030Y016649D01*
X034853Y016175D02*
X029341Y016175D01*
X029341Y016293D02*
X038359Y016293D01*
X038310Y016412D02*
X029341Y016412D01*
X029341Y016530D02*
X038289Y016530D01*
X039598Y016293D02*
X040911Y016293D01*
X040862Y016412D02*
X039648Y016412D01*
X039669Y016530D02*
X040843Y016530D01*
X040843Y016649D02*
X039669Y016649D01*
X039669Y016767D02*
X040889Y016767D01*
X040965Y016886D02*
X039669Y016886D01*
X039669Y017004D02*
X041118Y017004D01*
X041564Y017004D02*
X049252Y017004D01*
X049252Y016886D02*
X041717Y016886D01*
X041793Y016767D02*
X049252Y016767D01*
X049252Y016649D02*
X041839Y016649D01*
X041839Y016530D02*
X049252Y016530D01*
X049252Y016412D02*
X041820Y016412D01*
X041771Y016293D02*
X049252Y016293D01*
X049253Y016175D02*
X041761Y016175D01*
X041761Y016056D02*
X049253Y016056D01*
X049253Y015938D02*
X041761Y015938D01*
X041761Y015819D02*
X049253Y015819D01*
X049253Y015701D02*
X041751Y015701D01*
X041702Y015582D02*
X049253Y015582D01*
X049253Y015464D02*
X041589Y015464D01*
X038864Y015227D02*
X049253Y015227D01*
X049253Y015345D02*
X038815Y015345D01*
X038867Y015108D02*
X049254Y015108D01*
X049254Y014990D02*
X038854Y014990D01*
X038805Y014871D02*
X049254Y014871D01*
X049254Y014753D02*
X038705Y014753D01*
X038496Y014634D02*
X049254Y014634D01*
X049254Y014516D02*
X038335Y014516D01*
X038335Y014397D02*
X049254Y014397D01*
X049254Y014279D02*
X038335Y014279D01*
X038335Y014160D02*
X047724Y014160D01*
X047630Y014121D02*
X047462Y013953D01*
X047370Y013732D01*
X047370Y013493D01*
X047462Y013273D01*
X047630Y013104D01*
X047791Y013038D01*
X047729Y013006D01*
X047671Y012964D01*
X047619Y012912D01*
X047577Y012854D01*
X047544Y012789D01*
X047522Y012720D01*
X047511Y012653D01*
X048230Y012653D01*
X048230Y012573D01*
X047511Y012573D01*
X047522Y012505D01*
X047544Y012436D01*
X047577Y012372D01*
X047619Y012313D01*
X047671Y012262D01*
X047729Y012219D01*
X047794Y012186D01*
X047863Y012164D01*
X047934Y012153D01*
X048230Y012153D01*
X048230Y012573D01*
X048310Y012573D01*
X048310Y012153D01*
X048606Y012153D01*
X048678Y012164D01*
X048747Y012186D01*
X048811Y012219D01*
X048870Y012262D01*
X048921Y012313D01*
X048964Y012372D01*
X048997Y012436D01*
X049019Y012505D01*
X049030Y012573D01*
X048310Y012573D01*
X048310Y012653D01*
X049030Y012653D01*
X049019Y012720D01*
X048997Y012789D01*
X048964Y012854D01*
X048921Y012912D01*
X048870Y012964D01*
X048811Y013006D01*
X048750Y013038D01*
X048910Y013104D01*
X049079Y013273D01*
X049170Y013493D01*
X049170Y013732D01*
X049079Y013953D01*
X048910Y014121D01*
X048690Y014213D01*
X047851Y014213D01*
X047630Y014121D01*
X047551Y014042D02*
X038335Y014042D01*
X038335Y013923D02*
X047449Y013923D01*
X047400Y013805D02*
X038335Y013805D01*
X038335Y013686D02*
X047370Y013686D01*
X047370Y013568D02*
X038335Y013568D01*
X038335Y013449D02*
X047388Y013449D01*
X047438Y013331D02*
X038335Y013331D01*
X038335Y013212D02*
X047522Y013212D01*
X047655Y013094D02*
X038335Y013094D01*
X038335Y012975D02*
X047687Y012975D01*
X047579Y012857D02*
X038335Y012857D01*
X038335Y012738D02*
X047527Y012738D01*
X047523Y012501D02*
X038335Y012501D01*
X038335Y012620D02*
X048230Y012620D01*
X048310Y012620D02*
X049256Y012620D01*
X049256Y012738D02*
X049013Y012738D01*
X048961Y012857D02*
X049256Y012857D01*
X049256Y012975D02*
X048854Y012975D01*
X048885Y013094D02*
X049255Y013094D01*
X049255Y013212D02*
X049018Y013212D01*
X049103Y013331D02*
X049255Y013331D01*
X049255Y013449D02*
X049152Y013449D01*
X049170Y013568D02*
X049255Y013568D01*
X049255Y013686D02*
X049170Y013686D01*
X049140Y013805D02*
X049255Y013805D01*
X049255Y013923D02*
X049091Y013923D01*
X048990Y014042D02*
X049255Y014042D01*
X049254Y014160D02*
X048816Y014160D01*
X049018Y012501D02*
X049256Y012501D01*
X049256Y012383D02*
X048969Y012383D01*
X048872Y012264D02*
X049256Y012264D01*
X049256Y012146D02*
X039626Y012146D01*
X039284Y012264D02*
X047668Y012264D01*
X047571Y012383D02*
X039194Y012383D01*
X038959Y012109D02*
X038959Y011664D01*
X038959Y012109D02*
X037975Y012109D01*
X037975Y015121D01*
X038369Y015121D01*
X037043Y014985D02*
X037043Y012798D01*
X036985Y012657D01*
X036985Y012466D01*
X037058Y012291D01*
X037124Y012224D01*
X037000Y012173D01*
X036886Y012058D01*
X036623Y012058D01*
X036509Y012173D01*
X036288Y012264D01*
X036194Y012264D01*
X036174Y012313D01*
X036073Y012414D01*
X035992Y012447D01*
X035992Y014288D01*
X036106Y014288D01*
X036289Y014364D01*
X036429Y014504D01*
X036505Y014687D01*
X036505Y014885D01*
X036442Y015036D01*
X036537Y015036D01*
X036562Y015010D01*
X036738Y014937D01*
X036928Y014937D01*
X037043Y014985D01*
X037043Y014871D02*
X036505Y014871D01*
X036505Y014753D02*
X037043Y014753D01*
X037043Y014634D02*
X036483Y014634D01*
X036434Y014516D02*
X037043Y014516D01*
X037043Y014397D02*
X036322Y014397D01*
X035992Y014279D02*
X037043Y014279D01*
X037043Y014160D02*
X035992Y014160D01*
X035992Y014042D02*
X037043Y014042D01*
X037043Y013923D02*
X035992Y013923D01*
X035992Y013805D02*
X037043Y013805D01*
X037043Y013686D02*
X035992Y013686D01*
X035992Y013568D02*
X037043Y013568D01*
X037043Y013449D02*
X035992Y013449D01*
X035992Y013331D02*
X037043Y013331D01*
X037043Y013212D02*
X035992Y013212D01*
X035992Y013094D02*
X037043Y013094D01*
X037043Y012975D02*
X035992Y012975D01*
X035992Y012857D02*
X037043Y012857D01*
X037019Y012738D02*
X035992Y012738D01*
X035992Y012620D02*
X036985Y012620D01*
X036985Y012501D02*
X035992Y012501D01*
X036104Y012383D02*
X037019Y012383D01*
X037084Y012264D02*
X036194Y012264D01*
X035869Y012109D02*
X035869Y011664D01*
X035869Y012109D02*
X035632Y012109D01*
X035632Y014786D01*
X036006Y014786D01*
X036461Y014990D02*
X036612Y014990D01*
X035121Y015573D02*
X035121Y015632D01*
X036702Y017478D02*
X038289Y017478D01*
X038322Y017597D02*
X036702Y017597D01*
X036702Y017715D02*
X038371Y017715D01*
X038456Y017834D02*
X036702Y017834D01*
X036702Y017952D02*
X038575Y017952D01*
X039383Y017952D02*
X049251Y017952D01*
X049251Y017834D02*
X039502Y017834D01*
X039587Y017715D02*
X049251Y017715D01*
X049251Y017597D02*
X039636Y017597D01*
X039669Y017478D02*
X049251Y017478D01*
X049251Y017360D02*
X039669Y017360D01*
X039669Y017241D02*
X049252Y017241D01*
X049252Y017123D02*
X039669Y017123D01*
X036702Y018071D02*
X049251Y018071D01*
X049251Y018189D02*
X036702Y018189D01*
X036702Y018308D02*
X049251Y018308D01*
X049250Y018426D02*
X036718Y018426D01*
X036760Y018545D02*
X049250Y018545D01*
X049250Y018663D02*
X036760Y018663D01*
X036735Y018782D02*
X049250Y018782D01*
X049250Y018900D02*
X036683Y018900D01*
X034012Y018308D02*
X029341Y018308D01*
X029341Y018426D02*
X033894Y018426D01*
X033829Y018545D02*
X029341Y018545D01*
X029341Y018663D02*
X033780Y018663D01*
X033761Y018782D02*
X029341Y018782D01*
X029341Y018900D02*
X033761Y018900D01*
X033761Y019019D02*
X029341Y019019D01*
X029341Y019137D02*
X033761Y019137D01*
X031300Y016056D02*
X029341Y016056D01*
X029341Y015938D02*
X031134Y015938D01*
X031058Y015819D02*
X029341Y015819D01*
X029341Y015701D02*
X031019Y015701D01*
X031019Y015582D02*
X029341Y015582D01*
X029341Y015464D02*
X031019Y015464D01*
X036535Y012146D02*
X036974Y012146D01*
X034825Y009018D02*
X043880Y009018D01*
X045573Y009018D01*
X045573Y009924D01*
X045581Y010042D01*
X043880Y009018D02*
X043880Y004609D01*
X043310Y004609D02*
X043310Y004825D01*
X036164Y004018D02*
X036164Y003861D01*
X035928Y003861D01*
X035928Y003585D01*
X036144Y004018D02*
X036164Y004018D01*
X034825Y006400D02*
X034825Y009018D01*
X028290Y011932D02*
X028290Y006026D01*
X028341Y005154D02*
X021321Y005154D01*
X021322Y005036D02*
X028341Y005036D01*
X028341Y004917D02*
X021322Y004917D01*
X021323Y004799D02*
X028341Y004799D01*
X028341Y004680D02*
X021323Y004680D01*
X021324Y004562D02*
X028341Y004562D01*
X028341Y004443D02*
X021324Y004443D01*
X021325Y004325D02*
X028341Y004325D01*
X028341Y004206D02*
X021325Y004206D01*
X021326Y004088D02*
X028341Y004088D01*
X028341Y003969D02*
X021326Y003969D01*
X021327Y003851D02*
X028341Y003851D01*
X028341Y003732D02*
X021327Y003732D01*
X021328Y003614D02*
X028378Y003614D01*
X028440Y003495D02*
X021328Y003495D01*
X021329Y003377D02*
X028560Y003377D01*
X029122Y003377D02*
X031440Y003377D01*
X031440Y003495D02*
X029242Y003495D01*
X031440Y003258D02*
X021329Y003258D01*
X021329Y003140D02*
X031440Y003140D01*
X031440Y003021D02*
X021330Y003021D01*
X021330Y002903D02*
X031440Y002903D01*
X031440Y002784D02*
X021331Y002784D01*
X021347Y002666D02*
X031440Y002666D01*
X031440Y002547D02*
X021430Y002547D01*
X021479Y002429D02*
X031440Y002429D01*
X031440Y002310D02*
X021481Y002310D01*
X021467Y002192D02*
X031440Y002192D01*
X031440Y002073D02*
X021418Y002073D01*
X021317Y001955D02*
X031440Y001955D01*
X031440Y001836D02*
X021104Y001836D01*
X020862Y001836D02*
X020396Y001836D01*
X020445Y001955D02*
X020649Y001955D01*
X020548Y002073D02*
X020461Y002073D01*
X020458Y002192D02*
X020499Y002192D01*
X020485Y002310D02*
X020409Y002310D01*
X020332Y002429D02*
X020487Y002429D01*
X020536Y002547D02*
X020331Y002547D01*
X020331Y002666D02*
X020619Y002666D01*
X020631Y002784D02*
X020330Y002784D01*
X020330Y002903D02*
X020630Y002903D01*
X020630Y003021D02*
X020329Y003021D01*
X020329Y003140D02*
X020629Y003140D01*
X020629Y003258D02*
X020328Y003258D01*
X020328Y003377D02*
X020629Y003377D01*
X020628Y003495D02*
X020327Y003495D01*
X020327Y003614D02*
X020628Y003614D01*
X020627Y003732D02*
X020326Y003732D01*
X020326Y003851D02*
X020627Y003851D01*
X020626Y003969D02*
X020325Y003969D01*
X020325Y004088D02*
X020626Y004088D01*
X020625Y004206D02*
X020325Y004206D01*
X020324Y004325D02*
X020625Y004325D01*
X020624Y004443D02*
X020324Y004443D01*
X020323Y004562D02*
X020624Y004562D01*
X020623Y004680D02*
X020323Y004680D01*
X020322Y004799D02*
X020623Y004799D01*
X020622Y004917D02*
X020322Y004917D01*
X020321Y005036D02*
X020622Y005036D01*
X020621Y005154D02*
X020321Y005154D01*
X020320Y005273D02*
X020621Y005273D01*
X020620Y005391D02*
X020320Y005391D01*
X020319Y005510D02*
X020620Y005510D01*
X020619Y005628D02*
X020319Y005628D01*
X020319Y005747D02*
X020619Y005747D01*
X020618Y005865D02*
X020318Y005865D01*
X020318Y005984D02*
X020618Y005984D01*
X020617Y006102D02*
X020317Y006102D01*
X020317Y006221D02*
X020617Y006221D01*
X020592Y006339D02*
X020334Y006339D01*
X020453Y006458D02*
X020473Y006458D01*
X019592Y006339D02*
X019334Y006339D01*
X019313Y006221D02*
X019617Y006221D01*
X019617Y006102D02*
X019313Y006102D01*
X019313Y005984D02*
X019618Y005984D01*
X019618Y005865D02*
X019313Y005865D01*
X019313Y005747D02*
X019619Y005747D01*
X019619Y005628D02*
X019313Y005628D01*
X019313Y005510D02*
X019619Y005510D01*
X019620Y005391D02*
X019313Y005391D01*
X019313Y005273D02*
X019620Y005273D01*
X019621Y005154D02*
X019313Y005154D01*
X019313Y005036D02*
X019621Y005036D01*
X019622Y004917D02*
X019313Y004917D01*
X019313Y004799D02*
X019622Y004799D01*
X019623Y004680D02*
X019313Y004680D01*
X019313Y004562D02*
X019623Y004562D01*
X019624Y004443D02*
X019313Y004443D01*
X019313Y004325D02*
X019624Y004325D01*
X019625Y004206D02*
X019313Y004206D01*
X019313Y004088D02*
X019625Y004088D01*
X019625Y003969D02*
X019313Y003969D01*
X019313Y003851D02*
X019626Y003851D01*
X019626Y003732D02*
X019313Y003732D01*
X019313Y003614D02*
X019627Y003614D01*
X019627Y003495D02*
X019313Y003495D01*
X019313Y003377D02*
X019628Y003377D01*
X019628Y003258D02*
X019313Y003258D01*
X019313Y003140D02*
X019629Y003140D01*
X019629Y003021D02*
X019313Y003021D01*
X019326Y002903D02*
X019630Y002903D01*
X019630Y002784D02*
X019410Y002784D01*
X019459Y002666D02*
X019631Y002666D01*
X019631Y002547D02*
X019461Y002547D01*
X019447Y002429D02*
X019632Y002429D01*
X019557Y002310D02*
X019398Y002310D01*
X019298Y002192D02*
X019508Y002192D01*
X019504Y002073D02*
X019086Y002073D01*
X019521Y001955D02*
X001249Y001955D01*
X001249Y001836D02*
X019570Y001836D01*
X019678Y001718D02*
X001249Y001718D01*
X001249Y001599D02*
X031440Y001599D01*
X031440Y001481D02*
X001249Y001481D01*
X001249Y001362D02*
X031440Y001362D01*
X031440Y001718D02*
X020288Y001718D01*
X021321Y005273D02*
X022347Y005273D01*
X022229Y005391D02*
X021320Y005391D01*
X019473Y006458D02*
X019453Y006458D01*
X014475Y007643D02*
X007548Y007643D01*
X007548Y007761D02*
X014475Y007761D01*
X014247Y007880D02*
X008664Y007880D01*
X008231Y007880D02*
X007548Y007880D01*
X007548Y007998D02*
X008074Y007998D01*
X007996Y008117D02*
X007548Y008117D01*
X007548Y008235D02*
X007949Y008235D01*
X007949Y008354D02*
X007548Y008354D01*
X007188Y008782D02*
X009353Y008782D01*
X009824Y008946D02*
X009838Y008946D01*
X009838Y009065D02*
X009775Y009065D01*
X009838Y009183D02*
X009656Y009183D01*
X009838Y009302D02*
X006603Y009302D01*
X006603Y009420D02*
X009838Y009420D01*
X009838Y009539D02*
X006603Y009539D01*
X006603Y009657D02*
X009838Y009657D01*
X009838Y009776D02*
X007466Y009776D01*
X007677Y009894D02*
X009838Y009894D01*
X009838Y010013D02*
X007780Y010013D01*
X007829Y010131D02*
X009838Y010131D01*
X009838Y010250D02*
X007849Y010250D01*
X007849Y010368D02*
X009838Y010368D01*
X009838Y010487D02*
X007807Y010487D01*
X007741Y010605D02*
X009838Y010605D01*
X009838Y010724D02*
X007621Y010724D01*
X007706Y011079D02*
X007090Y011079D01*
X007139Y010961D02*
X009838Y010961D01*
X009838Y010842D02*
X007154Y010842D01*
X006676Y010829D02*
X006243Y010829D01*
X006243Y008191D01*
X006603Y009183D02*
X009050Y009183D01*
X006752Y009776D02*
X006603Y009776D01*
X005883Y010487D02*
X004934Y010487D01*
X004816Y010605D02*
X005883Y010605D01*
X005883Y010724D02*
X004675Y010724D01*
X004812Y010842D02*
X005883Y010842D01*
X005883Y010961D02*
X004879Y010961D01*
X004907Y011079D02*
X005883Y011079D01*
X005883Y011198D02*
X004902Y011198D01*
X004867Y011316D02*
X005883Y011316D01*
X005883Y011435D02*
X004788Y011435D01*
X004637Y011553D02*
X005883Y011553D01*
X005883Y011672D02*
X004844Y011672D01*
X004959Y011790D02*
X005883Y011790D01*
X005883Y011909D02*
X005008Y011909D01*
X005048Y012027D02*
X005883Y012027D01*
X005883Y012146D02*
X005048Y012146D01*
X005040Y012264D02*
X005883Y012264D01*
X005883Y012383D02*
X004991Y012383D01*
X004920Y012501D02*
X005883Y012501D01*
X005883Y012620D02*
X004801Y012620D01*
X004911Y012738D02*
X005883Y012738D01*
X006243Y013125D02*
X004148Y013125D01*
X002812Y013094D02*
X001238Y013094D01*
X001238Y013212D02*
X002812Y013212D01*
X002812Y013331D02*
X001238Y013331D01*
X001238Y013449D02*
X002812Y013449D01*
X002812Y013568D02*
X001238Y013568D01*
X001238Y013686D02*
X002812Y013686D01*
X002857Y013805D02*
X001238Y013805D01*
X001238Y013923D02*
X002962Y013923D01*
X003248Y014042D02*
X001238Y014042D01*
X001237Y014160D02*
X003248Y014160D01*
X003263Y014279D02*
X001237Y014279D01*
X001237Y014397D02*
X003312Y014397D01*
X003391Y014516D02*
X001237Y014516D01*
X001237Y014634D02*
X003511Y014634D01*
X004785Y014634D02*
X006639Y014634D01*
X006650Y014516D02*
X004905Y014516D01*
X004985Y014397D02*
X005071Y014397D01*
X006639Y014753D02*
X001237Y014753D01*
X001237Y014871D02*
X006639Y014871D01*
X006639Y014990D02*
X001237Y014990D01*
X001237Y015108D02*
X006639Y015108D01*
X006639Y015227D02*
X001236Y015227D01*
X001236Y015345D02*
X006639Y015345D01*
X006672Y015464D02*
X001236Y015464D01*
X001236Y015582D02*
X006722Y015582D01*
X006735Y015701D02*
X001236Y015701D01*
X001236Y015819D02*
X006735Y015819D01*
X006734Y015938D02*
X001236Y015938D01*
X001236Y016056D02*
X006734Y016056D01*
X006733Y016175D02*
X001236Y016175D01*
X001235Y016293D02*
X006733Y016293D01*
X006732Y016412D02*
X001235Y016412D01*
X001235Y016530D02*
X006732Y016530D01*
X006731Y016649D02*
X001235Y016649D01*
X001235Y016767D02*
X006731Y016767D01*
X006730Y016886D02*
X001235Y016886D01*
X001235Y017004D02*
X006730Y017004D01*
X006729Y017123D02*
X001235Y017123D01*
X001235Y017241D02*
X006729Y017241D01*
X007735Y015819D02*
X008014Y015819D01*
X007828Y015701D02*
X007735Y015701D01*
X011321Y013664D02*
X011321Y013546D01*
X008428Y013546D01*
X008447Y012837D02*
X013329Y012837D01*
X013329Y011774D01*
X013369Y011774D01*
X013031Y011435D02*
X012578Y011435D01*
X012586Y011416D02*
X013051Y011416D01*
X012963Y011503D01*
X012890Y011679D01*
X012890Y011869D01*
X012963Y012045D01*
X012969Y012051D01*
X012969Y012477D01*
X008764Y012477D01*
X008718Y012432D01*
X008543Y012359D01*
X008356Y012359D01*
X008356Y011959D01*
X010119Y011959D01*
X010163Y011977D01*
X010354Y011977D01*
X010529Y011904D01*
X010664Y011770D01*
X010693Y011701D01*
X010695Y011701D01*
X010885Y011701D01*
X011016Y011647D01*
X011148Y011701D01*
X011338Y011701D01*
X011469Y011647D01*
X011600Y011701D01*
X011791Y011701D01*
X011922Y011647D01*
X012053Y011701D01*
X012243Y011701D01*
X012419Y011629D01*
X012554Y011494D01*
X012586Y011416D01*
X012494Y011553D02*
X012942Y011553D01*
X012893Y011672D02*
X012315Y011672D01*
X011982Y011672D02*
X011862Y011672D01*
X011529Y011672D02*
X011409Y011672D01*
X011076Y011672D02*
X010956Y011672D01*
X010643Y011790D02*
X012890Y011790D01*
X012907Y011909D02*
X010518Y011909D01*
X008601Y012383D02*
X012969Y012383D01*
X012969Y012264D02*
X008356Y012264D01*
X008356Y012146D02*
X012969Y012146D01*
X012956Y012027D02*
X008356Y012027D01*
X007436Y011672D02*
X006603Y011672D01*
X006603Y011790D02*
X006717Y011790D01*
X006603Y011553D02*
X007436Y011553D01*
X007436Y011435D02*
X006603Y011435D01*
X006603Y011316D02*
X007474Y011316D01*
X007546Y011198D02*
X006984Y011198D01*
X006243Y010829D02*
X006243Y013125D01*
X002812Y012975D02*
X001239Y012975D01*
X001239Y012857D02*
X002812Y012857D01*
X002812Y012738D02*
X001239Y012738D01*
X001239Y012620D02*
X002812Y012620D01*
X002812Y012501D02*
X001239Y012501D01*
X001239Y012383D02*
X002812Y012383D01*
X002812Y012264D02*
X001239Y012264D01*
X001239Y012146D02*
X002812Y012146D01*
X002812Y012027D02*
X001239Y012027D01*
X001240Y011909D02*
X002812Y011909D01*
X002812Y011790D02*
X001240Y011790D01*
X001240Y011672D02*
X002812Y011672D01*
X002812Y011553D02*
X001240Y011553D01*
X001240Y011435D02*
X002812Y011435D01*
X002812Y011316D02*
X001240Y011316D01*
X001240Y011198D02*
X002812Y011198D01*
X002812Y011079D02*
X001240Y011079D01*
X001240Y010961D02*
X002812Y010961D01*
X002812Y010842D02*
X001241Y010842D01*
X001241Y010724D02*
X002812Y010724D01*
X002812Y010605D02*
X001241Y010605D01*
X001241Y010487D02*
X002812Y010487D01*
X002812Y010368D02*
X001241Y010368D01*
X001241Y010250D02*
X002812Y010250D01*
X002812Y010131D02*
X001241Y010131D01*
X001241Y010013D02*
X002828Y010013D01*
X002893Y009894D02*
X001241Y009894D01*
X001242Y009776D02*
X003073Y009776D01*
X003467Y009657D02*
X001242Y009657D01*
X001242Y009539D02*
X003414Y009539D01*
X003321Y009420D02*
X001242Y009420D01*
X001242Y009302D02*
X003272Y009302D01*
X003248Y009183D02*
X001242Y009183D01*
X001242Y009065D02*
X003248Y009065D01*
X003273Y008946D02*
X001242Y008946D01*
X001242Y008828D02*
X003322Y008828D01*
X003415Y008709D02*
X001243Y008709D01*
X001243Y008591D02*
X003569Y008591D01*
X010130Y004088D02*
X010166Y004088D01*
X010285Y003969D02*
X010012Y003969D01*
X011012Y003969D02*
X011285Y003969D01*
X011166Y004088D02*
X011130Y004088D01*
X012012Y003969D02*
X012285Y003969D01*
X012166Y004088D02*
X012130Y004088D01*
X013211Y013605D02*
X013211Y013625D01*
X013211Y014077D01*
X048230Y012501D02*
X048310Y012501D01*
X048310Y012383D02*
X048230Y012383D01*
X048230Y012264D02*
X048310Y012264D01*
D19*
X041341Y015810D02*
X037463Y015810D01*
X037463Y015849D01*
X035121Y015849D01*
X035121Y015573D01*
X037463Y015810D02*
X037463Y012562D01*
X036754Y013172D02*
X036420Y013172D01*
X031479Y015003D02*
X028841Y015003D01*
X036282Y016991D02*
X036282Y018625D01*
X036282Y016991D02*
X038979Y016991D01*
X041341Y016558D02*
X041341Y015810D01*
X037404Y020613D02*
X028841Y020613D01*
X028841Y020317D01*
X012463Y012424D02*
X010573Y012424D01*
X010258Y011499D02*
X010258Y008329D01*
X008447Y008329D01*
X010258Y008329D02*
X014412Y008329D01*
X028841Y007483D02*
X031597Y007483D01*
X028841Y005239D02*
X028841Y004018D01*
X028841Y003802D01*
D20*
X028841Y005239D01*
X028841Y007483D01*
X028841Y010514D01*
X028841Y012010D01*
X028841Y015003D01*
X028841Y017877D01*
X028841Y019367D01*
X028841Y019373D02*
X028861Y019373D01*
X028841Y019373D02*
X028841Y020317D01*
X028841Y020357D01*
X024235Y020357D01*
X024235Y019353D01*
X023940Y019353D01*
X023959Y019353D01*
X022030Y019373D02*
X007219Y019373D01*
X007220Y019176D01*
X007235Y019176D01*
X007235Y020219D01*
X007220Y019176D02*
X007239Y014963D01*
X014451Y015770D02*
X014451Y016282D01*
X036892Y005869D02*
X036892Y005475D01*
X032443Y005475D01*
X028841Y004018D02*
X036144Y004018D01*
X038841Y004018D01*
X016676Y005770D02*
X007778Y005770D01*
D21*
X035967Y015416D02*
X036833Y015416D01*
X036420Y014058D02*
X036420Y013172D01*
X028841Y019235D02*
X028841Y019373D01*
X028841Y019589D01*
X024254Y019432D02*
X024038Y019432D01*
X023940Y019353D01*
X023959Y019353D02*
X022030Y019353D01*
X022030Y019373D01*
D22*
X014451Y018723D02*
X014451Y016282D01*
X014451Y018723D02*
X007975Y018762D01*
X007896Y013231D02*
X007896Y011499D01*
X010258Y011499D01*
X031479Y015003D02*
X031479Y015632D01*
X033132Y015632D01*
X035121Y015632D01*
X035121Y015573D02*
X035121Y012660D01*
X034747Y012660D01*
D23*
X042148Y012266D02*
X042148Y010554D01*
X042168Y012266D02*
X042148Y012266D01*
X032896Y002483D02*
X030810Y002483D01*
M02*
