%
M48
M72
T01C0.0197
T02C0.0236
T03C0.0240
T04C0.0400
T05C0.0500
T06C0.0520
T07C0.0700
%
T01
X7778Y5770
X11814Y6282
X14412Y8329
X18290Y10121
X18802Y10121
X18723Y8821
X13369Y11774
X12148Y11223
X11695Y11223
X11243Y11223
X10790Y11223
X10258Y11499
X10573Y12424
X12463Y12424
X13211Y13625
X8447Y12837
X6676Y10829
X6243Y8191
X16676Y5770
X19983Y2089
X28841Y3802
X28290Y6026
X31597Y7483
X28841Y10514
X28841Y12010
X27896Y12483
X28290Y13388
X31479Y15003
X35967Y15416
X36833Y15416
X36420Y14058
X36420Y13172
X37463Y12562
X34747Y12660
X28841Y17877
X28841Y19373
X27896Y19884
X36282Y18625
X37404Y20613
T02
X41341Y16558
X38369Y15121
X36006Y14786
X33132Y15632
X23940Y19353
X22030Y19373
X11321Y13664
X8428Y13546
X7896Y13231
X15928Y12266
X16302Y11538
X9353Y8782
X8447Y8329
X7188Y4589
X17955Y2542
X18963Y2562
X20983Y2325
X32443Y3329
X35928Y3585
X38841Y4018
X41440Y5436
X41440Y6321
X41814Y6794
X38861Y7778
X37286Y7975
X38959Y8605
X36341Y7010
X34825Y6400
X36892Y5869
X37581Y5869
X32443Y5475
X43310Y4609
X43880Y4609
X7975Y18762
T03
X7109Y12282
X7109Y10282
T04
X4148Y10125
X4148Y11125
X4148Y12125
X4148Y13125
X4148Y14125
X7239Y14963
X8239Y14963
X14455Y14648
X15455Y14648
X16455Y14648
X23014Y14865
X23014Y13865
X23014Y12754
X23014Y11754
X23014Y10754
X23014Y9754
X23014Y8754
X23014Y7754
X23014Y6754
X20963Y7117
X19963Y7117
X18963Y7117
X17963Y7117
X23014Y5754
X12648Y4754
X11648Y4754
X10648Y4754
X9648Y4754
X4148Y9125
X23014Y15865
X23014Y16865
X23014Y17865
X23014Y18865
X23014Y19865
X23014Y20865
X7235Y20219
X6235Y20219
X5199Y18987
X3782Y18987
X3782Y17987
X5199Y17987
X34550Y11664
X35869Y11664
X37640Y11664
X38959Y11664
X38959Y10664
X37640Y10664
X35869Y10664
X34550Y10664
X44581Y10042
X45581Y10042
X46884Y10042
X47884Y10042
X48270Y12613
X48270Y13613
T05
X46873Y6085
X40947Y3408
T06
X2109Y3723
X4254Y3723
X6400Y3723
X20121Y12247
X34451Y19235
X38585Y20239
X38979Y16991
T07
X45869Y7089
X47876Y7089
X47876Y5081
X45869Y5081
X41951Y4412
X39944Y4412
X39944Y2404
X41951Y2404
M30
