G75*
G70*
%OFA0B0*%
%FSLAX24Y24*%
%IPPOS*%
%LPD*%
%AMOC8*
5,1,8,0,0,1.08239X$1,22.5*
%
%ADD10C,0.1340*%
%ADD11R,0.0552X0.0198*%
%ADD12R,0.0198X0.0552*%
%ADD13C,0.0680*%
%ADD14R,0.0138X0.0315*%
%ADD15R,0.0315X0.0138*%
%ADD16R,0.1496X0.1102*%
%ADD17R,0.0671X0.0592*%
%ADD18R,0.1024X0.1024*%
%ADD19R,0.0354X0.0177*%
%ADD20R,0.0177X0.0354*%
%ADD21R,0.0513X0.0474*%
%ADD22C,0.0520*%
%ADD23R,0.0474X0.0513*%
%ADD24R,0.0434X0.0356*%
%ADD25R,0.0592X0.0671*%
%ADD26R,0.0631X0.0474*%
%ADD27R,0.0880X0.0340*%
%ADD28C,0.0860*%
%ADD29R,0.0356X0.0434*%
%ADD30R,0.0710X0.0592*%
%ADD31R,0.0710X0.1143*%
%ADD32R,0.0690X0.0592*%
%ADD33R,0.0946X0.0316*%
%ADD34R,0.0237X0.0552*%
%ADD35R,0.0340X0.0880*%
%ADD36R,0.1261X0.0710*%
%ADD37R,0.0960X0.0560*%
%ADD38R,0.0946X0.1497*%
%ADD39R,0.0316X0.0552*%
%ADD40C,0.0580*%
%ADD41R,0.0780X0.1730*%
%ADD42R,0.1130X0.1730*%
%ADD43R,0.1730X0.0780*%
%ADD44R,0.1730X0.1130*%
%ADD45C,0.0476*%
%ADD46C,0.0437*%
%ADD47C,0.0358*%
%ADD48C,0.0397*%
D10*
X002404Y005150D03*
X001853Y023555D03*
X046381Y005681D03*
X047700Y020268D03*
D11*
X013645Y015134D03*
X013645Y014937D03*
X013645Y014740D03*
X013645Y014544D03*
X013645Y014347D03*
X013645Y014150D03*
X013645Y013953D03*
X013645Y013756D03*
X013645Y013559D03*
X013645Y013362D03*
X013645Y013166D03*
X013645Y012969D03*
X013645Y012772D03*
X013645Y012575D03*
X013645Y012378D03*
X013645Y012181D03*
X009196Y012181D03*
X009196Y012378D03*
X009196Y012575D03*
X009196Y012772D03*
X009196Y012969D03*
X009196Y013166D03*
X009196Y013362D03*
X009196Y013559D03*
X009196Y013756D03*
X009196Y013953D03*
X009196Y014150D03*
X009196Y014347D03*
X009196Y014544D03*
X009196Y014740D03*
X009196Y014937D03*
X009196Y015134D03*
D12*
X009944Y015882D03*
X010141Y015882D03*
X010337Y015882D03*
X010534Y015882D03*
X010731Y015882D03*
X010928Y015882D03*
X011125Y015882D03*
X011322Y015882D03*
X011519Y015882D03*
X011715Y015882D03*
X011912Y015882D03*
X012109Y015882D03*
X012306Y015882D03*
X012503Y015882D03*
X012700Y015882D03*
X012897Y015882D03*
X012897Y011433D03*
X012700Y011433D03*
X012503Y011433D03*
X012306Y011433D03*
X012109Y011433D03*
X011912Y011433D03*
X011715Y011433D03*
X011519Y011433D03*
X011322Y011433D03*
X011125Y011433D03*
X010928Y011433D03*
X010731Y011433D03*
X010534Y011433D03*
X010337Y011433D03*
X010141Y011433D03*
X009944Y011433D03*
D13*
X004134Y012087D02*
X003534Y012087D01*
X003534Y013087D02*
X004134Y013087D01*
X004134Y014087D02*
X003534Y014087D01*
X003534Y015087D02*
X004134Y015087D01*
X004134Y016087D02*
X003534Y016087D01*
X003534Y017087D02*
X004134Y017087D01*
X006924Y017625D02*
X006924Y018225D01*
X007924Y018225D02*
X007924Y017625D01*
X014141Y017910D02*
X014141Y017310D01*
X015141Y017310D02*
X015141Y017910D01*
X016141Y017910D02*
X016141Y017310D01*
X022400Y016827D02*
X023000Y016827D01*
X023000Y017827D02*
X022400Y017827D01*
X022400Y018827D02*
X023000Y018827D01*
X023000Y019827D02*
X022400Y019827D01*
X022400Y020827D02*
X023000Y020827D01*
X023000Y021827D02*
X022400Y021827D01*
X022400Y022827D02*
X023000Y022827D01*
X023000Y023827D02*
X022400Y023827D01*
X006920Y023481D02*
X006920Y022881D01*
X005920Y022881D02*
X005920Y023481D01*
X005185Y021949D02*
X004585Y021949D01*
X003767Y021949D02*
X003167Y021949D01*
X003167Y020949D02*
X003767Y020949D01*
X004585Y020949D02*
X005185Y020949D01*
X022400Y015717D02*
X023000Y015717D01*
X023000Y014717D02*
X022400Y014717D01*
X022400Y013717D02*
X023000Y013717D01*
X023000Y012717D02*
X022400Y012717D01*
X022400Y011717D02*
X023000Y011717D01*
X023000Y010717D02*
X022400Y010717D01*
X022400Y009717D02*
X023000Y009717D01*
X023000Y008717D02*
X022400Y008717D01*
X020649Y009779D02*
X020649Y010379D01*
X019649Y010379D02*
X019649Y009779D01*
X018649Y009779D02*
X018649Y010379D01*
X017649Y010379D02*
X017649Y009779D01*
X012334Y008017D02*
X012334Y007417D01*
X011334Y007417D02*
X011334Y008017D01*
X010334Y008017D02*
X010334Y007417D01*
X009334Y007417D02*
X009334Y008017D01*
X033935Y013626D02*
X034535Y013626D01*
X035254Y013626D02*
X035854Y013626D01*
X037026Y013626D02*
X037626Y013626D01*
X038345Y013626D02*
X038945Y013626D01*
X038945Y014626D02*
X038345Y014626D01*
X037626Y014626D02*
X037026Y014626D01*
X035854Y014626D02*
X035254Y014626D01*
X034535Y014626D02*
X033935Y014626D01*
X043164Y012517D02*
X043164Y011917D01*
X044164Y011917D02*
X044164Y012517D01*
X045467Y012517D02*
X045467Y011917D01*
X046467Y011917D02*
X046467Y012517D01*
X046553Y014788D02*
X047153Y014788D01*
X047153Y015788D02*
X046553Y015788D01*
D14*
X037587Y008792D03*
X037391Y008792D03*
X037194Y008792D03*
X036997Y008792D03*
X036800Y008792D03*
X036603Y008792D03*
X036406Y008792D03*
X036210Y008792D03*
X036210Y007296D03*
X036406Y007296D03*
X036603Y007296D03*
X036800Y007296D03*
X036997Y007296D03*
X037194Y007296D03*
X037391Y007296D03*
X037587Y007296D03*
D15*
X037843Y007551D03*
X037843Y007748D03*
X037843Y007945D03*
X037843Y008142D03*
X037843Y008339D03*
X037843Y008536D03*
X035954Y008536D03*
X035954Y008339D03*
X035954Y008142D03*
X035954Y007945D03*
X035954Y007748D03*
X035954Y007551D03*
D16*
X036899Y008044D03*
D17*
X035889Y009815D03*
X035003Y009815D03*
X035003Y010563D03*
X035889Y010484D03*
D18*
X043369Y008063D03*
D19*
X044156Y007935D03*
X044156Y007679D03*
X044156Y008191D03*
X044156Y008447D03*
X042582Y008447D03*
X042582Y008191D03*
X042582Y007935D03*
X042582Y007679D03*
D20*
X042985Y007276D03*
X043241Y007276D03*
X043497Y007276D03*
X043753Y007276D03*
X043753Y008851D03*
X043497Y008851D03*
X043241Y008851D03*
X042985Y008851D03*
D21*
X043900Y009382D03*
X044570Y009382D03*
X044806Y006744D03*
X044137Y006744D03*
X037188Y009323D03*
X036519Y009323D03*
X043369Y013299D03*
X044038Y013299D03*
X037523Y018988D03*
X037523Y019658D03*
X037523Y020307D03*
X037523Y020977D03*
X034688Y020977D03*
X034688Y020307D03*
X034688Y019658D03*
X034688Y018988D03*
X013448Y010110D03*
X012778Y010110D03*
X010121Y010681D03*
X009452Y010681D03*
X008822Y010681D03*
X008152Y010681D03*
X003763Y010209D03*
X003093Y010209D03*
X008152Y013299D03*
X008152Y013969D03*
X008152Y014579D03*
X008152Y015248D03*
X009708Y016607D03*
X010377Y016607D03*
X007404Y020071D03*
X006735Y020071D03*
D22*
X006574Y015244D02*
X007014Y015244D01*
X007014Y013244D02*
X006574Y013244D01*
D23*
X005397Y013260D03*
X005397Y013929D03*
X005397Y014579D03*
X005397Y015248D03*
X002030Y017099D03*
X001361Y017099D03*
X005967Y020071D03*
X005967Y020740D03*
X014235Y015977D03*
X015042Y015977D03*
X015042Y015307D03*
X014235Y015307D03*
X008152Y012689D03*
X008152Y012020D03*
X013526Y011449D03*
X013526Y010780D03*
X014176Y010189D03*
X014845Y010189D03*
X014845Y009382D03*
X014176Y009382D03*
X014176Y008418D03*
X014845Y008418D03*
X014845Y007610D03*
X014176Y007610D03*
X030534Y009284D03*
X030534Y009953D03*
X030534Y010465D03*
X030534Y011134D03*
X030377Y012453D03*
X031046Y012453D03*
X031322Y013339D03*
X030515Y013339D03*
X030515Y014008D03*
X031322Y014008D03*
X030515Y014677D03*
X030515Y015347D03*
X030456Y016803D03*
X030456Y017473D03*
X030456Y018142D03*
X030456Y018811D03*
X030357Y019835D03*
X031026Y019835D03*
X031125Y020721D03*
X030318Y020721D03*
X030318Y021390D03*
X031125Y021390D03*
X030318Y022040D03*
X030318Y022709D03*
X035633Y020977D03*
X035633Y020307D03*
X036558Y020307D03*
X036558Y020977D03*
X036558Y019658D03*
X036558Y018988D03*
X035633Y018988D03*
X035633Y019658D03*
X033999Y018437D03*
X033330Y018437D03*
X033330Y017768D03*
X033999Y017768D03*
X045869Y015524D03*
X045869Y014855D03*
X037936Y009973D03*
X037936Y009303D03*
X037837Y006764D03*
X038822Y006764D03*
X038822Y006095D03*
X037837Y006095D03*
X036243Y006016D03*
X036243Y006685D03*
D24*
X035059Y006564D03*
X035059Y007076D03*
X038704Y008733D03*
X038704Y009244D03*
X039137Y007945D03*
X039137Y007433D03*
D25*
X039904Y007945D03*
X040652Y007945D03*
G36*
X039847Y008864D02*
X039292Y008661D01*
X039063Y009290D01*
X039618Y009493D01*
X039847Y008864D01*
G37*
G36*
X040549Y009120D02*
X039994Y008917D01*
X039765Y009546D01*
X040320Y009749D01*
X040549Y009120D01*
G37*
G36*
X039662Y009721D02*
X039459Y010276D01*
X040088Y010505D01*
X040291Y009950D01*
X039662Y009721D01*
G37*
G36*
X039406Y010424D02*
X039203Y010979D01*
X039832Y011208D01*
X040035Y010653D01*
X039406Y010424D01*
G37*
D26*
X016361Y009776D03*
X015495Y009402D03*
X015495Y010150D03*
X015495Y008378D03*
X016361Y008004D03*
X015495Y007630D03*
D27*
X025523Y008967D03*
X025523Y009467D03*
X025523Y009967D03*
X025523Y010467D03*
X025523Y010967D03*
X025523Y011467D03*
X025523Y011967D03*
X025523Y012467D03*
X025523Y012967D03*
X025523Y013467D03*
X025523Y013967D03*
X025523Y014467D03*
X025523Y014967D03*
X025523Y015467D03*
X025523Y016329D03*
X025523Y016829D03*
X025523Y017329D03*
X025523Y017829D03*
X025523Y018329D03*
X025523Y018829D03*
X025523Y019329D03*
X025523Y019829D03*
X025523Y020329D03*
X025523Y020829D03*
X025523Y021329D03*
X025523Y021829D03*
X025523Y022329D03*
X025523Y022829D03*
X029483Y022829D03*
X029483Y022329D03*
X029483Y021829D03*
X029483Y021329D03*
X029483Y020829D03*
X029483Y020329D03*
X029483Y019829D03*
X029483Y019329D03*
X029483Y018829D03*
X029483Y018329D03*
X029483Y017829D03*
X029483Y017329D03*
X029483Y016829D03*
X029483Y016329D03*
X029483Y015467D03*
X029483Y014967D03*
X029483Y014467D03*
X029483Y013967D03*
X029483Y013467D03*
X029483Y012967D03*
X029483Y012467D03*
X029483Y011967D03*
X029483Y011467D03*
X029483Y010967D03*
X029483Y010467D03*
X029483Y009967D03*
X029483Y009467D03*
X029483Y008967D03*
D28*
X020196Y015209D02*
X019416Y015209D01*
X033960Y021807D02*
X033960Y022587D01*
X038271Y022811D02*
X038271Y023591D01*
X038664Y020343D02*
X038664Y019563D01*
X006086Y007508D02*
X006086Y006728D01*
X003940Y006728D02*
X003940Y007508D01*
X001794Y007508D02*
X001794Y006728D01*
D29*
X034176Y008122D03*
X034688Y008122D03*
X034803Y007614D03*
X035315Y007614D03*
D30*
X033976Y007397D03*
X032401Y007397D03*
X032401Y006413D03*
X033976Y006413D03*
D31*
X035003Y011508D03*
X036105Y011508D03*
D32*
X006961Y011154D03*
X003832Y011154D03*
X003832Y009382D03*
X006961Y009382D03*
X004461Y017984D03*
X001332Y017984D03*
X001332Y019756D03*
X004461Y019756D03*
D33*
X035082Y021605D03*
X035082Y022105D03*
X035082Y022605D03*
X035082Y023105D03*
X037129Y023105D03*
X037129Y022605D03*
X037129Y022105D03*
X037129Y021605D03*
D34*
X037158Y017748D03*
X036902Y017748D03*
X037414Y017748D03*
X037670Y017748D03*
X035308Y017748D03*
X035052Y017748D03*
X034796Y017748D03*
X034540Y017748D03*
X034540Y016134D03*
X034796Y016134D03*
X035052Y016134D03*
X035308Y016134D03*
X036902Y016134D03*
X037158Y016134D03*
X037414Y016134D03*
X037670Y016134D03*
D35*
X039528Y018586D03*
X040028Y018586D03*
X040528Y018586D03*
X041028Y018586D03*
X041028Y021006D03*
X040528Y021006D03*
X040028Y021006D03*
X039528Y021006D03*
D36*
X039511Y022748D03*
X041243Y022748D03*
X040751Y017079D03*
X039019Y017079D03*
D37*
X044943Y016080D03*
X044943Y015170D03*
X044943Y014260D03*
X008173Y019161D03*
X008173Y020071D03*
X008173Y020981D03*
D38*
X010613Y020071D03*
X042503Y015170D03*
D39*
X033920Y016112D03*
X033172Y016112D03*
X033172Y017140D03*
X033546Y017140D03*
X033920Y017140D03*
D40*
X034334Y008969D03*
D41*
X040987Y004683D03*
D42*
X039611Y004683D03*
X042363Y004683D03*
D43*
X048579Y008181D03*
D44*
X048579Y009557D03*
X048579Y006806D03*
D45*
X035692Y017748D03*
X038054Y018083D03*
X041026Y019520D03*
X032818Y018595D03*
X023625Y022315D03*
X021715Y022335D03*
X019778Y021386D03*
X019778Y020323D03*
X019778Y019260D03*
X019778Y018410D03*
X019778Y017347D03*
X015613Y015229D03*
X015987Y014540D03*
X011007Y016626D03*
X008113Y016508D03*
X007582Y016193D03*
X013400Y019260D03*
X014251Y020359D03*
X014251Y021386D03*
X014251Y023299D03*
X019778Y023299D03*
X007660Y021725D03*
X009038Y011744D03*
X008133Y011292D03*
X006873Y007551D03*
X017621Y005012D03*
X018629Y005012D03*
X020649Y004796D03*
D46*
X006676Y004658D03*
X008645Y004658D03*
X010613Y004658D03*
X012582Y004658D03*
X014550Y004658D03*
X016519Y004658D03*
X019649Y004559D03*
X022030Y007807D03*
X023999Y007807D03*
X025574Y007807D03*
X027149Y007807D03*
X028526Y006764D03*
X031184Y006213D03*
X031184Y007394D03*
X031184Y008575D03*
X031184Y009756D03*
X031282Y010445D03*
X033448Y010957D03*
X033448Y012138D03*
X036991Y012138D03*
X038172Y012138D03*
X039294Y012138D03*
X040023Y011410D03*
X040889Y012138D03*
X041597Y011429D03*
X042326Y010701D03*
X041519Y009933D03*
X040771Y010681D03*
X038704Y010091D03*
X038015Y010603D03*
X036991Y010957D03*
X040160Y012866D03*
X041007Y013614D03*
X041656Y012965D03*
X042345Y012276D03*
X047089Y013398D03*
X048408Y015721D03*
X048408Y018083D03*
X046440Y018083D03*
X044471Y018083D03*
X042503Y017256D03*
X042109Y018437D03*
X042109Y020012D03*
X042109Y021587D03*
X042109Y023555D03*
X040534Y023555D03*
X037089Y023575D03*
X035967Y021587D03*
X033546Y021173D03*
X032759Y021173D03*
X032759Y020386D03*
X033546Y020386D03*
X033546Y019599D03*
X032759Y019599D03*
X035652Y018378D03*
X036538Y018378D03*
X036145Y017020D03*
X036105Y016134D03*
X037149Y015524D03*
X038566Y015681D03*
X040928Y015681D03*
X034235Y015622D03*
X031184Y015268D03*
X031184Y016055D03*
X031184Y016843D03*
X031912Y017630D03*
X031164Y017965D03*
X027975Y016351D03*
X027149Y016469D03*
X027582Y015445D03*
X028526Y014973D03*
X027149Y013713D03*
X028526Y013477D03*
X027149Y012532D03*
X027149Y011351D03*
X027149Y010170D03*
X027149Y008988D03*
X027975Y008988D03*
X033645Y008063D03*
X035711Y006764D03*
X038310Y006764D03*
X039747Y007236D03*
X040456Y007256D03*
X041440Y007394D03*
X041400Y006508D03*
X040574Y006508D03*
X040574Y005859D03*
X041400Y005859D03*
X042995Y006252D03*
X043487Y006764D03*
X045062Y007280D03*
X046026Y007729D03*
X047011Y007729D03*
X046420Y007000D03*
X047759Y005996D03*
X048763Y005996D03*
X047759Y004717D03*
X045692Y004540D03*
X044609Y004717D03*
X043211Y004481D03*
X043211Y005406D03*
X038763Y005445D03*
X038763Y004461D03*
X039156Y008418D03*
X040456Y008634D03*
X041479Y008595D03*
X044629Y008713D03*
X046046Y008634D03*
X047011Y008634D03*
X047916Y010406D03*
X048802Y010406D03*
X028526Y020839D03*
X027149Y021193D03*
X027149Y020012D03*
X027149Y018831D03*
X027149Y017650D03*
X031578Y021961D03*
X032759Y021961D03*
X032759Y022748D03*
X031578Y022748D03*
X028526Y022335D03*
X027582Y022847D03*
X027149Y022374D03*
X012897Y016587D03*
X011991Y015307D03*
X013054Y014736D03*
X011853Y014185D03*
X011361Y014185D03*
X010869Y014185D03*
X010377Y014185D03*
X009944Y014461D03*
X010318Y015307D03*
X008133Y015799D03*
X006361Y013792D03*
X001952Y013319D03*
X001952Y011351D03*
X001952Y009382D03*
X005928Y011154D03*
X007463Y008733D03*
X011499Y009244D03*
X015337Y010957D03*
X014097Y011292D03*
X016519Y010957D03*
X018408Y011784D03*
X020456Y012138D03*
X018487Y013103D03*
X017975Y013103D03*
X016361Y008733D03*
X001952Y015288D03*
X001952Y021193D03*
D47*
X036400Y008378D03*
X036735Y008378D03*
X037070Y008378D03*
X037404Y008378D03*
X037404Y008044D03*
X037070Y008044D03*
X036735Y008044D03*
X036400Y008044D03*
X036400Y007709D03*
X036735Y007709D03*
X037070Y007709D03*
X037404Y007709D03*
X043172Y007866D03*
X043566Y007866D03*
X043566Y008260D03*
X043192Y008260D03*
D48*
X035987Y009244D03*
X035534Y009166D03*
X035475Y008752D03*
X035652Y006016D03*
M02*
