G75*
G70*
%OFA0B0*%
%FSLAX24Y24*%
%IPPOS*%
%LPD*%
%AMOC8*
5,1,8,0,0,1.08239X$1,22.5*
%
%ADD10C,0.0600*%
%ADD11C,0.0440*%
%ADD12C,0.0780*%
%ADD13R,0.0394X0.0433*%
%ADD14R,0.0433X0.0394*%
%ADD15R,0.1050X0.1650*%
%ADD16R,0.1650X0.1050*%
%ADD17C,0.0100*%
%ADD18C,0.0396*%
%ADD19C,0.0357*%
%ADD20C,0.0120*%
%ADD21C,0.0240*%
%ADD22C,0.0400*%
%ADD23C,0.0160*%
%ADD24C,0.0320*%
%ADD25C,0.0278*%
%ADD26C,0.0317*%
D10*
X009334Y007417D02*
X009334Y008017D01*
X010334Y008017D02*
X010334Y007417D01*
X011334Y007417D02*
X011334Y008017D01*
X012334Y008017D02*
X012334Y007417D01*
X017649Y009779D02*
X017649Y010379D01*
X018649Y010379D02*
X018649Y009779D01*
X019649Y009779D02*
X019649Y010379D01*
X020649Y010379D02*
X020649Y009779D01*
X022400Y009717D02*
X023000Y009717D01*
X023000Y010717D02*
X022400Y010717D01*
X022400Y011717D02*
X023000Y011717D01*
X023000Y012717D02*
X022400Y012717D01*
X022400Y013717D02*
X023000Y013717D01*
X023000Y014717D02*
X022400Y014717D01*
X022400Y015717D02*
X023000Y015717D01*
X023000Y016827D02*
X022400Y016827D01*
X022400Y017827D02*
X023000Y017827D01*
X023000Y018827D02*
X022400Y018827D01*
X022400Y019827D02*
X023000Y019827D01*
X023000Y020827D02*
X022400Y020827D01*
X022400Y021827D02*
X023000Y021827D01*
X023000Y022827D02*
X022400Y022827D01*
X022400Y023827D02*
X023000Y023827D01*
X016141Y017910D02*
X016141Y017310D01*
X015141Y017310D02*
X015141Y017910D01*
X014141Y017910D02*
X014141Y017310D01*
X007924Y017625D02*
X007924Y018225D01*
X006924Y018225D02*
X006924Y017625D01*
X004134Y017087D02*
X003534Y017087D01*
X003534Y016087D02*
X004134Y016087D01*
X004134Y015087D02*
X003534Y015087D01*
X003534Y014087D02*
X004134Y014087D01*
X004134Y013087D02*
X003534Y013087D01*
X003534Y012087D02*
X004134Y012087D01*
X003767Y020949D02*
X003167Y020949D01*
X004585Y020949D02*
X005185Y020949D01*
X005185Y021949D02*
X004585Y021949D01*
X003767Y021949D02*
X003167Y021949D01*
X005920Y022881D02*
X005920Y023481D01*
X006920Y023481D02*
X006920Y022881D01*
X033935Y014626D02*
X034535Y014626D01*
X035254Y014626D02*
X035854Y014626D01*
X037026Y014626D02*
X037626Y014626D01*
X038345Y014626D02*
X038945Y014626D01*
X038945Y013626D02*
X038345Y013626D01*
X037626Y013626D02*
X037026Y013626D01*
X035854Y013626D02*
X035254Y013626D01*
X034535Y013626D02*
X033935Y013626D01*
X043164Y012517D02*
X043164Y011917D01*
X044164Y011917D02*
X044164Y012517D01*
X045467Y012517D02*
X045467Y011917D01*
X046467Y011917D02*
X046467Y012517D01*
X046553Y014788D02*
X047153Y014788D01*
X047153Y015788D02*
X046553Y015788D01*
X023000Y008717D02*
X022400Y008717D01*
D11*
X007014Y013244D02*
X006574Y013244D01*
X006574Y015244D02*
X007014Y015244D01*
D12*
X019416Y015209D02*
X020196Y015209D01*
X033960Y021807D02*
X033960Y022587D01*
X038271Y022811D02*
X038271Y023591D01*
X038664Y020343D02*
X038664Y019563D01*
X006086Y007508D02*
X006086Y006728D01*
X003940Y006728D02*
X003940Y007508D01*
X001794Y007508D02*
X001794Y006728D01*
D13*
X034393Y009166D03*
X035062Y009166D03*
D14*
X035042Y008299D03*
X034373Y008299D03*
D15*
X039611Y004683D03*
X042363Y004683D03*
D16*
X048579Y006806D03*
X048579Y009557D03*
D17*
X038310Y006764D02*
X035711Y006764D01*
X033113Y006764D02*
X033054Y006823D01*
X028526Y006764D02*
X028310Y006764D01*
X034393Y009166D02*
X034511Y009284D01*
X034393Y009166D02*
X034412Y009146D01*
X035062Y009166D02*
X035534Y009166D01*
X027975Y014225D02*
X015987Y014225D01*
X015987Y014540D01*
X015613Y015229D02*
X019806Y015229D01*
X019806Y015209D01*
X027582Y015209D01*
X027582Y015445D01*
X027582Y015229D01*
X027975Y014894D02*
X027975Y014225D01*
X021873Y014028D02*
X012011Y014028D01*
X011853Y014185D01*
X011715Y013831D02*
X011361Y014185D01*
X010869Y014185D02*
X011420Y013634D01*
X021400Y013634D01*
X021164Y013437D02*
X011145Y013418D01*
X010377Y014185D01*
X011715Y013831D02*
X021637Y013831D01*
X017621Y010551D02*
X017621Y005012D01*
X018629Y005012D02*
X018649Y010079D01*
X019649Y010079D02*
X019649Y004559D01*
X020649Y004796D02*
X020649Y010079D01*
X017649Y010079D02*
X017621Y010551D01*
X014511Y009244D02*
X011499Y009244D01*
X014511Y009244D02*
X014511Y013083D01*
D18*
X015987Y014540D03*
X015613Y015229D03*
X019778Y017347D03*
X019778Y018410D03*
X019778Y019260D03*
X019778Y020323D03*
X019778Y021386D03*
X021715Y022335D03*
X023625Y022315D03*
X019778Y023299D03*
X014251Y023299D03*
X014251Y021386D03*
X014251Y020359D03*
X013400Y019260D03*
X011007Y016626D03*
X008113Y016508D03*
X007582Y016193D03*
X009038Y011744D03*
X008133Y011292D03*
X006873Y007551D03*
X017621Y005012D03*
X018629Y005012D03*
X020649Y004796D03*
X035692Y017748D03*
X038054Y018083D03*
X041026Y019520D03*
X032818Y018595D03*
X007660Y021725D03*
D19*
X001952Y021193D03*
X008133Y015799D03*
X010318Y015307D03*
X009944Y014461D03*
X010377Y014185D03*
X010869Y014185D03*
X011361Y014185D03*
X011853Y014185D03*
X013054Y014736D03*
X011991Y015307D03*
X012897Y016587D03*
X006361Y013792D03*
X001952Y013319D03*
X001952Y011351D03*
X001952Y009382D03*
X005928Y011154D03*
X007463Y008733D03*
X011499Y009244D03*
X015337Y010957D03*
X014097Y011292D03*
X016519Y010957D03*
X018408Y011784D03*
X020456Y012138D03*
X018487Y013103D03*
X017975Y013103D03*
X016361Y008733D03*
X022030Y007807D03*
X023999Y007807D03*
X025574Y007807D03*
X027149Y007807D03*
X028526Y006764D03*
X031184Y006213D03*
X031184Y007394D03*
X031184Y008575D03*
X031184Y009756D03*
X031282Y010445D03*
X033448Y010957D03*
X033448Y012138D03*
X036991Y012138D03*
X038172Y012138D03*
X039294Y012138D03*
X040023Y011410D03*
X040889Y012138D03*
X041597Y011429D03*
X042326Y010701D03*
X041519Y009933D03*
X040771Y010681D03*
X038704Y010091D03*
X038015Y010603D03*
X036991Y010957D03*
X040160Y012866D03*
X041007Y013614D03*
X041656Y012965D03*
X042345Y012276D03*
X047089Y013398D03*
X048408Y015721D03*
X048408Y018083D03*
X046440Y018083D03*
X044471Y018083D03*
X042503Y017256D03*
X042109Y018437D03*
X042109Y020012D03*
X042109Y021587D03*
X042109Y023555D03*
X040534Y023555D03*
X037089Y023575D03*
X035967Y021587D03*
X033546Y021173D03*
X032759Y021173D03*
X032759Y020386D03*
X033546Y020386D03*
X033546Y019599D03*
X032759Y019599D03*
X035652Y018378D03*
X036538Y018378D03*
X036145Y017020D03*
X036105Y016134D03*
X037149Y015524D03*
X038566Y015681D03*
X040928Y015681D03*
X034235Y015622D03*
X031184Y015268D03*
X031184Y016055D03*
X031184Y016843D03*
X031912Y017630D03*
X031164Y017965D03*
X027975Y016351D03*
X027149Y016469D03*
X027582Y015445D03*
X028526Y014973D03*
X027149Y013713D03*
X028526Y013477D03*
X027149Y012532D03*
X027149Y011351D03*
X027149Y010170D03*
X027149Y008988D03*
X027975Y008988D03*
X033645Y008063D03*
X035711Y006764D03*
X038310Y006764D03*
X039747Y007236D03*
X040456Y007256D03*
X041440Y007394D03*
X041400Y006508D03*
X040574Y006508D03*
X040574Y005859D03*
X041400Y005859D03*
X042995Y006252D03*
X043487Y006764D03*
X045062Y007280D03*
X046026Y007729D03*
X047011Y007729D03*
X046420Y007000D03*
X047759Y005996D03*
X048763Y005996D03*
X047759Y004717D03*
X045692Y004540D03*
X044609Y004717D03*
X043211Y004481D03*
X043211Y005406D03*
X038763Y005445D03*
X038763Y004461D03*
X039156Y008418D03*
X040456Y008634D03*
X041479Y008595D03*
X044629Y008713D03*
X046046Y008634D03*
X047011Y008634D03*
X047916Y010406D03*
X048802Y010406D03*
X028526Y020839D03*
X027149Y021193D03*
X027149Y020012D03*
X027149Y018831D03*
X027149Y017650D03*
X031578Y021961D03*
X032759Y021961D03*
X032759Y022748D03*
X031578Y022748D03*
X028526Y022335D03*
X027582Y022847D03*
X027149Y022374D03*
X001952Y015288D03*
X006676Y004658D03*
X008645Y004658D03*
X010613Y004658D03*
X012582Y004658D03*
X014550Y004658D03*
X016519Y004658D03*
X019649Y004559D03*
D20*
X021164Y008717D02*
X021164Y013437D01*
X021400Y013634D02*
X021400Y009717D01*
X022700Y009717D01*
X022700Y010717D02*
X021637Y010717D01*
X021637Y013831D01*
X021873Y014028D02*
X021873Y011705D01*
X022700Y011705D01*
X022700Y011717D01*
X018487Y011784D02*
X018408Y011784D01*
X018487Y011784D02*
X018487Y013103D01*
X017975Y013103D02*
X017975Y013083D01*
X014511Y013083D01*
X013054Y014736D02*
X013015Y014736D01*
X013015Y015799D01*
X008133Y015799D01*
X008113Y016508D02*
X011007Y016508D01*
X011007Y016626D01*
X012897Y016587D02*
X012897Y017040D01*
X004924Y017040D01*
X004924Y016587D01*
X002857Y016587D01*
X002857Y013087D01*
X003834Y013087D01*
X005928Y013792D02*
X005928Y011154D01*
X006873Y011744D02*
X006873Y007551D01*
X006873Y011744D02*
X009038Y011744D01*
X006361Y013792D02*
X005928Y013792D01*
X005928Y016087D01*
X003834Y016087D01*
X012897Y016567D02*
X012897Y016587D01*
X027582Y015445D02*
X027582Y022847D01*
X028526Y022335D02*
X028526Y022329D01*
X034806Y018595D02*
X034806Y018536D01*
X035318Y017748D02*
X035318Y015071D01*
X035554Y015071D01*
X035554Y014626D01*
X037660Y015071D02*
X038645Y015071D01*
X038645Y014626D01*
X037660Y015071D02*
X037660Y018083D01*
X038054Y018083D01*
X035692Y017748D02*
X035318Y017748D01*
X027975Y016351D02*
X027975Y014894D01*
X027975Y008988D01*
X033054Y009402D02*
X033054Y006823D01*
X033054Y009402D02*
X033743Y010091D01*
X038704Y010091D01*
X022700Y008717D02*
X021164Y008717D01*
D21*
X014097Y011292D02*
X009944Y011292D01*
X008133Y011292D01*
X009944Y011292D02*
X009944Y014461D01*
X010318Y015307D02*
X011991Y015307D01*
X028526Y017965D02*
X031164Y017965D01*
X034806Y018536D02*
X034806Y018811D01*
X037149Y018811D01*
X037149Y018772D01*
X041026Y018772D01*
X041026Y019520D01*
X038664Y019953D02*
X035967Y019953D01*
X035967Y021587D01*
X037089Y023575D02*
X028526Y023575D01*
X028526Y023359D01*
X037149Y018772D02*
X037149Y015524D01*
X036440Y016134D02*
X036105Y016134D01*
X031282Y010445D02*
X028526Y010445D01*
D22*
X028526Y006764D01*
X028526Y010445D02*
X028526Y013477D01*
X028526Y014973D01*
X028526Y017965D01*
X028526Y020839D01*
X028526Y022329D01*
X028526Y022335D02*
X028546Y022335D01*
X028526Y022335D02*
X028526Y023359D01*
X023920Y023319D01*
X023920Y022315D01*
X023625Y022315D01*
X023645Y022315D01*
X021715Y022335D02*
X006904Y022335D01*
X006905Y022138D01*
X006920Y022138D01*
X006920Y023181D01*
X006905Y022138D02*
X006924Y017925D01*
X014137Y018733D02*
X014137Y019244D01*
X016361Y008733D02*
X007463Y008733D01*
D23*
X000955Y004331D02*
X000955Y022891D01*
X000965Y022874D01*
X001172Y022667D01*
X001425Y022521D01*
X001707Y022445D01*
X001999Y022445D01*
X002282Y022521D01*
X002535Y022667D01*
X002741Y022874D01*
X002888Y023127D01*
X002963Y023409D01*
X002963Y023701D01*
X002888Y023984D01*
X002741Y024237D01*
X002682Y024296D01*
X022120Y024296D01*
X022094Y024285D01*
X021942Y024133D01*
X021860Y023934D01*
X021860Y023720D01*
X021942Y023521D01*
X022094Y023369D01*
X022196Y023327D01*
X022094Y023285D01*
X021942Y023133D01*
X021860Y022934D01*
X021860Y022751D01*
X021803Y022775D01*
X007460Y022775D01*
X007460Y023589D01*
X007378Y023787D01*
X007226Y023939D01*
X007028Y024021D01*
X006813Y024021D01*
X006614Y023939D01*
X006462Y023787D01*
X006386Y023602D01*
X006365Y023666D01*
X006331Y023733D01*
X006286Y023794D01*
X006233Y023847D01*
X006172Y023892D01*
X006104Y023926D01*
X006033Y023950D01*
X005958Y023961D01*
X005940Y023961D01*
X005940Y023201D01*
X005900Y023201D01*
X005900Y023161D01*
X005940Y023161D01*
X005940Y022401D01*
X005958Y022401D01*
X006033Y022413D01*
X006104Y022437D01*
X006172Y022471D01*
X006233Y022515D01*
X006286Y022569D01*
X006331Y022630D01*
X006365Y022697D01*
X006386Y022761D01*
X006462Y022575D01*
X006480Y022558D01*
X006480Y022460D01*
X006464Y022422D01*
X006464Y022421D01*
X006464Y022420D01*
X006464Y022334D01*
X006464Y022247D01*
X006465Y022246D01*
X006465Y022224D01*
X006465Y022149D01*
X006465Y022137D01*
X006465Y022051D01*
X006466Y022050D01*
X006466Y022049D01*
X006481Y018546D01*
X006466Y018531D01*
X006384Y018333D01*
X006384Y017518D01*
X006458Y017340D01*
X004864Y017340D01*
X004754Y017294D01*
X004670Y017210D01*
X004668Y017206D01*
X004591Y017393D01*
X004439Y017545D01*
X004241Y017627D01*
X003426Y017627D01*
X003228Y017545D01*
X003076Y017393D01*
X002994Y017194D01*
X002994Y016979D01*
X003032Y016887D01*
X002797Y016887D01*
X002687Y016841D01*
X002603Y016757D01*
X002557Y016647D01*
X002557Y013027D01*
X002603Y012917D01*
X002687Y012833D01*
X002797Y012787D01*
X003073Y012787D01*
X003076Y012781D01*
X003228Y012629D01*
X003330Y012587D01*
X003228Y012545D01*
X003076Y012393D01*
X002994Y012194D01*
X002994Y011979D01*
X003076Y011781D01*
X003228Y011629D01*
X003426Y011547D01*
X004241Y011547D01*
X004439Y011629D01*
X004591Y011781D01*
X004674Y011979D01*
X004674Y012194D01*
X004591Y012393D01*
X004439Y012545D01*
X004338Y012587D01*
X004439Y012629D01*
X004591Y012781D01*
X004674Y012979D01*
X004674Y013194D01*
X004591Y013393D01*
X004439Y013545D01*
X004254Y013621D01*
X004318Y013642D01*
X004385Y013676D01*
X004446Y013721D01*
X004500Y013774D01*
X004544Y013835D01*
X004578Y013903D01*
X004602Y013974D01*
X004614Y014049D01*
X004614Y014067D01*
X003854Y014067D01*
X003854Y014107D01*
X004614Y014107D01*
X004614Y014125D01*
X004602Y014199D01*
X004578Y014271D01*
X004544Y014338D01*
X004500Y014400D01*
X004446Y014453D01*
X004385Y014497D01*
X004318Y014532D01*
X004254Y014552D01*
X004439Y014629D01*
X004591Y014781D01*
X004674Y014979D01*
X004674Y015194D01*
X004591Y015393D01*
X004439Y015545D01*
X004338Y015587D01*
X004439Y015629D01*
X004591Y015781D01*
X004594Y015787D01*
X005628Y015787D01*
X005628Y011446D01*
X005573Y011391D01*
X005510Y011237D01*
X005510Y011071D01*
X005573Y010917D01*
X005691Y010799D01*
X005845Y010735D01*
X006011Y010735D01*
X006165Y010799D01*
X006283Y010917D01*
X006346Y011071D01*
X006346Y011237D01*
X006283Y011391D01*
X006228Y011446D01*
X006228Y012940D01*
X006314Y012854D01*
X006483Y012784D01*
X007106Y012784D01*
X007275Y012854D01*
X007404Y012984D01*
X007474Y013153D01*
X007474Y013336D01*
X007404Y013505D01*
X007275Y013634D01*
X007106Y013704D01*
X006778Y013704D01*
X006780Y013708D01*
X006780Y013875D01*
X006716Y014029D01*
X006598Y014146D01*
X006444Y014210D01*
X006278Y014210D01*
X006228Y014189D01*
X006228Y014940D01*
X006314Y014854D01*
X006483Y014784D01*
X007106Y014784D01*
X007182Y014816D01*
X007182Y014381D01*
X007242Y014234D01*
X007355Y014122D01*
X007502Y014061D01*
X009584Y014061D01*
X009584Y011652D01*
X009474Y011652D01*
X009476Y011657D01*
X009476Y011831D01*
X009410Y011993D01*
X009286Y012116D01*
X009125Y012182D01*
X008951Y012182D01*
X008790Y012116D01*
X008719Y012044D01*
X006813Y012044D01*
X006703Y011999D01*
X006619Y011914D01*
X006573Y011804D01*
X006573Y007871D01*
X006546Y007844D01*
X006520Y007880D01*
X006457Y007943D01*
X006384Y007996D01*
X006304Y008037D01*
X006219Y008064D01*
X006136Y008078D01*
X006136Y007168D01*
X006653Y007168D01*
X006786Y007113D01*
X006960Y007113D01*
X007121Y007180D01*
X007244Y007303D01*
X007311Y007464D01*
X007311Y007639D01*
X007244Y007800D01*
X007173Y007871D01*
X007173Y011444D01*
X007722Y011444D01*
X007695Y011379D01*
X007695Y011204D01*
X007761Y011043D01*
X007885Y010920D01*
X008046Y010853D01*
X008220Y010853D01*
X008381Y010920D01*
X008392Y010932D01*
X013873Y010932D01*
X014014Y010873D01*
X014181Y010873D01*
X014221Y010890D01*
X014221Y009534D01*
X011801Y009534D01*
X011736Y009599D01*
X011582Y009663D01*
X011416Y009663D01*
X011262Y009599D01*
X011144Y009481D01*
X011080Y009328D01*
X011080Y009161D01*
X011144Y009007D01*
X011262Y008890D01*
X011416Y008826D01*
X011582Y008826D01*
X011736Y008890D01*
X011801Y008954D01*
X014568Y008954D01*
X014675Y008998D01*
X014757Y009080D01*
X014801Y009187D01*
X014801Y012783D01*
X017703Y012783D01*
X017738Y012748D01*
X017892Y012684D01*
X018059Y012684D01*
X018187Y012737D01*
X018187Y012145D01*
X018171Y012138D01*
X018054Y012021D01*
X017990Y011867D01*
X017990Y011700D01*
X018054Y011547D01*
X018171Y011429D01*
X018325Y011365D01*
X018492Y011365D01*
X018645Y011429D01*
X018763Y011547D01*
X018827Y011700D01*
X018827Y011867D01*
X018787Y011963D01*
X018787Y012811D01*
X018842Y012866D01*
X018906Y013019D01*
X018906Y013143D01*
X020864Y013147D01*
X020864Y010874D01*
X020756Y010919D01*
X020541Y010919D01*
X020343Y010837D01*
X020191Y010685D01*
X020149Y010583D01*
X020106Y010685D01*
X019954Y010837D01*
X019756Y010919D01*
X019541Y010919D01*
X019343Y010837D01*
X019191Y010685D01*
X019149Y010583D01*
X019106Y010685D01*
X018954Y010837D01*
X018756Y010919D01*
X018541Y010919D01*
X018343Y010837D01*
X018191Y010685D01*
X018149Y010583D01*
X018106Y010685D01*
X017954Y010837D01*
X017756Y010919D01*
X017541Y010919D01*
X017343Y010837D01*
X017191Y010685D01*
X017109Y010486D01*
X017109Y009672D01*
X017191Y009473D01*
X017331Y009333D01*
X017331Y005342D01*
X017250Y005260D01*
X017183Y005099D01*
X017183Y004925D01*
X017250Y004764D01*
X017373Y004641D01*
X017534Y004574D01*
X017708Y004574D01*
X017869Y004641D01*
X017992Y004764D01*
X018059Y004925D01*
X018059Y005099D01*
X017992Y005260D01*
X017911Y005342D01*
X017911Y009303D01*
X017954Y009321D01*
X018106Y009473D01*
X018149Y009575D01*
X018191Y009473D01*
X018343Y009321D01*
X018356Y009316D01*
X018340Y005343D01*
X018257Y005260D01*
X018191Y005099D01*
X018191Y004925D01*
X018257Y004764D01*
X018381Y004641D01*
X018542Y004574D01*
X018716Y004574D01*
X018877Y004641D01*
X019000Y004764D01*
X019067Y004925D01*
X019067Y005099D01*
X019000Y005260D01*
X018920Y005340D01*
X018936Y009313D01*
X018954Y009321D01*
X019106Y009473D01*
X019149Y009575D01*
X019191Y009473D01*
X019343Y009321D01*
X019359Y009315D01*
X019359Y004861D01*
X019294Y004796D01*
X019230Y004643D01*
X018879Y004643D01*
X019016Y004802D02*
X019299Y004802D01*
X019359Y004960D02*
X019067Y004960D01*
X019059Y005119D02*
X019359Y005119D01*
X019359Y005277D02*
X018983Y005277D01*
X018920Y005436D02*
X019359Y005436D01*
X019359Y005594D02*
X018921Y005594D01*
X018922Y005753D02*
X019359Y005753D01*
X019359Y005911D02*
X018922Y005911D01*
X018923Y006070D02*
X019359Y006070D01*
X019359Y006228D02*
X018924Y006228D01*
X018924Y006387D02*
X019359Y006387D01*
X019359Y006545D02*
X018925Y006545D01*
X018925Y006704D02*
X019359Y006704D01*
X019359Y006862D02*
X018926Y006862D01*
X018927Y007021D02*
X019359Y007021D01*
X019359Y007179D02*
X018927Y007179D01*
X018928Y007338D02*
X019359Y007338D01*
X019359Y007496D02*
X018928Y007496D01*
X018929Y007655D02*
X019359Y007655D01*
X019359Y007813D02*
X018930Y007813D01*
X018930Y007972D02*
X019359Y007972D01*
X019359Y008130D02*
X018931Y008130D01*
X018932Y008289D02*
X019359Y008289D01*
X019359Y008447D02*
X018932Y008447D01*
X018933Y008606D02*
X019359Y008606D01*
X019359Y008764D02*
X018933Y008764D01*
X018934Y008923D02*
X019359Y008923D01*
X019359Y009081D02*
X018935Y009081D01*
X018935Y009240D02*
X019359Y009240D01*
X019266Y009398D02*
X019031Y009398D01*
X019141Y009557D02*
X019156Y009557D01*
X018355Y009240D02*
X017911Y009240D01*
X017911Y009081D02*
X018355Y009081D01*
X018354Y008923D02*
X017911Y008923D01*
X017911Y008764D02*
X018353Y008764D01*
X018353Y008606D02*
X017911Y008606D01*
X017911Y008447D02*
X018352Y008447D01*
X018352Y008289D02*
X017911Y008289D01*
X017911Y008130D02*
X018351Y008130D01*
X018350Y007972D02*
X017911Y007972D01*
X017911Y007813D02*
X018350Y007813D01*
X018349Y007655D02*
X017911Y007655D01*
X017911Y007496D02*
X018348Y007496D01*
X018348Y007338D02*
X017911Y007338D01*
X017911Y007179D02*
X018347Y007179D01*
X018347Y007021D02*
X017911Y007021D01*
X017911Y006862D02*
X018346Y006862D01*
X018345Y006704D02*
X017911Y006704D01*
X017911Y006545D02*
X018345Y006545D01*
X018344Y006387D02*
X017911Y006387D01*
X017911Y006228D02*
X018344Y006228D01*
X018343Y006070D02*
X017911Y006070D01*
X017911Y005911D02*
X018342Y005911D01*
X018342Y005753D02*
X017911Y005753D01*
X017911Y005594D02*
X018341Y005594D01*
X018340Y005436D02*
X017911Y005436D01*
X017975Y005277D02*
X018274Y005277D01*
X018199Y005119D02*
X018051Y005119D01*
X018059Y004960D02*
X018191Y004960D01*
X018242Y004802D02*
X018008Y004802D01*
X017872Y004643D02*
X018378Y004643D01*
X019230Y004643D02*
X019230Y004476D01*
X019290Y004331D01*
X003155Y004331D01*
X003293Y004468D01*
X003439Y004721D01*
X003514Y005004D01*
X003514Y005296D01*
X003439Y005578D01*
X003293Y005831D01*
X003086Y006038D01*
X002833Y006184D01*
X002551Y006260D01*
X002258Y006260D01*
X001976Y006184D01*
X001723Y006038D01*
X001516Y005831D01*
X001370Y005578D01*
X001294Y005296D01*
X001294Y005004D01*
X001370Y004721D01*
X001516Y004468D01*
X001654Y004331D01*
X000955Y004331D01*
X000955Y004485D02*
X001507Y004485D01*
X001415Y004643D02*
X000955Y004643D01*
X000955Y004802D02*
X001349Y004802D01*
X001306Y004960D02*
X000955Y004960D01*
X000955Y005119D02*
X001294Y005119D01*
X001294Y005277D02*
X000955Y005277D01*
X000955Y005436D02*
X001332Y005436D01*
X001379Y005594D02*
X000955Y005594D01*
X000955Y005753D02*
X001471Y005753D01*
X001596Y005911D02*
X000955Y005911D01*
X000955Y006070D02*
X001778Y006070D01*
X001744Y006159D02*
X001744Y007068D01*
X001844Y007068D01*
X001844Y006159D01*
X001928Y006172D01*
X002013Y006200D01*
X002093Y006241D01*
X002166Y006294D01*
X002229Y006357D01*
X002282Y006430D01*
X002322Y006510D01*
X002350Y006595D01*
X002364Y006683D01*
X002364Y007068D01*
X001844Y007068D01*
X001844Y007168D01*
X002364Y007168D01*
X002364Y007553D01*
X002350Y007642D01*
X002322Y007727D01*
X002282Y007807D01*
X002229Y007880D01*
X002166Y007943D01*
X002093Y007996D01*
X002013Y008037D01*
X001928Y008064D01*
X001844Y008078D01*
X001844Y007168D01*
X001744Y007168D01*
X001744Y007068D01*
X001224Y007068D01*
X001224Y006683D01*
X001238Y006595D01*
X001266Y006510D01*
X001307Y006430D01*
X001359Y006357D01*
X001423Y006294D01*
X001495Y006241D01*
X001575Y006200D01*
X001661Y006172D01*
X001744Y006159D01*
X001744Y006228D02*
X001844Y006228D01*
X001844Y006387D02*
X001744Y006387D01*
X001744Y006545D02*
X001844Y006545D01*
X001844Y006704D02*
X001744Y006704D01*
X001744Y006862D02*
X001844Y006862D01*
X001844Y007021D02*
X001744Y007021D01*
X001744Y007168D02*
X001224Y007168D01*
X001224Y007553D01*
X001238Y007642D01*
X001266Y007727D01*
X001307Y007807D01*
X001359Y007880D01*
X001423Y007943D01*
X001495Y007996D01*
X001575Y008037D01*
X001661Y008064D01*
X001744Y008078D01*
X001744Y007168D01*
X001744Y007179D02*
X001844Y007179D01*
X001844Y007338D02*
X001744Y007338D01*
X001744Y007496D02*
X001844Y007496D01*
X001844Y007655D02*
X001744Y007655D01*
X001744Y007813D02*
X001844Y007813D01*
X001844Y007972D02*
X001744Y007972D01*
X001462Y007972D02*
X000955Y007972D01*
X000955Y008130D02*
X006573Y008130D01*
X006573Y007972D02*
X006418Y007972D01*
X006136Y007972D02*
X006036Y007972D01*
X006036Y008078D02*
X005952Y008064D01*
X005867Y008037D01*
X005787Y007996D01*
X005714Y007943D01*
X005651Y007880D01*
X005598Y007807D01*
X005557Y007727D01*
X005530Y007642D01*
X005516Y007553D01*
X005516Y007168D01*
X006036Y007168D01*
X006036Y007068D01*
X006136Y007068D01*
X006136Y007168D01*
X006036Y007168D01*
X006036Y008078D01*
X006036Y007813D02*
X006136Y007813D01*
X006136Y007655D02*
X006036Y007655D01*
X006036Y007496D02*
X006136Y007496D01*
X006136Y007338D02*
X006036Y007338D01*
X006036Y007179D02*
X006136Y007179D01*
X006136Y007068D02*
X006656Y007068D01*
X006656Y006683D01*
X006641Y006595D01*
X006614Y006510D01*
X006573Y006430D01*
X006520Y006357D01*
X006457Y006294D01*
X006384Y006241D01*
X006304Y006200D01*
X006219Y006172D01*
X006136Y006159D01*
X006136Y007068D01*
X006136Y007021D02*
X006036Y007021D01*
X006036Y007068D02*
X006036Y006159D01*
X005952Y006172D01*
X005867Y006200D01*
X005787Y006241D01*
X005714Y006294D01*
X005651Y006357D01*
X005598Y006430D01*
X005557Y006510D01*
X005530Y006595D01*
X005516Y006683D01*
X005516Y007068D01*
X006036Y007068D01*
X006036Y006862D02*
X006136Y006862D01*
X006136Y006704D02*
X006036Y006704D01*
X006036Y006545D02*
X006136Y006545D01*
X006136Y006387D02*
X006036Y006387D01*
X006036Y006228D02*
X006136Y006228D01*
X006359Y006228D02*
X017331Y006228D01*
X017331Y006070D02*
X003031Y006070D01*
X003213Y005911D02*
X017331Y005911D01*
X017331Y005753D02*
X003338Y005753D01*
X003430Y005594D02*
X017331Y005594D01*
X017331Y005436D02*
X003477Y005436D01*
X003514Y005277D02*
X017266Y005277D01*
X017191Y005119D02*
X003514Y005119D01*
X003503Y004960D02*
X017183Y004960D01*
X017234Y004802D02*
X003460Y004802D01*
X003393Y004643D02*
X017370Y004643D01*
X019230Y004485D02*
X003302Y004485D01*
X003806Y006172D02*
X003721Y006200D01*
X003641Y006241D01*
X003569Y006294D01*
X003505Y006357D01*
X003452Y006430D01*
X003412Y006510D01*
X003384Y006595D01*
X003370Y006683D01*
X003370Y007068D01*
X003890Y007068D01*
X003990Y007068D01*
X003990Y006159D01*
X004073Y006172D01*
X004159Y006200D01*
X004239Y006241D01*
X004311Y006294D01*
X004375Y006357D01*
X004427Y006430D01*
X004468Y006510D01*
X004496Y006595D01*
X004510Y006683D01*
X004510Y007068D01*
X003990Y007068D01*
X003990Y007168D01*
X004510Y007168D01*
X004510Y007553D01*
X004496Y007642D01*
X004468Y007727D01*
X004427Y007807D01*
X004375Y007880D01*
X004311Y007943D01*
X004239Y007996D01*
X004159Y008037D01*
X004073Y008064D01*
X003990Y008078D01*
X003990Y007168D01*
X003890Y007168D01*
X003890Y007068D01*
X003890Y006159D01*
X003806Y006172D01*
X003890Y006228D02*
X003990Y006228D01*
X003990Y006387D02*
X003890Y006387D01*
X003890Y006545D02*
X003990Y006545D01*
X003990Y006704D02*
X003890Y006704D01*
X003890Y006862D02*
X003990Y006862D01*
X003990Y007021D02*
X003890Y007021D01*
X003890Y007168D02*
X003370Y007168D01*
X003370Y007553D01*
X003384Y007642D01*
X003412Y007727D01*
X003452Y007807D01*
X003505Y007880D01*
X003569Y007943D01*
X003641Y007996D01*
X003721Y008037D01*
X003806Y008064D01*
X003890Y008078D01*
X003890Y007168D01*
X003890Y007179D02*
X003990Y007179D01*
X003990Y007338D02*
X003890Y007338D01*
X003890Y007496D02*
X003990Y007496D01*
X003990Y007655D02*
X003890Y007655D01*
X003890Y007813D02*
X003990Y007813D01*
X003990Y007972D02*
X003890Y007972D01*
X003608Y007972D02*
X002126Y007972D01*
X002277Y007813D02*
X003457Y007813D01*
X003388Y007655D02*
X002346Y007655D01*
X002364Y007496D02*
X003370Y007496D01*
X003370Y007338D02*
X002364Y007338D01*
X002364Y007179D02*
X003370Y007179D01*
X003370Y007021D02*
X002364Y007021D01*
X002364Y006862D02*
X003370Y006862D01*
X003370Y006704D02*
X002364Y006704D01*
X002334Y006545D02*
X003400Y006545D01*
X003484Y006387D02*
X002250Y006387D01*
X002140Y006228D02*
X002068Y006228D01*
X001520Y006228D02*
X000955Y006228D01*
X000955Y006387D02*
X001338Y006387D01*
X001254Y006545D02*
X000955Y006545D01*
X000955Y006704D02*
X001224Y006704D01*
X001224Y006862D02*
X000955Y006862D01*
X000955Y007021D02*
X001224Y007021D01*
X001224Y007179D02*
X000955Y007179D01*
X000955Y007338D02*
X001224Y007338D01*
X001224Y007496D02*
X000955Y007496D01*
X000955Y007655D02*
X001242Y007655D01*
X001311Y007813D02*
X000955Y007813D01*
X000955Y008289D02*
X006573Y008289D01*
X006573Y008447D02*
X000955Y008447D01*
X000955Y008606D02*
X006573Y008606D01*
X006573Y008764D02*
X000955Y008764D01*
X000955Y008923D02*
X006573Y008923D01*
X006573Y009081D02*
X000955Y009081D01*
X000955Y009240D02*
X006573Y009240D01*
X006573Y009398D02*
X000955Y009398D01*
X000955Y009557D02*
X006573Y009557D01*
X006573Y009715D02*
X000955Y009715D01*
X000955Y009874D02*
X006573Y009874D01*
X006573Y010032D02*
X000955Y010032D01*
X000955Y010191D02*
X006573Y010191D01*
X006573Y010349D02*
X000955Y010349D01*
X000955Y010508D02*
X006573Y010508D01*
X006573Y010666D02*
X000955Y010666D01*
X000955Y010825D02*
X005665Y010825D01*
X005546Y010983D02*
X000955Y010983D01*
X000955Y011142D02*
X005510Y011142D01*
X005536Y011300D02*
X000955Y011300D01*
X000955Y011459D02*
X005628Y011459D01*
X005628Y011617D02*
X004411Y011617D01*
X004586Y011776D02*
X005628Y011776D01*
X005628Y011934D02*
X004655Y011934D01*
X004674Y012093D02*
X005628Y012093D01*
X005628Y012251D02*
X004650Y012251D01*
X004574Y012410D02*
X005628Y012410D01*
X005628Y012568D02*
X004383Y012568D01*
X004537Y012727D02*
X005628Y012727D01*
X005628Y012885D02*
X004634Y012885D01*
X004674Y013044D02*
X005628Y013044D01*
X005628Y013202D02*
X004670Y013202D01*
X004605Y013361D02*
X005628Y013361D01*
X005628Y013519D02*
X004465Y013519D01*
X004387Y013678D02*
X005628Y013678D01*
X005628Y013836D02*
X004545Y013836D01*
X004605Y013995D02*
X005628Y013995D01*
X005628Y014153D02*
X004609Y014153D01*
X004558Y014312D02*
X005628Y014312D01*
X005628Y014470D02*
X004423Y014470D01*
X004438Y014629D02*
X005628Y014629D01*
X005628Y014787D02*
X004594Y014787D01*
X004660Y014946D02*
X005628Y014946D01*
X005628Y015104D02*
X004674Y015104D01*
X004645Y015263D02*
X005628Y015263D01*
X005628Y015421D02*
X004563Y015421D01*
X004355Y015580D02*
X005628Y015580D01*
X005628Y015738D02*
X004549Y015738D01*
X005148Y016387D02*
X005178Y016417D01*
X005224Y016527D01*
X005224Y016740D01*
X007735Y016740D01*
X007687Y016624D01*
X007669Y016631D01*
X007494Y016631D01*
X007333Y016565D01*
X007210Y016441D01*
X007143Y016280D01*
X007143Y016106D01*
X007182Y016014D01*
X007182Y015673D01*
X007106Y015704D01*
X006483Y015704D01*
X006314Y015634D01*
X006228Y015549D01*
X006228Y016147D01*
X006182Y016257D01*
X006098Y016341D01*
X005988Y016387D01*
X005148Y016387D01*
X005224Y016531D02*
X007299Y016531D01*
X007182Y016372D02*
X006023Y016372D01*
X006200Y016214D02*
X007143Y016214D01*
X007165Y016055D02*
X006228Y016055D01*
X006228Y015897D02*
X007182Y015897D01*
X007182Y015738D02*
X006228Y015738D01*
X006228Y015580D02*
X006259Y015580D01*
X006228Y014787D02*
X006476Y014787D01*
X006228Y014629D02*
X007182Y014629D01*
X007182Y014787D02*
X007112Y014787D01*
X007182Y014470D02*
X006228Y014470D01*
X006228Y014312D02*
X007210Y014312D01*
X007324Y014153D02*
X006582Y014153D01*
X006730Y013995D02*
X009584Y013995D01*
X009584Y013836D02*
X006780Y013836D01*
X007170Y013678D02*
X009584Y013678D01*
X009584Y013519D02*
X007390Y013519D01*
X007464Y013361D02*
X009584Y013361D01*
X009584Y013202D02*
X007474Y013202D01*
X007429Y013044D02*
X009584Y013044D01*
X009584Y012885D02*
X007306Y012885D01*
X006283Y012885D02*
X006228Y012885D01*
X006228Y012727D02*
X009584Y012727D01*
X009584Y012568D02*
X006228Y012568D01*
X006228Y012410D02*
X009584Y012410D01*
X009584Y012251D02*
X006228Y012251D01*
X006228Y012093D02*
X008767Y012093D01*
X009310Y012093D02*
X009584Y012093D01*
X009584Y011934D02*
X009434Y011934D01*
X009476Y011776D02*
X009584Y011776D01*
X010304Y011776D02*
X014221Y011776D01*
X014181Y011710D02*
X014014Y011710D01*
X013873Y011652D01*
X010304Y011652D01*
X010304Y013767D01*
X010385Y013767D01*
X010899Y013253D01*
X010899Y013253D01*
X010940Y013212D01*
X010980Y013172D01*
X010981Y013172D01*
X010981Y013171D01*
X011034Y013149D01*
X011087Y013128D01*
X011087Y013128D01*
X011087Y013127D01*
X011145Y013128D01*
X011202Y013128D01*
X011203Y013128D01*
X014211Y013134D01*
X014211Y013023D01*
X014221Y012999D01*
X014221Y011693D01*
X014181Y011710D01*
X014221Y011934D02*
X010304Y011934D01*
X010304Y012093D02*
X014221Y012093D01*
X014221Y012251D02*
X010304Y012251D01*
X010304Y012410D02*
X014221Y012410D01*
X014221Y012568D02*
X010304Y012568D01*
X010304Y012727D02*
X014221Y012727D01*
X014221Y012885D02*
X010304Y012885D01*
X010304Y013044D02*
X014211Y013044D01*
X014801Y012727D02*
X017790Y012727D01*
X018161Y012727D02*
X018187Y012727D01*
X018187Y012568D02*
X014801Y012568D01*
X014801Y012410D02*
X018187Y012410D01*
X018187Y012251D02*
X014801Y012251D01*
X014801Y012093D02*
X018126Y012093D01*
X018018Y011934D02*
X014801Y011934D01*
X014801Y011776D02*
X017990Y011776D01*
X018024Y011617D02*
X014801Y011617D01*
X014801Y011459D02*
X018142Y011459D01*
X018675Y011459D02*
X020864Y011459D01*
X020864Y011617D02*
X018792Y011617D01*
X018827Y011776D02*
X020864Y011776D01*
X020864Y011934D02*
X018799Y011934D01*
X018787Y012093D02*
X020864Y012093D01*
X020864Y012251D02*
X018787Y012251D01*
X018787Y012410D02*
X020864Y012410D01*
X020864Y012568D02*
X018787Y012568D01*
X018787Y012727D02*
X020864Y012727D01*
X020864Y012885D02*
X018850Y012885D01*
X018906Y013044D02*
X020864Y013044D01*
X022173Y013207D02*
X022173Y013226D01*
X022196Y013217D01*
X022173Y013207D01*
X023204Y013217D02*
X023306Y013259D01*
X023457Y013411D01*
X023540Y013609D01*
X023540Y013824D01*
X023494Y013935D01*
X027675Y013935D01*
X027675Y009280D01*
X027621Y009225D01*
X027557Y009072D01*
X027557Y008905D01*
X027621Y008751D01*
X027738Y008634D01*
X027892Y008570D01*
X028059Y008570D01*
X028086Y008582D01*
X028086Y006951D01*
X028064Y006928D01*
X028020Y006822D01*
X028020Y006706D01*
X028064Y006600D01*
X028146Y006518D01*
X028153Y006515D01*
X028153Y006515D01*
X028277Y006391D01*
X028439Y006324D01*
X028614Y006324D01*
X028776Y006391D01*
X028829Y006444D01*
X035440Y006444D01*
X035474Y006409D01*
X035628Y006346D01*
X035795Y006346D01*
X035949Y006409D01*
X035983Y006444D01*
X038038Y006444D01*
X038073Y006409D01*
X038227Y006346D01*
X038393Y006346D01*
X038547Y006409D01*
X038665Y006527D01*
X038728Y006681D01*
X038728Y006847D01*
X038665Y007001D01*
X038547Y007119D01*
X038393Y007182D01*
X038227Y007182D01*
X038073Y007119D01*
X038038Y007084D01*
X035983Y007084D01*
X035949Y007119D01*
X035795Y007182D01*
X035628Y007182D01*
X035474Y007119D01*
X035440Y007084D01*
X033354Y007084D01*
X033354Y009278D01*
X033462Y009386D01*
X033462Y008728D01*
X033511Y008610D01*
X033601Y008520D01*
X033621Y008501D01*
X033738Y008452D01*
X033976Y008452D01*
X033976Y008318D01*
X034354Y008318D01*
X034354Y008281D01*
X033976Y008281D01*
X033976Y008079D01*
X033989Y008033D01*
X034012Y007992D01*
X034046Y007959D01*
X034087Y007935D01*
X034133Y007923D01*
X034354Y007923D01*
X034354Y008281D01*
X034391Y008281D01*
X034391Y007923D01*
X034613Y007923D01*
X034655Y007934D01*
X034690Y007899D01*
X034778Y007863D01*
X035306Y007863D01*
X035395Y007899D01*
X035462Y007967D01*
X035499Y008055D01*
X035499Y008353D01*
X035555Y008353D01*
X035701Y008414D01*
X035813Y008526D01*
X035874Y008673D01*
X035874Y008832D01*
X035842Y008909D01*
X035872Y008940D01*
X035933Y009086D01*
X035933Y009245D01*
X035872Y009391D01*
X035828Y009436D01*
X038217Y009436D01*
X038787Y008866D01*
X038877Y008776D01*
X038994Y008727D01*
X041769Y008727D01*
X041769Y005795D01*
X041814Y005688D01*
X041768Y005676D01*
X041727Y005653D01*
X041694Y005619D01*
X041670Y005578D01*
X041658Y005532D01*
X041658Y004763D01*
X042283Y004763D01*
X042283Y004603D01*
X041658Y004603D01*
X041658Y004331D01*
X040316Y004331D01*
X040316Y004603D01*
X039691Y004603D01*
X039691Y004763D01*
X040316Y004763D01*
X040316Y005532D01*
X040304Y005578D01*
X040280Y005619D01*
X040247Y005653D01*
X040206Y005676D01*
X040160Y005688D01*
X039691Y005688D01*
X039691Y004763D01*
X039531Y004763D01*
X039531Y004603D01*
X038906Y004603D01*
X038906Y004331D01*
X020007Y004331D01*
X020067Y004476D01*
X020067Y004643D01*
X020237Y004643D01*
X020210Y004708D02*
X020277Y004547D01*
X020400Y004424D01*
X020561Y004357D01*
X020736Y004357D01*
X020897Y004424D01*
X021020Y004547D01*
X021087Y004708D01*
X021087Y004883D01*
X021020Y005044D01*
X020939Y005125D01*
X020939Y008518D01*
X020994Y008462D01*
X021105Y008417D01*
X021939Y008417D01*
X021942Y008411D01*
X022094Y008259D01*
X022292Y008177D01*
X023107Y008177D01*
X023306Y008259D01*
X023457Y008411D01*
X023540Y008609D01*
X023540Y008824D01*
X023457Y009023D01*
X023306Y009175D01*
X023204Y009217D01*
X023306Y009259D01*
X023457Y009411D01*
X023540Y009609D01*
X023540Y009824D01*
X023457Y010023D01*
X023306Y010175D01*
X023204Y010217D01*
X023306Y010259D01*
X023457Y010411D01*
X023540Y010609D01*
X023540Y010824D01*
X023457Y011023D01*
X023306Y011175D01*
X023204Y011217D01*
X023306Y011259D01*
X023457Y011411D01*
X023540Y011609D01*
X023540Y011824D01*
X023457Y012023D01*
X023306Y012175D01*
X023204Y012217D01*
X023306Y012259D01*
X023457Y012411D01*
X023540Y012609D01*
X023540Y012824D01*
X023457Y013023D01*
X023306Y013175D01*
X023204Y013217D01*
X023239Y013202D02*
X027675Y013202D01*
X027675Y013044D02*
X023436Y013044D01*
X023514Y012885D02*
X027675Y012885D01*
X027675Y012727D02*
X023540Y012727D01*
X023523Y012568D02*
X027675Y012568D01*
X027675Y012410D02*
X023456Y012410D01*
X023287Y012251D02*
X027675Y012251D01*
X027675Y012093D02*
X023387Y012093D01*
X023494Y011934D02*
X027675Y011934D01*
X027675Y011776D02*
X023540Y011776D01*
X023540Y011617D02*
X027675Y011617D01*
X027675Y011459D02*
X023477Y011459D01*
X023347Y011300D02*
X027675Y011300D01*
X027675Y011142D02*
X023338Y011142D01*
X023474Y010983D02*
X027675Y010983D01*
X027675Y010825D02*
X023539Y010825D01*
X023540Y010666D02*
X027675Y010666D01*
X027675Y010508D02*
X023498Y010508D01*
X023396Y010349D02*
X027675Y010349D01*
X027675Y010191D02*
X023267Y010191D01*
X023448Y010032D02*
X027675Y010032D01*
X027675Y009874D02*
X023519Y009874D01*
X023540Y009715D02*
X027675Y009715D01*
X027675Y009557D02*
X023518Y009557D01*
X023445Y009398D02*
X027675Y009398D01*
X027635Y009240D02*
X023259Y009240D01*
X023399Y009081D02*
X027561Y009081D01*
X027557Y008923D02*
X023499Y008923D01*
X023540Y008764D02*
X027615Y008764D01*
X027806Y008606D02*
X023538Y008606D01*
X023472Y008447D02*
X028086Y008447D01*
X028086Y008289D02*
X023335Y008289D01*
X022064Y008289D02*
X020939Y008289D01*
X020939Y008447D02*
X021031Y008447D01*
X020939Y008130D02*
X028086Y008130D01*
X028086Y007972D02*
X020939Y007972D01*
X020939Y007813D02*
X028086Y007813D01*
X028086Y007655D02*
X020939Y007655D01*
X020939Y007496D02*
X028086Y007496D01*
X028086Y007338D02*
X020939Y007338D01*
X020939Y007179D02*
X028086Y007179D01*
X028086Y007021D02*
X020939Y007021D01*
X020939Y006862D02*
X028037Y006862D01*
X028021Y006704D02*
X020939Y006704D01*
X020939Y006545D02*
X028119Y006545D01*
X028288Y006387D02*
X020939Y006387D01*
X020939Y006228D02*
X041769Y006228D01*
X041769Y006070D02*
X020939Y006070D01*
X020939Y005911D02*
X041769Y005911D01*
X041787Y005753D02*
X020939Y005753D01*
X020939Y005594D02*
X038928Y005594D01*
X038919Y005578D02*
X038906Y005532D01*
X038906Y004763D01*
X039531Y004763D01*
X039531Y005688D01*
X039063Y005688D01*
X039017Y005676D01*
X038976Y005653D01*
X038942Y005619D01*
X038919Y005578D01*
X038906Y005436D02*
X020939Y005436D01*
X020939Y005277D02*
X038906Y005277D01*
X038906Y005119D02*
X020945Y005119D01*
X021055Y004960D02*
X038906Y004960D01*
X038906Y004802D02*
X021087Y004802D01*
X021060Y004643D02*
X039531Y004643D01*
X039531Y004802D02*
X039691Y004802D01*
X039691Y004960D02*
X039531Y004960D01*
X039531Y005119D02*
X039691Y005119D01*
X039691Y005277D02*
X039531Y005277D01*
X039531Y005436D02*
X039691Y005436D01*
X039691Y005594D02*
X039531Y005594D01*
X040295Y005594D02*
X041680Y005594D01*
X041658Y005436D02*
X040316Y005436D01*
X040316Y005277D02*
X041658Y005277D01*
X041658Y005119D02*
X040316Y005119D01*
X040316Y004960D02*
X041658Y004960D01*
X041658Y004802D02*
X040316Y004802D01*
X040316Y004485D02*
X041658Y004485D01*
X042283Y004643D02*
X039691Y004643D01*
X038906Y004485D02*
X020957Y004485D01*
X020340Y004485D02*
X020067Y004485D01*
X020067Y004643D02*
X020003Y004796D01*
X019939Y004861D01*
X019939Y009315D01*
X019954Y009321D01*
X020106Y009473D01*
X020149Y009575D01*
X020191Y009473D01*
X020343Y009321D01*
X020359Y009315D01*
X020359Y005125D01*
X020277Y005044D01*
X020210Y004883D01*
X020210Y004708D01*
X020210Y004802D02*
X019998Y004802D01*
X019939Y004960D02*
X020242Y004960D01*
X020352Y005119D02*
X019939Y005119D01*
X019939Y005277D02*
X020359Y005277D01*
X020359Y005436D02*
X019939Y005436D01*
X019939Y005594D02*
X020359Y005594D01*
X020359Y005753D02*
X019939Y005753D01*
X019939Y005911D02*
X020359Y005911D01*
X020359Y006070D02*
X019939Y006070D01*
X019939Y006228D02*
X020359Y006228D01*
X020359Y006387D02*
X019939Y006387D01*
X019939Y006545D02*
X020359Y006545D01*
X020359Y006704D02*
X019939Y006704D01*
X019939Y006862D02*
X020359Y006862D01*
X020359Y007021D02*
X019939Y007021D01*
X019939Y007179D02*
X020359Y007179D01*
X020359Y007338D02*
X019939Y007338D01*
X019939Y007496D02*
X020359Y007496D01*
X020359Y007655D02*
X019939Y007655D01*
X019939Y007813D02*
X020359Y007813D01*
X020359Y007972D02*
X019939Y007972D01*
X019939Y008130D02*
X020359Y008130D01*
X020359Y008289D02*
X019939Y008289D01*
X019939Y008447D02*
X020359Y008447D01*
X020359Y008606D02*
X019939Y008606D01*
X019939Y008764D02*
X020359Y008764D01*
X020359Y008923D02*
X019939Y008923D01*
X019939Y009081D02*
X020359Y009081D01*
X020359Y009240D02*
X019939Y009240D01*
X020031Y009398D02*
X020266Y009398D01*
X020156Y009557D02*
X020141Y009557D01*
X021464Y009417D02*
X021464Y009017D01*
X021939Y009017D01*
X021942Y009023D01*
X022094Y009175D01*
X022196Y009217D01*
X022094Y009259D01*
X021942Y009411D01*
X021939Y009417D01*
X021464Y009417D01*
X021464Y009398D02*
X021955Y009398D01*
X022140Y009240D02*
X021464Y009240D01*
X021464Y009081D02*
X022000Y009081D01*
X021939Y010017D02*
X021700Y010017D01*
X021700Y010417D01*
X021939Y010417D01*
X021942Y010411D01*
X022094Y010259D01*
X022196Y010217D01*
X022094Y010175D01*
X021942Y010023D01*
X021939Y010017D01*
X021951Y010032D02*
X021700Y010032D01*
X021700Y010191D02*
X022133Y010191D01*
X022004Y010349D02*
X021700Y010349D01*
X020330Y010825D02*
X019967Y010825D01*
X020114Y010666D02*
X020183Y010666D01*
X019330Y010825D02*
X018967Y010825D01*
X019114Y010666D02*
X019183Y010666D01*
X018330Y010825D02*
X017967Y010825D01*
X018114Y010666D02*
X018183Y010666D01*
X017330Y010825D02*
X014801Y010825D01*
X014801Y010983D02*
X020864Y010983D01*
X020864Y011142D02*
X014801Y011142D01*
X014801Y011300D02*
X020864Y011300D01*
X021937Y011300D02*
X022053Y011300D01*
X022094Y011259D02*
X021948Y011405D01*
X021937Y011405D01*
X021937Y011017D01*
X021939Y011017D01*
X021942Y011023D01*
X022094Y011175D01*
X022196Y011217D01*
X022094Y011259D01*
X022061Y011142D02*
X021937Y011142D01*
X022173Y012207D02*
X022173Y012226D01*
X022196Y012217D01*
X022173Y012207D01*
X023407Y013361D02*
X027675Y013361D01*
X027675Y013519D02*
X023502Y013519D01*
X023540Y013678D02*
X027675Y013678D01*
X027675Y013836D02*
X023535Y013836D01*
X023500Y014515D02*
X023540Y014609D01*
X023540Y014824D01*
X023500Y014919D01*
X027639Y014919D01*
X027675Y014934D01*
X027675Y014515D01*
X023500Y014515D01*
X023540Y014629D02*
X027675Y014629D01*
X027675Y014787D02*
X023540Y014787D01*
X023494Y015499D02*
X023540Y015609D01*
X023540Y015824D01*
X023457Y016023D01*
X023306Y016175D01*
X023107Y016257D01*
X022292Y016257D01*
X022094Y016175D01*
X021942Y016023D01*
X021860Y015824D01*
X021860Y015609D01*
X021905Y015499D01*
X020758Y015499D01*
X020730Y015566D01*
X020553Y015743D01*
X020321Y015839D01*
X019291Y015839D01*
X019059Y015743D01*
X018882Y015566D01*
X018862Y015519D01*
X015943Y015519D01*
X015861Y015600D01*
X015700Y015667D01*
X015526Y015667D01*
X015365Y015600D01*
X015242Y015477D01*
X015175Y015316D01*
X015175Y015141D01*
X015242Y014980D01*
X015365Y014857D01*
X015526Y014790D01*
X015618Y014790D01*
X015616Y014788D01*
X015549Y014627D01*
X015549Y014452D01*
X015605Y014318D01*
X012251Y014318D01*
X012208Y014422D01*
X012090Y014540D01*
X011936Y014604D01*
X011770Y014604D01*
X011616Y014540D01*
X011607Y014531D01*
X011598Y014540D01*
X011444Y014604D01*
X011278Y014604D01*
X011124Y014540D01*
X011115Y014531D01*
X011106Y014540D01*
X010952Y014604D01*
X010786Y014604D01*
X010632Y014540D01*
X010623Y014531D01*
X010614Y014540D01*
X010460Y014604D01*
X010338Y014604D01*
X010299Y014698D01*
X010181Y014816D01*
X010027Y014879D01*
X009861Y014879D01*
X009816Y014861D01*
X007982Y014861D01*
X007982Y015409D01*
X008050Y015381D01*
X008216Y015381D01*
X008370Y015445D01*
X008424Y015499D01*
X012715Y015499D01*
X012715Y014989D01*
X012699Y014973D01*
X012636Y014820D01*
X012636Y014653D01*
X012699Y014499D01*
X012817Y014382D01*
X012971Y014318D01*
X013137Y014318D01*
X013291Y014382D01*
X013409Y014499D01*
X013472Y014653D01*
X013472Y014820D01*
X013409Y014973D01*
X013315Y015068D01*
X013315Y015859D01*
X013269Y015969D01*
X013185Y016054D01*
X013074Y016099D01*
X008424Y016099D01*
X008374Y016150D01*
X008433Y016208D01*
X010871Y016208D01*
X010920Y016188D01*
X011094Y016188D01*
X011255Y016255D01*
X011378Y016378D01*
X011445Y016539D01*
X011445Y016713D01*
X011434Y016740D01*
X012507Y016740D01*
X012478Y016670D01*
X012478Y016504D01*
X012542Y016350D01*
X012660Y016232D01*
X012813Y016168D01*
X012980Y016168D01*
X013134Y016232D01*
X013251Y016350D01*
X013315Y016504D01*
X013315Y016670D01*
X013251Y016824D01*
X013197Y016879D01*
X013197Y017099D01*
X013151Y017210D01*
X013066Y017294D01*
X012956Y017340D01*
X008390Y017340D01*
X008464Y017518D01*
X008464Y018333D01*
X008382Y018531D01*
X008230Y018683D01*
X008032Y018765D01*
X007817Y018765D01*
X007618Y018683D01*
X007466Y018531D01*
X007424Y018429D01*
X007382Y018531D01*
X007361Y018552D01*
X007346Y021895D01*
X021803Y021895D01*
X021860Y021918D01*
X021860Y021720D01*
X021942Y021521D01*
X022094Y021369D01*
X022196Y021327D01*
X022094Y021285D01*
X021942Y021133D01*
X021860Y020934D01*
X021860Y020720D01*
X021942Y020521D01*
X022094Y020369D01*
X022196Y020327D01*
X022094Y020285D01*
X021942Y020133D01*
X021860Y019934D01*
X021860Y019720D01*
X021942Y019521D01*
X022094Y019369D01*
X022196Y019327D01*
X022094Y019285D01*
X021942Y019133D01*
X021860Y018934D01*
X021860Y018720D01*
X021942Y018521D01*
X022094Y018369D01*
X022196Y018327D01*
X022094Y018285D01*
X021942Y018133D01*
X021860Y017934D01*
X021860Y017720D01*
X021942Y017521D01*
X022094Y017369D01*
X022196Y017327D01*
X022094Y017285D01*
X021942Y017133D01*
X021860Y016934D01*
X021860Y016720D01*
X021942Y016521D01*
X022094Y016369D01*
X022292Y016287D01*
X023107Y016287D01*
X023306Y016369D01*
X023457Y016521D01*
X023540Y016720D01*
X023540Y016934D01*
X023457Y017133D01*
X023306Y017285D01*
X023204Y017327D01*
X023306Y017369D01*
X023457Y017521D01*
X023540Y017720D01*
X023540Y017934D01*
X023457Y018133D01*
X023306Y018285D01*
X023204Y018327D01*
X023306Y018369D01*
X023457Y018521D01*
X023540Y018720D01*
X023540Y018934D01*
X023457Y019133D01*
X023306Y019285D01*
X023204Y019327D01*
X023306Y019369D01*
X023457Y019521D01*
X023540Y019720D01*
X023540Y019934D01*
X023457Y020133D01*
X023306Y020285D01*
X023204Y020327D01*
X023306Y020369D01*
X023457Y020521D01*
X023540Y020720D01*
X023540Y020934D01*
X023457Y021133D01*
X023306Y021285D01*
X023204Y021327D01*
X023306Y021369D01*
X023457Y021521D01*
X023540Y021720D01*
X023540Y021875D01*
X024008Y021875D01*
X024169Y021942D01*
X024293Y022066D01*
X024360Y022228D01*
X024360Y022883D01*
X027163Y022907D01*
X027163Y022763D01*
X027227Y022610D01*
X027282Y022555D01*
X027282Y015737D01*
X027227Y015682D01*
X027163Y015528D01*
X027163Y015499D01*
X023494Y015499D01*
X023527Y015580D02*
X027184Y015580D01*
X027282Y015738D02*
X023540Y015738D01*
X023510Y015897D02*
X027282Y015897D01*
X027282Y016055D02*
X023425Y016055D01*
X023211Y016214D02*
X027282Y016214D01*
X027282Y016372D02*
X023309Y016372D01*
X023461Y016531D02*
X027282Y016531D01*
X027282Y016689D02*
X023527Y016689D01*
X023540Y016848D02*
X027282Y016848D01*
X027282Y017006D02*
X023510Y017006D01*
X023426Y017165D02*
X027282Y017165D01*
X027282Y017323D02*
X023213Y017323D01*
X023418Y017482D02*
X027282Y017482D01*
X027282Y017640D02*
X023507Y017640D01*
X023540Y017799D02*
X027282Y017799D01*
X027282Y017957D02*
X023530Y017957D01*
X023465Y018116D02*
X027282Y018116D01*
X027282Y018274D02*
X023316Y018274D01*
X023369Y018433D02*
X027282Y018433D01*
X027282Y018591D02*
X023486Y018591D01*
X023540Y018750D02*
X027282Y018750D01*
X027282Y018908D02*
X023540Y018908D01*
X023485Y019067D02*
X027282Y019067D01*
X027282Y019225D02*
X023365Y019225D01*
X023320Y019384D02*
X027282Y019384D01*
X027282Y019542D02*
X023466Y019542D01*
X023532Y019701D02*
X027282Y019701D01*
X027282Y019859D02*
X023540Y019859D01*
X023505Y020018D02*
X027282Y020018D01*
X027282Y020176D02*
X023414Y020176D01*
X023222Y020335D02*
X027282Y020335D01*
X027282Y020493D02*
X023430Y020493D01*
X023512Y020652D02*
X027282Y020652D01*
X027282Y020810D02*
X023540Y020810D01*
X023526Y020969D02*
X027282Y020969D01*
X027282Y021127D02*
X023460Y021127D01*
X023303Y021286D02*
X027282Y021286D01*
X027282Y021444D02*
X023381Y021444D01*
X023491Y021603D02*
X027282Y021603D01*
X027282Y021761D02*
X023540Y021761D01*
X024115Y021920D02*
X027282Y021920D01*
X027282Y022078D02*
X024298Y022078D01*
X024360Y022237D02*
X027282Y022237D01*
X027282Y022395D02*
X024360Y022395D01*
X024360Y022554D02*
X027282Y022554D01*
X027184Y022712D02*
X024360Y022712D01*
X024360Y022871D02*
X027163Y022871D01*
X027882Y022555D02*
X027882Y016765D01*
X027892Y016769D01*
X028059Y016769D01*
X028086Y016757D01*
X028086Y022915D01*
X028000Y022914D01*
X028000Y022763D01*
X027936Y022610D01*
X027882Y022555D01*
X027882Y022554D02*
X028086Y022554D01*
X028086Y022712D02*
X027979Y022712D01*
X028000Y022871D02*
X028086Y022871D01*
X028526Y022551D02*
X028526Y022335D01*
X028526Y022197D01*
X028966Y022200D02*
X028986Y022247D01*
X028986Y022422D01*
X028966Y022470D01*
X028966Y023215D01*
X033829Y023215D01*
X033603Y023121D01*
X033425Y022944D01*
X033330Y022712D01*
X028966Y022712D01*
X028966Y022554D02*
X033330Y022554D01*
X033330Y022712D02*
X033330Y021682D01*
X033425Y021450D01*
X033603Y021273D01*
X033834Y021177D01*
X034085Y021177D01*
X034316Y021273D01*
X034494Y021450D01*
X034590Y021682D01*
X034590Y022712D01*
X037641Y022712D01*
X037641Y022686D02*
X037736Y022454D01*
X037914Y022277D01*
X038145Y022181D01*
X038396Y022181D01*
X038627Y022277D01*
X038805Y022454D01*
X038901Y022686D01*
X038901Y023716D01*
X038805Y023948D01*
X038627Y024125D01*
X038396Y024221D01*
X038145Y024221D01*
X037914Y024125D01*
X037736Y023948D01*
X037641Y023716D01*
X037641Y022686D01*
X037695Y022554D02*
X034590Y022554D01*
X034590Y022712D02*
X034494Y022944D01*
X034316Y023121D01*
X034090Y023215D01*
X036865Y023215D01*
X037006Y023157D01*
X037173Y023157D01*
X037326Y023220D01*
X037444Y023338D01*
X037508Y023492D01*
X037508Y023658D01*
X037444Y023812D01*
X037326Y023930D01*
X037173Y023993D01*
X037006Y023993D01*
X036865Y023935D01*
X028455Y023935D01*
X028323Y023880D01*
X028238Y023796D01*
X023918Y023759D01*
X023833Y023759D01*
X023831Y023758D01*
X023829Y023758D01*
X023750Y023725D01*
X023671Y023692D01*
X023670Y023691D01*
X023668Y023690D01*
X023608Y023629D01*
X023547Y023568D01*
X023546Y023567D01*
X023545Y023565D01*
X023513Y023486D01*
X023480Y023407D01*
X023480Y023405D01*
X023479Y023403D01*
X023480Y023317D01*
X023480Y023078D01*
X023457Y023133D01*
X023306Y023285D01*
X023204Y023327D01*
X023306Y023369D01*
X023457Y023521D01*
X023540Y023720D01*
X023540Y023934D01*
X023457Y024133D01*
X023306Y024285D01*
X023279Y024296D01*
X048932Y024296D01*
X048932Y010262D01*
X048659Y010262D01*
X048659Y009637D01*
X048499Y009637D01*
X048499Y009477D01*
X047574Y009477D01*
X047574Y009008D01*
X047587Y008963D01*
X047610Y008922D01*
X047644Y008888D01*
X047685Y008864D01*
X047731Y008852D01*
X048499Y008852D01*
X048499Y009477D01*
X048659Y009477D01*
X048659Y008852D01*
X048932Y008852D01*
X048932Y007511D01*
X048659Y007511D01*
X048659Y006886D01*
X048499Y006886D01*
X048499Y007511D01*
X047731Y007511D01*
X047685Y007498D01*
X047644Y007475D01*
X047610Y007441D01*
X047587Y007400D01*
X047574Y007354D01*
X047574Y006886D01*
X048499Y006886D01*
X048499Y006726D01*
X047574Y006726D01*
X047574Y006257D01*
X047587Y006211D01*
X047610Y006170D01*
X047644Y006136D01*
X047685Y006113D01*
X047731Y006101D01*
X048499Y006101D01*
X048499Y006726D01*
X048659Y006726D01*
X048659Y006101D01*
X048932Y006101D01*
X048932Y004331D01*
X043068Y004331D01*
X043068Y004603D01*
X042443Y004603D01*
X042443Y004763D01*
X043068Y004763D01*
X043068Y005532D01*
X043066Y005539D01*
X045126Y005539D01*
X045243Y005587D01*
X045271Y005615D01*
X045271Y005535D01*
X045347Y005253D01*
X045493Y005000D01*
X045699Y004793D01*
X045952Y004647D01*
X046235Y004571D01*
X046527Y004571D01*
X046809Y004647D01*
X047062Y004793D01*
X047269Y005000D01*
X047415Y005253D01*
X047491Y005535D01*
X047491Y005827D01*
X047415Y006110D01*
X047269Y006363D01*
X047062Y006569D01*
X046809Y006716D01*
X046527Y006791D01*
X046235Y006791D01*
X045952Y006716D01*
X045699Y006569D01*
X045493Y006363D01*
X045382Y006171D01*
X045382Y007008D01*
X045417Y007043D01*
X045480Y007197D01*
X045480Y007363D01*
X045417Y007517D01*
X045381Y007553D01*
X045362Y011253D01*
X045362Y011316D01*
X045362Y011317D01*
X045362Y011317D01*
X045338Y011375D01*
X045332Y011388D01*
X045360Y011377D01*
X045575Y011377D01*
X045773Y011459D01*
X045925Y011611D01*
X046002Y011796D01*
X046023Y011733D01*
X046057Y011665D01*
X046101Y011604D01*
X046155Y011551D01*
X046216Y011506D01*
X046283Y011472D01*
X046355Y011449D01*
X046430Y011437D01*
X046447Y011437D01*
X046447Y012197D01*
X046487Y012197D01*
X046487Y011437D01*
X046505Y011437D01*
X046580Y011449D01*
X046652Y011472D01*
X046719Y011506D01*
X046780Y011551D01*
X046834Y011604D01*
X046878Y011665D01*
X046912Y011733D01*
X046936Y011804D01*
X046947Y011879D01*
X046947Y012197D01*
X046487Y012197D01*
X046487Y012237D01*
X046447Y012237D01*
X046447Y012997D01*
X046430Y012997D01*
X046355Y012985D01*
X046283Y012962D01*
X046216Y012927D01*
X046155Y012883D01*
X046101Y012829D01*
X046057Y012768D01*
X046023Y012701D01*
X046002Y012637D01*
X045925Y012823D01*
X045773Y012975D01*
X045575Y013057D01*
X045360Y013057D01*
X045162Y012975D01*
X045010Y012823D01*
X044927Y012624D01*
X044927Y012508D01*
X044881Y012528D01*
X044879Y012528D01*
X044878Y012529D01*
X044816Y012529D01*
X044704Y012530D01*
X044704Y012624D01*
X044622Y012823D01*
X044470Y012975D01*
X044272Y013057D01*
X044057Y013057D01*
X043858Y012975D01*
X043706Y012823D01*
X043664Y012721D01*
X043622Y012823D01*
X043470Y012975D01*
X043272Y013057D01*
X043057Y013057D01*
X042858Y012975D01*
X042706Y012823D01*
X042624Y012624D01*
X042624Y011809D01*
X042706Y011611D01*
X042858Y011459D01*
X043057Y011377D01*
X043272Y011377D01*
X043470Y011459D01*
X043622Y011611D01*
X043664Y011713D01*
X043706Y011611D01*
X043858Y011459D01*
X044057Y011377D01*
X044272Y011377D01*
X044470Y011459D01*
X044494Y011483D01*
X044494Y011189D01*
X044543Y011071D01*
X044633Y010981D01*
X044724Y010943D01*
X044741Y007550D01*
X044707Y007517D01*
X044643Y007363D01*
X044643Y007197D01*
X044707Y007043D01*
X044742Y007008D01*
X044742Y006179D01*
X043413Y006179D01*
X043413Y006335D01*
X043409Y006346D01*
X043570Y006346D01*
X043724Y006409D01*
X043842Y006527D01*
X043906Y006681D01*
X043906Y006847D01*
X043842Y007001D01*
X043724Y007119D01*
X043570Y007182D01*
X043404Y007182D01*
X043250Y007119D01*
X043215Y007084D01*
X043079Y007084D01*
X043079Y009736D01*
X043079Y009799D01*
X043079Y009800D01*
X043055Y009858D01*
X043031Y009917D01*
X043030Y009917D01*
X043030Y009918D01*
X042985Y009962D01*
X039684Y013283D01*
X039684Y013284D01*
X039639Y013329D01*
X039594Y013373D01*
X039594Y013374D01*
X039535Y013398D01*
X039477Y013422D01*
X039476Y013422D01*
X039476Y013423D01*
X039445Y013423D01*
X039485Y013519D01*
X048932Y013519D01*
X048932Y013361D02*
X039607Y013361D01*
X039594Y013374D02*
X039594Y013374D01*
X039485Y013519D02*
X039485Y013734D01*
X039402Y013932D01*
X039250Y014084D01*
X039149Y014126D01*
X039250Y014168D01*
X039402Y014320D01*
X039485Y014519D01*
X039485Y014734D01*
X039402Y014932D01*
X039250Y015084D01*
X039052Y015166D01*
X038930Y015166D01*
X038899Y015241D01*
X038815Y015325D01*
X038704Y015371D01*
X037960Y015371D01*
X037960Y017648D01*
X037967Y017645D01*
X038141Y017645D01*
X038302Y017712D01*
X038425Y017835D01*
X038492Y017996D01*
X038492Y018170D01*
X038425Y018331D01*
X038345Y018412D01*
X041098Y018412D01*
X041230Y018467D01*
X041332Y018568D01*
X041386Y018700D01*
X041386Y019260D01*
X041398Y019272D01*
X041465Y019433D01*
X041465Y019607D01*
X041398Y019768D01*
X041275Y019891D01*
X041114Y019958D01*
X040939Y019958D01*
X040778Y019891D01*
X040655Y019768D01*
X040588Y019607D01*
X040588Y019433D01*
X040655Y019272D01*
X040666Y019260D01*
X040666Y019132D01*
X039124Y019132D01*
X039198Y019206D01*
X039294Y019438D01*
X039294Y020468D01*
X039198Y020700D01*
X039021Y020877D01*
X038790Y020973D01*
X038539Y020973D01*
X038307Y020877D01*
X038130Y020700D01*
X038034Y020468D01*
X038034Y020313D01*
X036327Y020313D01*
X036327Y021363D01*
X036386Y021504D01*
X036386Y021670D01*
X036322Y021824D01*
X036204Y021942D01*
X036051Y022005D01*
X035884Y022005D01*
X035730Y021942D01*
X035613Y021824D01*
X035549Y021670D01*
X035549Y021504D01*
X035607Y021363D01*
X035607Y019881D01*
X035662Y019749D01*
X035763Y019648D01*
X035896Y019593D01*
X038034Y019593D01*
X038034Y019438D01*
X038130Y019206D01*
X038204Y019132D01*
X037315Y019132D01*
X037220Y019171D01*
X034734Y019171D01*
X034602Y019116D01*
X034501Y019015D01*
X034492Y018995D01*
X032997Y018995D01*
X032905Y019033D01*
X032731Y019033D01*
X032639Y018995D01*
X031085Y018995D01*
X030938Y018934D01*
X030825Y018821D01*
X030764Y018674D01*
X030764Y018325D01*
X028966Y018325D01*
X028966Y022200D01*
X028982Y022237D02*
X033330Y022237D01*
X033330Y022395D02*
X028986Y022395D01*
X028966Y022078D02*
X033330Y022078D01*
X033330Y021920D02*
X028966Y021920D01*
X028966Y021761D02*
X033330Y021761D01*
X033362Y021603D02*
X028966Y021603D01*
X028966Y021444D02*
X033432Y021444D01*
X033590Y021286D02*
X028966Y021286D01*
X028966Y021127D02*
X035607Y021127D01*
X035607Y020969D02*
X028966Y020969D01*
X028966Y020810D02*
X035607Y020810D01*
X035607Y020652D02*
X028966Y020652D01*
X028966Y020493D02*
X035607Y020493D01*
X035607Y020335D02*
X028966Y020335D01*
X028966Y020176D02*
X035607Y020176D01*
X035607Y020018D02*
X028966Y020018D01*
X028966Y019859D02*
X035617Y019859D01*
X035711Y019701D02*
X028966Y019701D01*
X028966Y019542D02*
X038034Y019542D01*
X038057Y019384D02*
X028966Y019384D01*
X028966Y019225D02*
X038122Y019225D01*
X039206Y019225D02*
X040666Y019225D01*
X040609Y019384D02*
X039272Y019384D01*
X039294Y019542D02*
X040588Y019542D01*
X040627Y019701D02*
X039294Y019701D01*
X039294Y019859D02*
X040746Y019859D01*
X041307Y019859D02*
X046660Y019859D01*
X046665Y019840D02*
X046812Y019586D01*
X047018Y019380D01*
X047271Y019234D01*
X047554Y019158D01*
X047846Y019158D01*
X048128Y019234D01*
X048381Y019380D01*
X048588Y019586D01*
X048734Y019840D01*
X048810Y020122D01*
X048810Y020414D01*
X048734Y020696D01*
X048588Y020949D01*
X048381Y021156D01*
X048128Y021302D01*
X047846Y021378D01*
X047554Y021378D01*
X047271Y021302D01*
X047018Y021156D01*
X046812Y020949D01*
X046665Y020696D01*
X046590Y020414D01*
X046590Y020122D01*
X046665Y019840D01*
X046746Y019701D02*
X041426Y019701D01*
X041465Y019542D02*
X046856Y019542D01*
X047014Y019384D02*
X041444Y019384D01*
X041386Y019225D02*
X047303Y019225D01*
X048096Y019225D02*
X048932Y019225D01*
X048932Y019067D02*
X041386Y019067D01*
X041386Y018908D02*
X048932Y018908D01*
X048932Y018750D02*
X041386Y018750D01*
X041341Y018591D02*
X048932Y018591D01*
X048932Y018433D02*
X041148Y018433D01*
X038492Y018116D02*
X048932Y018116D01*
X048932Y018274D02*
X038449Y018274D01*
X038476Y017957D02*
X048932Y017957D01*
X048932Y017799D02*
X038389Y017799D01*
X037960Y017640D02*
X048932Y017640D01*
X048932Y017482D02*
X037960Y017482D01*
X037960Y017323D02*
X048932Y017323D01*
X048932Y017165D02*
X037960Y017165D01*
X037960Y017006D02*
X048932Y017006D01*
X048932Y016848D02*
X037960Y016848D01*
X037960Y016689D02*
X048932Y016689D01*
X048932Y016531D02*
X037960Y016531D01*
X037960Y016372D02*
X048932Y016372D01*
X048932Y016214D02*
X047491Y016214D01*
X047459Y016245D02*
X047261Y016328D01*
X046446Y016328D01*
X046247Y016245D01*
X046095Y016094D01*
X046013Y015895D01*
X046013Y015680D01*
X046095Y015482D01*
X046247Y015330D01*
X046433Y015253D01*
X046369Y015232D01*
X046302Y015198D01*
X046241Y015154D01*
X046187Y015100D01*
X046143Y015039D01*
X046108Y014972D01*
X046085Y014900D01*
X046073Y014825D01*
X046073Y014808D01*
X046833Y014808D01*
X046833Y014768D01*
X046073Y014768D01*
X046073Y014750D01*
X046085Y014675D01*
X046108Y014603D01*
X046143Y014536D01*
X046187Y014475D01*
X046241Y014422D01*
X046302Y014377D01*
X046369Y014343D01*
X046441Y014319D01*
X046515Y014308D01*
X046833Y014308D01*
X046833Y014768D01*
X046873Y014768D01*
X046873Y014808D01*
X047633Y014808D01*
X047633Y014825D01*
X047621Y014900D01*
X047598Y014972D01*
X047564Y015039D01*
X047519Y015100D01*
X047466Y015154D01*
X047405Y015198D01*
X047337Y015232D01*
X047274Y015253D01*
X047459Y015330D01*
X047611Y015482D01*
X047693Y015680D01*
X047693Y015895D01*
X047611Y016094D01*
X047459Y016245D01*
X047627Y016055D02*
X048932Y016055D01*
X048932Y015897D02*
X047693Y015897D01*
X047693Y015738D02*
X048932Y015738D01*
X048932Y015580D02*
X047652Y015580D01*
X047550Y015421D02*
X048932Y015421D01*
X048932Y015263D02*
X047297Y015263D01*
X047516Y015104D02*
X048932Y015104D01*
X048932Y014946D02*
X047607Y014946D01*
X047633Y014768D02*
X046873Y014768D01*
X046873Y014308D01*
X047191Y014308D01*
X047266Y014319D01*
X047337Y014343D01*
X047405Y014377D01*
X047466Y014422D01*
X047519Y014475D01*
X047564Y014536D01*
X047598Y014603D01*
X047621Y014675D01*
X047633Y014750D01*
X047633Y014768D01*
X047606Y014629D02*
X048932Y014629D01*
X048932Y014787D02*
X046873Y014787D01*
X046833Y014787D02*
X039462Y014787D01*
X039485Y014629D02*
X046100Y014629D01*
X046192Y014470D02*
X039464Y014470D01*
X039394Y014312D02*
X046490Y014312D01*
X046833Y014312D02*
X046873Y014312D01*
X046873Y014470D02*
X046833Y014470D01*
X046833Y014629D02*
X046873Y014629D01*
X047216Y014312D02*
X048932Y014312D01*
X048932Y014470D02*
X047515Y014470D01*
X048932Y014153D02*
X039214Y014153D01*
X039340Y013995D02*
X048932Y013995D01*
X048932Y013836D02*
X039442Y013836D01*
X039485Y013678D02*
X048932Y013678D01*
X048932Y013202D02*
X039765Y013202D01*
X039922Y013044D02*
X043025Y013044D01*
X043303Y013044D02*
X044025Y013044D01*
X044303Y013044D02*
X045328Y013044D01*
X045607Y013044D02*
X048932Y013044D01*
X048932Y012885D02*
X046777Y012885D01*
X046780Y012883D02*
X046719Y012927D01*
X046652Y012962D01*
X046580Y012985D01*
X046505Y012997D01*
X046487Y012997D01*
X046487Y012237D01*
X046947Y012237D01*
X046947Y012555D01*
X046936Y012629D01*
X046912Y012701D01*
X046878Y012768D01*
X046834Y012829D01*
X046780Y012883D01*
X046899Y012727D02*
X048932Y012727D01*
X048932Y012568D02*
X046945Y012568D01*
X046947Y012410D02*
X048932Y012410D01*
X048932Y012251D02*
X046947Y012251D01*
X046947Y012093D02*
X048932Y012093D01*
X048932Y011934D02*
X046947Y011934D01*
X046926Y011776D02*
X048932Y011776D01*
X048932Y011617D02*
X046843Y011617D01*
X046611Y011459D02*
X048932Y011459D01*
X048932Y011300D02*
X045362Y011300D01*
X045363Y011142D02*
X048932Y011142D01*
X048932Y010983D02*
X045364Y010983D01*
X045364Y010825D02*
X048932Y010825D01*
X048932Y010666D02*
X045365Y010666D01*
X045366Y010508D02*
X048932Y010508D01*
X048932Y010349D02*
X045367Y010349D01*
X045367Y010191D02*
X047609Y010191D01*
X047610Y010193D02*
X047587Y010152D01*
X047574Y010106D01*
X047574Y009637D01*
X048499Y009637D01*
X048499Y010262D01*
X047731Y010262D01*
X047685Y010250D01*
X047644Y010226D01*
X047610Y010193D01*
X047574Y010032D02*
X045368Y010032D01*
X045369Y009874D02*
X047574Y009874D01*
X047574Y009715D02*
X045370Y009715D01*
X045371Y009557D02*
X048499Y009557D01*
X048499Y009715D02*
X048659Y009715D01*
X048659Y009874D02*
X048499Y009874D01*
X048499Y010032D02*
X048659Y010032D01*
X048659Y010191D02*
X048499Y010191D01*
X048499Y009398D02*
X048659Y009398D01*
X048659Y009240D02*
X048499Y009240D01*
X048499Y009081D02*
X048659Y009081D01*
X048659Y008923D02*
X048499Y008923D01*
X048932Y008764D02*
X045375Y008764D01*
X045375Y008606D02*
X048932Y008606D01*
X048932Y008447D02*
X045376Y008447D01*
X045377Y008289D02*
X048932Y008289D01*
X048932Y008130D02*
X045378Y008130D01*
X045378Y007972D02*
X048932Y007972D01*
X048932Y007813D02*
X045379Y007813D01*
X045380Y007655D02*
X048932Y007655D01*
X048659Y007496D02*
X048499Y007496D01*
X048499Y007338D02*
X048659Y007338D01*
X048659Y007179D02*
X048499Y007179D01*
X048499Y007021D02*
X048659Y007021D01*
X048499Y006862D02*
X045382Y006862D01*
X045382Y006704D02*
X045932Y006704D01*
X045675Y006545D02*
X045382Y006545D01*
X045382Y006387D02*
X045516Y006387D01*
X045415Y006228D02*
X045382Y006228D01*
X045062Y005859D02*
X045062Y007280D01*
X045042Y011252D01*
X044814Y011252D01*
X044814Y012209D01*
X044164Y012217D01*
X044704Y012568D02*
X044927Y012568D01*
X044970Y012727D02*
X044662Y012727D01*
X044560Y012885D02*
X045072Y012885D01*
X045863Y012885D02*
X046158Y012885D01*
X046036Y012727D02*
X045965Y012727D01*
X046447Y012727D02*
X046487Y012727D01*
X046487Y012885D02*
X046447Y012885D01*
X046447Y012568D02*
X046487Y012568D01*
X046487Y012410D02*
X046447Y012410D01*
X046447Y012251D02*
X046487Y012251D01*
X046487Y012093D02*
X046447Y012093D01*
X046447Y011934D02*
X046487Y011934D01*
X046487Y011776D02*
X046447Y011776D01*
X046447Y011617D02*
X046487Y011617D01*
X046487Y011459D02*
X046447Y011459D01*
X046324Y011459D02*
X045772Y011459D01*
X045928Y011617D02*
X046092Y011617D01*
X046009Y011776D02*
X045993Y011776D01*
X044494Y011459D02*
X044469Y011459D01*
X044494Y011300D02*
X041655Y011300D01*
X041498Y011459D02*
X042859Y011459D01*
X042704Y011617D02*
X041340Y011617D01*
X041183Y011776D02*
X042638Y011776D01*
X042624Y011934D02*
X041025Y011934D01*
X040868Y012093D02*
X042624Y012093D01*
X042624Y012251D02*
X040710Y012251D01*
X040552Y012410D02*
X042624Y012410D01*
X042624Y012568D02*
X040395Y012568D01*
X040237Y012727D02*
X042667Y012727D01*
X042769Y012885D02*
X040080Y012885D01*
X039412Y013103D02*
X042759Y009736D01*
X042759Y006902D01*
X042897Y006764D01*
X043487Y006764D01*
X043669Y006387D02*
X044742Y006387D01*
X044742Y006545D02*
X043849Y006545D01*
X043906Y006704D02*
X044742Y006704D01*
X044742Y006862D02*
X043899Y006862D01*
X043822Y007021D02*
X044729Y007021D01*
X044651Y007179D02*
X043578Y007179D01*
X043396Y007179D02*
X043079Y007179D01*
X043079Y007338D02*
X044643Y007338D01*
X044699Y007496D02*
X043079Y007496D01*
X043079Y007655D02*
X044740Y007655D01*
X044739Y007813D02*
X043079Y007813D01*
X043079Y007972D02*
X044738Y007972D01*
X044738Y008130D02*
X043079Y008130D01*
X043079Y008289D02*
X044737Y008289D01*
X044736Y008447D02*
X043079Y008447D01*
X043079Y008606D02*
X044735Y008606D01*
X044735Y008764D02*
X043079Y008764D01*
X043079Y008923D02*
X044734Y008923D01*
X044733Y009081D02*
X043079Y009081D01*
X043079Y009240D02*
X044732Y009240D01*
X044731Y009398D02*
X043079Y009398D01*
X043079Y009557D02*
X044731Y009557D01*
X044730Y009715D02*
X043079Y009715D01*
X043079Y009800D02*
X043079Y009800D01*
X043048Y009874D02*
X044729Y009874D01*
X044728Y010032D02*
X042916Y010032D01*
X042758Y010191D02*
X044727Y010191D01*
X044727Y010349D02*
X042601Y010349D01*
X042443Y010508D02*
X044726Y010508D01*
X044725Y010666D02*
X042286Y010666D01*
X042128Y010825D02*
X044724Y010825D01*
X044630Y010983D02*
X041971Y010983D01*
X041813Y011142D02*
X044513Y011142D01*
X043859Y011459D02*
X043469Y011459D01*
X043625Y011617D02*
X043704Y011617D01*
X043662Y012727D02*
X043667Y012727D01*
X043769Y012885D02*
X043560Y012885D01*
X040507Y011142D02*
X028966Y011142D01*
X028966Y011300D02*
X040349Y011300D01*
X040190Y011459D02*
X028966Y011459D01*
X028966Y011617D02*
X040032Y011617D01*
X039873Y011776D02*
X028966Y011776D01*
X028966Y011934D02*
X039715Y011934D01*
X039556Y012093D02*
X028966Y012093D01*
X028966Y012251D02*
X039398Y012251D01*
X039239Y012410D02*
X028966Y012410D01*
X028966Y012568D02*
X034841Y012568D01*
X034873Y012536D02*
X034990Y012487D01*
X039162Y012487D01*
X042143Y009505D01*
X042143Y009367D01*
X039191Y009367D01*
X038857Y009701D01*
X038941Y009736D01*
X039058Y009854D01*
X039122Y010008D01*
X039122Y010174D01*
X039058Y010328D01*
X038941Y010446D01*
X038787Y010509D01*
X038620Y010509D01*
X038467Y010446D01*
X038412Y010391D01*
X033683Y010391D01*
X033573Y010345D01*
X032884Y009656D01*
X032800Y009572D01*
X032754Y009461D01*
X032754Y007084D01*
X028966Y007084D01*
X028966Y010085D01*
X031058Y010085D01*
X031199Y010027D01*
X031366Y010027D01*
X031519Y010090D01*
X031637Y010208D01*
X031701Y010362D01*
X031701Y010528D01*
X031637Y010682D01*
X031519Y010800D01*
X031366Y010864D01*
X031199Y010864D01*
X031058Y010805D01*
X028966Y010805D01*
X028966Y017605D01*
X030940Y017605D01*
X031081Y017546D01*
X031247Y017546D01*
X031401Y017610D01*
X031519Y017728D01*
X031583Y017882D01*
X031583Y018048D01*
X031564Y018093D01*
X031564Y018195D01*
X032639Y018195D01*
X032731Y018157D01*
X032905Y018157D01*
X032997Y018195D01*
X034406Y018195D01*
X034406Y016022D01*
X034363Y016022D01*
X034318Y016041D01*
X034152Y016041D01*
X033998Y015977D01*
X033880Y015859D01*
X033817Y015706D01*
X033817Y015539D01*
X033880Y015385D01*
X033998Y015268D01*
X034152Y015204D01*
X034318Y015204D01*
X034363Y015222D01*
X034886Y015222D01*
X035018Y015277D01*
X035018Y015113D01*
X034948Y015084D01*
X034895Y015030D01*
X034841Y015084D01*
X034643Y015166D01*
X033828Y015166D01*
X033629Y015084D01*
X033477Y014932D01*
X033395Y014734D01*
X033395Y014519D01*
X033477Y014320D01*
X033629Y014168D01*
X033731Y014126D01*
X033629Y014084D01*
X033477Y013932D01*
X033395Y013734D01*
X033395Y013519D01*
X028966Y013519D01*
X028966Y013361D02*
X033461Y013361D01*
X033477Y013320D02*
X033629Y013168D01*
X033828Y013086D01*
X034323Y013086D01*
X034783Y012626D01*
X034873Y012536D01*
X034682Y012727D02*
X028966Y012727D01*
X028966Y012885D02*
X034524Y012885D01*
X034365Y013044D02*
X028966Y013044D01*
X028966Y013202D02*
X033596Y013202D01*
X033477Y013320D02*
X033395Y013519D01*
X033395Y013678D02*
X028966Y013678D01*
X028966Y013836D02*
X033438Y013836D01*
X033540Y013995D02*
X028966Y013995D01*
X028966Y014153D02*
X033666Y014153D01*
X033486Y014312D02*
X028966Y014312D01*
X028966Y014470D02*
X033415Y014470D01*
X033395Y014629D02*
X028966Y014629D01*
X028966Y014787D02*
X033417Y014787D01*
X033491Y014946D02*
X028966Y014946D01*
X028966Y015104D02*
X033678Y015104D01*
X034010Y015263D02*
X028966Y015263D01*
X028966Y015421D02*
X033866Y015421D01*
X033817Y015580D02*
X028966Y015580D01*
X028966Y015738D02*
X033830Y015738D01*
X033918Y015897D02*
X028966Y015897D01*
X028966Y016055D02*
X034406Y016055D01*
X034406Y016214D02*
X028966Y016214D01*
X028966Y016372D02*
X034406Y016372D01*
X034406Y016531D02*
X028966Y016531D01*
X028966Y016689D02*
X034406Y016689D01*
X034406Y016848D02*
X028966Y016848D01*
X028966Y017006D02*
X034406Y017006D01*
X034406Y017165D02*
X028966Y017165D01*
X028966Y017323D02*
X034406Y017323D01*
X034406Y017482D02*
X028966Y017482D01*
X028086Y017482D02*
X027882Y017482D01*
X027882Y017640D02*
X028086Y017640D01*
X028086Y017799D02*
X027882Y017799D01*
X027882Y017957D02*
X028086Y017957D01*
X028086Y018116D02*
X027882Y018116D01*
X027882Y018274D02*
X028086Y018274D01*
X028086Y018433D02*
X027882Y018433D01*
X027882Y018591D02*
X028086Y018591D01*
X028086Y018750D02*
X027882Y018750D01*
X027882Y018908D02*
X028086Y018908D01*
X028086Y019067D02*
X027882Y019067D01*
X027882Y019225D02*
X028086Y019225D01*
X028086Y019384D02*
X027882Y019384D01*
X027882Y019542D02*
X028086Y019542D01*
X028086Y019701D02*
X027882Y019701D01*
X027882Y019859D02*
X028086Y019859D01*
X028086Y020018D02*
X027882Y020018D01*
X027882Y020176D02*
X028086Y020176D01*
X028086Y020335D02*
X027882Y020335D01*
X027882Y020493D02*
X028086Y020493D01*
X028086Y020652D02*
X027882Y020652D01*
X027882Y020810D02*
X028086Y020810D01*
X028086Y020969D02*
X027882Y020969D01*
X027882Y021127D02*
X028086Y021127D01*
X028086Y021286D02*
X027882Y021286D01*
X027882Y021444D02*
X028086Y021444D01*
X028086Y021603D02*
X027882Y021603D01*
X027882Y021761D02*
X028086Y021761D01*
X028086Y021920D02*
X027882Y021920D01*
X027882Y022078D02*
X028086Y022078D01*
X028086Y022237D02*
X027882Y022237D01*
X027882Y022395D02*
X028086Y022395D01*
X028966Y022871D02*
X033395Y022871D01*
X033511Y023029D02*
X028966Y023029D01*
X028966Y023188D02*
X033763Y023188D01*
X034156Y023188D02*
X036931Y023188D01*
X037248Y023188D02*
X037641Y023188D01*
X037641Y023346D02*
X037448Y023346D01*
X037508Y023505D02*
X037641Y023505D01*
X037641Y023663D02*
X037506Y023663D01*
X037435Y023822D02*
X037684Y023822D01*
X037769Y023980D02*
X037205Y023980D01*
X036974Y023980D02*
X023521Y023980D01*
X023540Y023822D02*
X028264Y023822D01*
X023940Y022394D02*
X023723Y022394D01*
X023625Y022315D01*
X023645Y022315D02*
X021715Y022315D01*
X021715Y022335D01*
X021860Y022871D02*
X007460Y022871D01*
X007460Y023029D02*
X021899Y023029D01*
X021997Y023188D02*
X007460Y023188D01*
X007460Y023346D02*
X022149Y023346D01*
X021958Y023505D02*
X007460Y023505D01*
X007429Y023663D02*
X021883Y023663D01*
X021860Y023822D02*
X007344Y023822D01*
X007127Y023980D02*
X021879Y023980D01*
X021948Y024139D02*
X002798Y024139D01*
X002888Y023980D02*
X006713Y023980D01*
X006497Y023822D02*
X006259Y023822D01*
X006366Y023663D02*
X006411Y023663D01*
X005940Y023663D02*
X005900Y023663D01*
X005900Y023505D02*
X005940Y023505D01*
X005940Y023346D02*
X005900Y023346D01*
X005900Y023201D02*
X005900Y023961D01*
X005882Y023961D01*
X005808Y023950D01*
X005736Y023926D01*
X005669Y023892D01*
X005607Y023847D01*
X005554Y023794D01*
X005510Y023733D01*
X005475Y023666D01*
X005452Y023594D01*
X005440Y023519D01*
X005440Y023201D01*
X005900Y023201D01*
X005900Y023188D02*
X002904Y023188D01*
X002946Y023346D02*
X005440Y023346D01*
X005440Y023505D02*
X002963Y023505D01*
X002963Y023663D02*
X005475Y023663D01*
X005582Y023822D02*
X002931Y023822D01*
X002831Y023029D02*
X005440Y023029D01*
X005440Y023161D02*
X005440Y022844D01*
X005452Y022769D01*
X005475Y022697D01*
X005510Y022630D01*
X005554Y022569D01*
X005607Y022515D01*
X005669Y022471D01*
X005736Y022437D01*
X005808Y022413D01*
X005882Y022401D01*
X005900Y022401D01*
X005900Y023161D01*
X005440Y023161D01*
X005440Y022871D02*
X002738Y022871D01*
X002580Y022712D02*
X005470Y022712D01*
X005569Y022554D02*
X002338Y022554D01*
X002801Y022262D02*
X002757Y022201D01*
X002723Y022133D01*
X002699Y022061D01*
X002687Y021987D01*
X002687Y021969D01*
X003447Y021969D01*
X003447Y021929D01*
X002687Y021929D01*
X002687Y021911D01*
X002699Y021837D01*
X002723Y021765D01*
X002757Y021697D01*
X002801Y021636D01*
X002855Y021583D01*
X002916Y021539D01*
X002983Y021504D01*
X003047Y021484D01*
X002862Y021407D01*
X002710Y021255D01*
X002627Y021056D01*
X002627Y020842D01*
X002710Y020643D01*
X002862Y020491D01*
X003060Y020409D01*
X003875Y020409D01*
X004073Y020491D01*
X004176Y020594D01*
X004279Y020491D01*
X004477Y020409D01*
X005292Y020409D01*
X005491Y020491D01*
X005643Y020643D01*
X005725Y020842D01*
X005725Y021056D01*
X005643Y021255D01*
X005491Y021407D01*
X005305Y021484D01*
X005369Y021504D01*
X005436Y021539D01*
X005497Y021583D01*
X005551Y021636D01*
X005595Y021697D01*
X005630Y021765D01*
X005653Y021837D01*
X005665Y021911D01*
X005665Y021929D01*
X004905Y021929D01*
X004905Y021969D01*
X005665Y021969D01*
X005665Y021987D01*
X005653Y022061D01*
X005630Y022133D01*
X005595Y022201D01*
X005551Y022262D01*
X005497Y022315D01*
X005436Y022360D01*
X005369Y022394D01*
X005297Y022417D01*
X005223Y022429D01*
X004905Y022429D01*
X004905Y021969D01*
X004865Y021969D01*
X004865Y022429D01*
X004547Y022429D01*
X004472Y022417D01*
X004400Y022394D01*
X004333Y022360D01*
X004272Y022315D01*
X004219Y022262D01*
X004176Y022203D01*
X004134Y022262D01*
X004080Y022315D01*
X004019Y022360D01*
X003952Y022394D01*
X003880Y022417D01*
X003805Y022429D01*
X003487Y022429D01*
X003487Y021969D01*
X003447Y021969D01*
X003447Y022429D01*
X003130Y022429D01*
X003055Y022417D01*
X002983Y022394D01*
X002916Y022360D01*
X002855Y022315D01*
X002801Y022262D01*
X002783Y022237D02*
X000955Y022237D01*
X000955Y022395D02*
X002987Y022395D01*
X002705Y022078D02*
X000955Y022078D01*
X000955Y021920D02*
X002687Y021920D01*
X002724Y021761D02*
X000955Y021761D01*
X000955Y021603D02*
X002835Y021603D01*
X002952Y021444D02*
X000955Y021444D01*
X000955Y021286D02*
X002740Y021286D01*
X002657Y021127D02*
X000955Y021127D01*
X000955Y020969D02*
X002627Y020969D01*
X002640Y020810D02*
X000955Y020810D01*
X000955Y020652D02*
X002706Y020652D01*
X002860Y020493D02*
X000955Y020493D01*
X000955Y020335D02*
X006473Y020335D01*
X006473Y020493D02*
X005493Y020493D01*
X005646Y020652D02*
X006472Y020652D01*
X006471Y020810D02*
X005712Y020810D01*
X005725Y020969D02*
X006471Y020969D01*
X006470Y021127D02*
X005695Y021127D01*
X005612Y021286D02*
X006469Y021286D01*
X006468Y021444D02*
X005401Y021444D01*
X005517Y021603D02*
X006468Y021603D01*
X006467Y021761D02*
X005628Y021761D01*
X005665Y021920D02*
X006466Y021920D01*
X006465Y022078D02*
X005647Y022078D01*
X005569Y022237D02*
X006465Y022237D01*
X006464Y022395D02*
X005365Y022395D01*
X004905Y022395D02*
X004865Y022395D01*
X004865Y022237D02*
X004905Y022237D01*
X004905Y022078D02*
X004865Y022078D01*
X004865Y021969D02*
X004865Y021929D01*
X004247Y021929D01*
X003487Y021929D01*
X003487Y021969D01*
X004865Y021969D01*
X004464Y021484D02*
X004400Y021504D01*
X004333Y021539D01*
X004272Y021583D01*
X004219Y021636D01*
X004176Y021695D01*
X004134Y021636D01*
X004080Y021583D01*
X004019Y021539D01*
X003952Y021504D01*
X003888Y021484D01*
X004073Y021407D01*
X004176Y021304D01*
X004279Y021407D01*
X004464Y021484D01*
X004369Y021444D02*
X003983Y021444D01*
X004100Y021603D02*
X004252Y021603D01*
X004200Y022237D02*
X004152Y022237D01*
X003948Y022395D02*
X004404Y022395D01*
X003487Y022395D02*
X003447Y022395D01*
X003447Y022237D02*
X003487Y022237D01*
X003487Y022078D02*
X003447Y022078D01*
X001368Y022554D02*
X000955Y022554D01*
X000955Y022712D02*
X001127Y022712D01*
X000968Y022871D02*
X000955Y022871D01*
X000955Y024220D02*
X000955Y024296D01*
X001024Y024296D01*
X000965Y024237D01*
X000955Y024220D01*
X005900Y023822D02*
X005940Y023822D01*
X005940Y023029D02*
X005900Y023029D01*
X005900Y022871D02*
X005940Y022871D01*
X005940Y022712D02*
X005900Y022712D01*
X005900Y022554D02*
X005940Y022554D01*
X006271Y022554D02*
X006480Y022554D01*
X006406Y022712D02*
X006370Y022712D01*
X007347Y021761D02*
X021860Y021761D01*
X021908Y021603D02*
X007348Y021603D01*
X007348Y021444D02*
X022019Y021444D01*
X022096Y021286D02*
X007349Y021286D01*
X007350Y021127D02*
X021940Y021127D01*
X021874Y020969D02*
X007351Y020969D01*
X007351Y020810D02*
X021860Y020810D01*
X021888Y020652D02*
X007352Y020652D01*
X007353Y020493D02*
X021970Y020493D01*
X022177Y020335D02*
X007353Y020335D01*
X007354Y020176D02*
X021985Y020176D01*
X021894Y020018D02*
X007355Y020018D01*
X007355Y019859D02*
X021860Y019859D01*
X021868Y019701D02*
X007356Y019701D01*
X007357Y019542D02*
X021933Y019542D01*
X022079Y019384D02*
X007358Y019384D01*
X007358Y019225D02*
X022034Y019225D01*
X021914Y019067D02*
X007359Y019067D01*
X007360Y018908D02*
X021860Y018908D01*
X021860Y018750D02*
X008070Y018750D01*
X007779Y018750D02*
X007360Y018750D01*
X007361Y018591D02*
X007526Y018591D01*
X007425Y018433D02*
X007423Y018433D01*
X006481Y018591D02*
X000955Y018591D01*
X000955Y018433D02*
X006425Y018433D01*
X006384Y018274D02*
X000955Y018274D01*
X000955Y018116D02*
X006384Y018116D01*
X006384Y017957D02*
X000955Y017957D01*
X000955Y017799D02*
X006384Y017799D01*
X006384Y017640D02*
X000955Y017640D01*
X000955Y017482D02*
X003165Y017482D01*
X003047Y017323D02*
X000955Y017323D01*
X000955Y017165D02*
X002994Y017165D01*
X002994Y017006D02*
X000955Y017006D01*
X000955Y016848D02*
X002703Y016848D01*
X002575Y016689D02*
X000955Y016689D01*
X000955Y016531D02*
X002557Y016531D01*
X002557Y016372D02*
X000955Y016372D01*
X000955Y016214D02*
X002557Y016214D01*
X002557Y016055D02*
X000955Y016055D01*
X000955Y015897D02*
X002557Y015897D01*
X002557Y015738D02*
X000955Y015738D01*
X000955Y015580D02*
X002557Y015580D01*
X002557Y015421D02*
X000955Y015421D01*
X000955Y015263D02*
X002557Y015263D01*
X002557Y015104D02*
X000955Y015104D01*
X000955Y014946D02*
X002557Y014946D01*
X002557Y014787D02*
X000955Y014787D01*
X000955Y014629D02*
X002557Y014629D01*
X002557Y014470D02*
X000955Y014470D01*
X000955Y014312D02*
X002557Y014312D01*
X002557Y014153D02*
X000955Y014153D01*
X000955Y013995D02*
X002557Y013995D01*
X002557Y013836D02*
X000955Y013836D01*
X000955Y013678D02*
X002557Y013678D01*
X002557Y013519D02*
X000955Y013519D01*
X000955Y013361D02*
X002557Y013361D01*
X002557Y013202D02*
X000955Y013202D01*
X000955Y013044D02*
X002557Y013044D01*
X002635Y012885D02*
X000955Y012885D01*
X000955Y012727D02*
X003130Y012727D01*
X003284Y012568D02*
X000955Y012568D01*
X000955Y012410D02*
X003093Y012410D01*
X003017Y012251D02*
X000955Y012251D01*
X000955Y012093D02*
X002994Y012093D01*
X003012Y011934D02*
X000955Y011934D01*
X000955Y011776D02*
X003081Y011776D01*
X003256Y011617D02*
X000955Y011617D01*
X003157Y013474D02*
X003157Y013788D01*
X003167Y013774D01*
X003221Y013721D01*
X003282Y013676D01*
X003349Y013642D01*
X003413Y013621D01*
X003228Y013545D01*
X003157Y013474D01*
X003157Y013519D02*
X003202Y013519D01*
X003157Y013678D02*
X003280Y013678D01*
X003157Y014385D02*
X003157Y014700D01*
X003228Y014629D01*
X003413Y014552D01*
X003349Y014532D01*
X003282Y014497D01*
X003221Y014453D01*
X003167Y014400D01*
X003157Y014385D01*
X003157Y014470D02*
X003244Y014470D01*
X003229Y014629D02*
X003157Y014629D01*
X003157Y015474D02*
X003157Y015700D01*
X003228Y015629D01*
X003330Y015587D01*
X003228Y015545D01*
X003157Y015474D01*
X003157Y015580D02*
X003312Y015580D01*
X005224Y016689D02*
X007714Y016689D01*
X007458Y017340D02*
X007390Y017340D01*
X007424Y017421D01*
X007458Y017340D01*
X008449Y017482D02*
X013661Y017482D01*
X013661Y017590D02*
X013661Y017273D01*
X013672Y017198D01*
X013696Y017126D01*
X013730Y017059D01*
X013775Y016998D01*
X013828Y016944D01*
X013889Y016900D01*
X013956Y016866D01*
X014028Y016842D01*
X014103Y016830D01*
X014121Y016830D01*
X014121Y017590D01*
X014161Y017590D01*
X014161Y016830D01*
X014178Y016830D01*
X014253Y016842D01*
X014325Y016866D01*
X014392Y016900D01*
X014453Y016944D01*
X014507Y016998D01*
X014551Y017059D01*
X014585Y017126D01*
X014606Y017190D01*
X014683Y017005D01*
X014835Y016853D01*
X015033Y016770D01*
X015248Y016770D01*
X015447Y016853D01*
X015598Y017005D01*
X015641Y017106D01*
X015683Y017005D01*
X015835Y016853D01*
X016033Y016770D01*
X016248Y016770D01*
X016447Y016853D01*
X016598Y017005D01*
X016681Y017203D01*
X016681Y018018D01*
X016598Y018216D01*
X016447Y018368D01*
X016248Y018450D01*
X016033Y018450D01*
X015835Y018368D01*
X015683Y018216D01*
X015641Y018114D01*
X015598Y018216D01*
X015447Y018368D01*
X015248Y018450D01*
X015033Y018450D01*
X014835Y018368D01*
X014683Y018216D01*
X014606Y018031D01*
X014585Y018095D01*
X014551Y018162D01*
X014507Y018223D01*
X014453Y018277D01*
X014392Y018321D01*
X014325Y018355D01*
X014253Y018379D01*
X014178Y018390D01*
X014161Y018390D01*
X014161Y017630D01*
X014121Y017630D01*
X014121Y017590D01*
X013661Y017590D01*
X013661Y017630D02*
X014121Y017630D01*
X014121Y018390D01*
X014103Y018390D01*
X014028Y018379D01*
X013956Y018355D01*
X013889Y018321D01*
X013828Y018277D01*
X013775Y018223D01*
X013730Y018162D01*
X013696Y018095D01*
X013672Y018023D01*
X013661Y017948D01*
X013661Y017630D01*
X013661Y017640D02*
X008464Y017640D01*
X008464Y017799D02*
X013661Y017799D01*
X013662Y017957D02*
X008464Y017957D01*
X008464Y018116D02*
X013706Y018116D01*
X013825Y018274D02*
X008464Y018274D01*
X008423Y018433D02*
X014990Y018433D01*
X014741Y018274D02*
X014456Y018274D01*
X014575Y018116D02*
X014641Y018116D01*
X014161Y018116D02*
X014121Y018116D01*
X014121Y018274D02*
X014161Y018274D01*
X014161Y017957D02*
X014121Y017957D01*
X014121Y017799D02*
X014161Y017799D01*
X014161Y017640D02*
X014121Y017640D01*
X014121Y017482D02*
X014161Y017482D01*
X014161Y017323D02*
X014121Y017323D01*
X014121Y017165D02*
X014161Y017165D01*
X014161Y017006D02*
X014121Y017006D01*
X014121Y016848D02*
X014161Y016848D01*
X014270Y016848D02*
X014847Y016848D01*
X014682Y017006D02*
X014513Y017006D01*
X014598Y017165D02*
X014617Y017165D01*
X014012Y016848D02*
X013227Y016848D01*
X013197Y017006D02*
X013768Y017006D01*
X013683Y017165D02*
X013169Y017165D01*
X012996Y017323D02*
X013661Y017323D01*
X013307Y016689D02*
X021872Y016689D01*
X021860Y016848D02*
X016434Y016848D01*
X016599Y017006D02*
X021889Y017006D01*
X021974Y017165D02*
X016665Y017165D01*
X016681Y017323D02*
X022186Y017323D01*
X021981Y017482D02*
X016681Y017482D01*
X016681Y017640D02*
X021893Y017640D01*
X021860Y017799D02*
X016681Y017799D01*
X016681Y017957D02*
X021869Y017957D01*
X021935Y018116D02*
X016640Y018116D01*
X016541Y018274D02*
X022083Y018274D01*
X022030Y018433D02*
X016291Y018433D01*
X015990Y018433D02*
X015291Y018433D01*
X015541Y018274D02*
X015741Y018274D01*
X015641Y018116D02*
X015640Y018116D01*
X015599Y017006D02*
X015682Y017006D01*
X015847Y016848D02*
X015434Y016848D01*
X013315Y016531D02*
X021938Y016531D01*
X022091Y016372D02*
X013261Y016372D01*
X013089Y016214D02*
X022188Y016214D01*
X021974Y016055D02*
X013181Y016055D01*
X013299Y015897D02*
X021890Y015897D01*
X021860Y015738D02*
X020558Y015738D01*
X020716Y015580D02*
X021872Y015580D01*
X021899Y014919D02*
X020758Y014919D01*
X020730Y014852D01*
X020553Y014675D01*
X020321Y014579D01*
X019291Y014579D01*
X019059Y014675D01*
X018882Y014852D01*
X018846Y014939D01*
X016169Y014939D01*
X016235Y014911D01*
X016358Y014788D01*
X016425Y014627D01*
X016425Y014515D01*
X021899Y014515D01*
X021860Y014609D01*
X021860Y014824D01*
X021899Y014919D01*
X021860Y014787D02*
X020665Y014787D01*
X020441Y014629D02*
X021860Y014629D01*
X019171Y014629D02*
X016424Y014629D01*
X016359Y014787D02*
X018947Y014787D01*
X018896Y015580D02*
X015882Y015580D01*
X015345Y015580D02*
X013315Y015580D01*
X013315Y015738D02*
X019054Y015738D01*
X015615Y014787D02*
X013472Y014787D01*
X013462Y014629D02*
X015550Y014629D01*
X015549Y014470D02*
X013379Y014470D01*
X013420Y014946D02*
X015276Y014946D01*
X015190Y015104D02*
X013315Y015104D01*
X013315Y015263D02*
X015175Y015263D01*
X015219Y015421D02*
X013315Y015421D01*
X012715Y015421D02*
X008313Y015421D01*
X007982Y015263D02*
X012715Y015263D01*
X012715Y015104D02*
X007982Y015104D01*
X007982Y014946D02*
X012688Y014946D01*
X012636Y014787D02*
X010209Y014787D01*
X010327Y014629D02*
X012646Y014629D01*
X012729Y014470D02*
X012160Y014470D01*
X010474Y013678D02*
X010304Y013678D01*
X010304Y013519D02*
X010633Y013519D01*
X010791Y013361D02*
X010304Y013361D01*
X010304Y013202D02*
X010950Y013202D01*
X007695Y011300D02*
X007173Y011300D01*
X007173Y011142D02*
X007721Y011142D01*
X007822Y010983D02*
X007173Y010983D01*
X007173Y010825D02*
X014221Y010825D01*
X014221Y010666D02*
X007173Y010666D01*
X007173Y010508D02*
X014221Y010508D01*
X014221Y010349D02*
X007173Y010349D01*
X007173Y010191D02*
X014221Y010191D01*
X014221Y010032D02*
X007173Y010032D01*
X007173Y009874D02*
X014221Y009874D01*
X014221Y009715D02*
X007173Y009715D01*
X007173Y009557D02*
X011219Y009557D01*
X011110Y009398D02*
X007173Y009398D01*
X007173Y009240D02*
X011080Y009240D01*
X011114Y009081D02*
X007173Y009081D01*
X007173Y008923D02*
X011229Y008923D01*
X011769Y008923D02*
X017331Y008923D01*
X017331Y009081D02*
X014757Y009081D01*
X014801Y009240D02*
X017331Y009240D01*
X017266Y009398D02*
X014801Y009398D01*
X014801Y009557D02*
X017156Y009557D01*
X017109Y009715D02*
X014801Y009715D01*
X014801Y009874D02*
X017109Y009874D01*
X017109Y010032D02*
X014801Y010032D01*
X014801Y010191D02*
X017109Y010191D01*
X017109Y010349D02*
X014801Y010349D01*
X014801Y010508D02*
X017117Y010508D01*
X017183Y010666D02*
X014801Y010666D01*
X014221Y009557D02*
X011778Y009557D01*
X011441Y008557D02*
X011226Y008557D01*
X011028Y008475D01*
X010876Y008323D01*
X010834Y008221D01*
X010791Y008323D01*
X010639Y008475D01*
X010441Y008557D01*
X010226Y008557D01*
X010028Y008475D01*
X009876Y008323D01*
X009834Y008221D01*
X009791Y008323D01*
X009639Y008475D01*
X009441Y008557D01*
X009226Y008557D01*
X009028Y008475D01*
X008876Y008323D01*
X008794Y008124D01*
X008794Y007309D01*
X008876Y007111D01*
X009028Y006959D01*
X009226Y006877D01*
X009441Y006877D01*
X009639Y006959D01*
X009791Y007111D01*
X009834Y007213D01*
X009876Y007111D01*
X010028Y006959D01*
X010226Y006877D01*
X010441Y006877D01*
X010639Y006959D01*
X010791Y007111D01*
X010834Y007213D01*
X010876Y007111D01*
X011028Y006959D01*
X011226Y006877D01*
X011441Y006877D01*
X011639Y006959D01*
X011791Y007111D01*
X011834Y007213D01*
X011876Y007111D01*
X012028Y006959D01*
X012226Y006877D01*
X012441Y006877D01*
X012639Y006959D01*
X012791Y007111D01*
X012874Y007309D01*
X012874Y008124D01*
X012791Y008323D01*
X012639Y008475D01*
X012441Y008557D01*
X012226Y008557D01*
X012028Y008475D01*
X011876Y008323D01*
X011834Y008221D01*
X011791Y008323D01*
X011639Y008475D01*
X011441Y008557D01*
X011667Y008447D02*
X012000Y008447D01*
X011862Y008289D02*
X011805Y008289D01*
X012667Y008447D02*
X017331Y008447D01*
X017331Y008289D02*
X012805Y008289D01*
X012871Y008130D02*
X017331Y008130D01*
X017331Y007972D02*
X012874Y007972D01*
X012874Y007813D02*
X017331Y007813D01*
X017331Y007655D02*
X012874Y007655D01*
X012874Y007496D02*
X017331Y007496D01*
X017331Y007338D02*
X012874Y007338D01*
X012820Y007179D02*
X017331Y007179D01*
X017331Y007021D02*
X012701Y007021D01*
X011966Y007021D02*
X011701Y007021D01*
X011820Y007179D02*
X011847Y007179D01*
X010966Y007021D02*
X010701Y007021D01*
X010820Y007179D02*
X010847Y007179D01*
X009966Y007021D02*
X009701Y007021D01*
X009820Y007179D02*
X009847Y007179D01*
X008966Y007021D02*
X006656Y007021D01*
X006656Y006862D02*
X017331Y006862D01*
X017331Y006704D02*
X006656Y006704D01*
X006625Y006545D02*
X017331Y006545D01*
X017331Y006387D02*
X006542Y006387D01*
X005812Y006228D02*
X004214Y006228D01*
X004396Y006387D02*
X005629Y006387D01*
X005546Y006545D02*
X004480Y006545D01*
X004510Y006704D02*
X005516Y006704D01*
X005516Y006862D02*
X004510Y006862D01*
X004510Y007021D02*
X005516Y007021D01*
X005516Y007179D02*
X004510Y007179D01*
X004510Y007338D02*
X005516Y007338D01*
X005516Y007496D02*
X004510Y007496D01*
X004492Y007655D02*
X005534Y007655D01*
X005602Y007813D02*
X004423Y007813D01*
X004272Y007972D02*
X005753Y007972D01*
X007173Y007972D02*
X008794Y007972D01*
X008796Y008130D02*
X007173Y008130D01*
X007173Y008289D02*
X008862Y008289D01*
X009000Y008447D02*
X007173Y008447D01*
X007173Y008606D02*
X017331Y008606D01*
X017331Y008764D02*
X007173Y008764D01*
X007231Y007813D02*
X008794Y007813D01*
X008794Y007655D02*
X007304Y007655D01*
X007311Y007496D02*
X008794Y007496D01*
X008794Y007338D02*
X007259Y007338D01*
X007119Y007179D02*
X008847Y007179D01*
X009805Y008289D02*
X009862Y008289D01*
X010000Y008447D02*
X009667Y008447D01*
X010667Y008447D02*
X011000Y008447D01*
X010862Y008289D02*
X010805Y008289D01*
X006573Y010825D02*
X006191Y010825D01*
X006310Y010983D02*
X006573Y010983D01*
X006573Y011142D02*
X006346Y011142D01*
X006320Y011300D02*
X006573Y011300D01*
X006573Y011459D02*
X006228Y011459D01*
X006228Y011617D02*
X006573Y011617D01*
X006573Y011776D02*
X006228Y011776D01*
X006228Y011934D02*
X006638Y011934D01*
X011156Y016214D02*
X012704Y016214D01*
X012533Y016372D02*
X011372Y016372D01*
X011441Y016531D02*
X012478Y016531D01*
X012486Y016689D02*
X011445Y016689D01*
X008322Y018591D02*
X021913Y018591D01*
X027882Y017323D02*
X028086Y017323D01*
X028086Y017165D02*
X027882Y017165D01*
X027882Y017006D02*
X028086Y017006D01*
X028086Y016848D02*
X027882Y016848D01*
X028966Y018433D02*
X030764Y018433D01*
X030764Y018591D02*
X028966Y018591D01*
X028966Y018750D02*
X030795Y018750D01*
X030912Y018908D02*
X028966Y018908D01*
X028966Y019067D02*
X034552Y019067D01*
X035206Y018451D02*
X035206Y018027D01*
X035258Y018048D01*
X035372Y018048D01*
X035381Y018057D01*
X035298Y018141D01*
X035234Y018295D01*
X035234Y018451D01*
X035206Y018451D01*
X035206Y018433D02*
X035234Y018433D01*
X035243Y018274D02*
X035206Y018274D01*
X035206Y018116D02*
X035323Y018116D01*
X035652Y018378D02*
X036538Y018378D01*
X036267Y018058D02*
X036001Y018058D01*
X036063Y017996D01*
X036130Y017835D01*
X036130Y017661D01*
X036063Y017500D01*
X035940Y017377D01*
X035779Y017310D01*
X035618Y017310D01*
X035618Y015369D01*
X035724Y015325D01*
X035808Y015241D01*
X035839Y015166D01*
X035961Y015166D01*
X036160Y015084D01*
X036312Y014932D01*
X036394Y014734D01*
X036394Y014519D01*
X036312Y014320D01*
X036160Y014168D01*
X036058Y014126D01*
X036160Y014084D01*
X036312Y013932D01*
X036394Y013734D01*
X036394Y013519D01*
X036486Y013519D01*
X036526Y013423D01*
X036354Y013423D01*
X036394Y013519D01*
X036486Y013519D02*
X036486Y013734D01*
X036568Y013932D01*
X036720Y014084D01*
X036822Y014126D01*
X036720Y014168D01*
X036568Y014320D01*
X036486Y014519D01*
X036486Y014734D01*
X036568Y014932D01*
X036720Y015084D01*
X036918Y015166D01*
X036919Y015166D01*
X036911Y015169D01*
X036794Y015287D01*
X036730Y015441D01*
X036730Y015607D01*
X036789Y015748D01*
X036789Y018037D01*
X036775Y018023D01*
X036621Y017960D01*
X036455Y017960D01*
X036301Y018023D01*
X036267Y018058D01*
X036079Y017957D02*
X036789Y017957D01*
X036789Y017799D02*
X036130Y017799D01*
X036121Y017640D02*
X036789Y017640D01*
X036789Y017482D02*
X036045Y017482D01*
X035810Y017323D02*
X036789Y017323D01*
X036789Y017165D02*
X035618Y017165D01*
X035618Y017006D02*
X036789Y017006D01*
X036789Y016848D02*
X035618Y016848D01*
X035618Y016689D02*
X036789Y016689D01*
X036789Y016531D02*
X035618Y016531D01*
X035618Y016372D02*
X036789Y016372D01*
X036789Y016214D02*
X035618Y016214D01*
X035618Y016055D02*
X036789Y016055D01*
X036789Y015897D02*
X035618Y015897D01*
X035618Y015738D02*
X036784Y015738D01*
X036730Y015580D02*
X035618Y015580D01*
X035618Y015421D02*
X036738Y015421D01*
X036818Y015263D02*
X035787Y015263D01*
X036111Y015104D02*
X036768Y015104D01*
X036581Y014946D02*
X036298Y014946D01*
X036372Y014787D02*
X036508Y014787D01*
X036486Y014629D02*
X036394Y014629D01*
X036374Y014470D02*
X036506Y014470D01*
X036577Y014312D02*
X036303Y014312D01*
X036123Y014153D02*
X036757Y014153D01*
X036630Y013995D02*
X036249Y013995D01*
X036352Y013836D02*
X036528Y013836D01*
X036486Y013678D02*
X036394Y013678D01*
X036078Y013103D02*
X035554Y013626D01*
X035050Y014126D02*
X034948Y014084D01*
X034895Y014030D01*
X034841Y014084D01*
X034739Y014126D01*
X034841Y014168D01*
X034895Y014222D01*
X034948Y014168D01*
X035050Y014126D01*
X034985Y014153D02*
X034804Y014153D01*
X034235Y013626D02*
X035054Y012807D01*
X039294Y012807D01*
X042463Y009638D01*
X042463Y006685D01*
X042897Y006252D01*
X042995Y006252D01*
X043413Y006228D02*
X044742Y006228D01*
X045062Y005859D02*
X042089Y005859D01*
X042089Y009047D01*
X039058Y009047D01*
X038349Y009756D01*
X033999Y009756D01*
X033782Y009540D01*
X033782Y008792D01*
X033802Y008772D01*
X034412Y008772D01*
X035042Y008772D01*
X035042Y008752D01*
X035475Y008752D01*
X035846Y008606D02*
X041769Y008606D01*
X041769Y008447D02*
X035734Y008447D01*
X035499Y008289D02*
X041769Y008289D01*
X041769Y008130D02*
X035499Y008130D01*
X035464Y007972D02*
X041769Y007972D01*
X041769Y007813D02*
X033354Y007813D01*
X033354Y007655D02*
X041769Y007655D01*
X041769Y007496D02*
X033354Y007496D01*
X033354Y007338D02*
X041769Y007338D01*
X041769Y007179D02*
X038401Y007179D01*
X038219Y007179D02*
X035803Y007179D01*
X035620Y007179D02*
X033354Y007179D01*
X032754Y007179D02*
X028966Y007179D01*
X028966Y007338D02*
X032754Y007338D01*
X032754Y007496D02*
X028966Y007496D01*
X028966Y007655D02*
X032754Y007655D01*
X032754Y007813D02*
X028966Y007813D01*
X028966Y007972D02*
X032754Y007972D01*
X032754Y008130D02*
X028966Y008130D01*
X028966Y008289D02*
X032754Y008289D01*
X032754Y008447D02*
X028966Y008447D01*
X028966Y008606D02*
X032754Y008606D01*
X032754Y008764D02*
X028966Y008764D01*
X028966Y008923D02*
X032754Y008923D01*
X032754Y009081D02*
X028966Y009081D01*
X028966Y009240D02*
X032754Y009240D01*
X032754Y009398D02*
X028966Y009398D01*
X028966Y009557D02*
X032793Y009557D01*
X032943Y009715D02*
X028966Y009715D01*
X028966Y009874D02*
X033102Y009874D01*
X033260Y010032D02*
X031379Y010032D01*
X031186Y010032D02*
X028966Y010032D01*
X028966Y010825D02*
X031105Y010825D01*
X031460Y010825D02*
X040824Y010825D01*
X040666Y010983D02*
X028966Y010983D01*
X031644Y010666D02*
X040983Y010666D01*
X041141Y010508D02*
X038791Y010508D01*
X038617Y010508D02*
X031701Y010508D01*
X031696Y010349D02*
X033583Y010349D01*
X033419Y010191D02*
X031620Y010191D01*
X033354Y009240D02*
X033462Y009240D01*
X033462Y009081D02*
X033354Y009081D01*
X033354Y008923D02*
X033462Y008923D01*
X033462Y008764D02*
X033354Y008764D01*
X033354Y008606D02*
X033516Y008606D01*
X033354Y008447D02*
X033976Y008447D01*
X033976Y008130D02*
X033354Y008130D01*
X033354Y007972D02*
X034033Y007972D01*
X034354Y007972D02*
X034391Y007972D01*
X034391Y008130D02*
X034354Y008130D01*
X034354Y008289D02*
X033354Y008289D01*
X034412Y008772D02*
X034412Y009146D01*
X035042Y008752D02*
X035042Y008299D01*
X035874Y008764D02*
X038906Y008764D01*
X038730Y008923D02*
X035855Y008923D01*
X035931Y009081D02*
X038572Y009081D01*
X038413Y009240D02*
X035933Y009240D01*
X035866Y009398D02*
X038255Y009398D01*
X038890Y009715D02*
X041934Y009715D01*
X042092Y009557D02*
X039001Y009557D01*
X039160Y009398D02*
X042143Y009398D01*
X041775Y009874D02*
X039067Y009874D01*
X039122Y010032D02*
X041617Y010032D01*
X041458Y010191D02*
X039115Y010191D01*
X039037Y010349D02*
X041300Y010349D01*
X045371Y009398D02*
X047574Y009398D01*
X047574Y009240D02*
X045372Y009240D01*
X045373Y009081D02*
X047574Y009081D01*
X047610Y008923D02*
X045374Y008923D01*
X045425Y007496D02*
X047681Y007496D01*
X047574Y007338D02*
X045480Y007338D01*
X045473Y007179D02*
X047574Y007179D01*
X047574Y007021D02*
X045395Y007021D01*
X046830Y006704D02*
X047574Y006704D01*
X047574Y006545D02*
X047087Y006545D01*
X047245Y006387D02*
X047574Y006387D01*
X047582Y006228D02*
X047347Y006228D01*
X047426Y006070D02*
X048932Y006070D01*
X048932Y005911D02*
X047468Y005911D01*
X047491Y005753D02*
X048932Y005753D01*
X048932Y005594D02*
X047491Y005594D01*
X047464Y005436D02*
X048932Y005436D01*
X048932Y005277D02*
X047422Y005277D01*
X047338Y005119D02*
X048932Y005119D01*
X048932Y004960D02*
X047229Y004960D01*
X047071Y004802D02*
X048932Y004802D01*
X048932Y004643D02*
X046795Y004643D01*
X045967Y004643D02*
X042443Y004643D01*
X043068Y004485D02*
X048932Y004485D01*
X045691Y004802D02*
X043068Y004802D01*
X043068Y004960D02*
X045532Y004960D01*
X045424Y005119D02*
X043068Y005119D01*
X043068Y005277D02*
X045340Y005277D01*
X045298Y005436D02*
X043068Y005436D01*
X042518Y006179D02*
X042409Y006179D01*
X042409Y006287D01*
X042518Y006179D01*
X042468Y006228D02*
X042409Y006228D01*
X041769Y006387D02*
X038492Y006387D01*
X038672Y006545D02*
X041769Y006545D01*
X041769Y006704D02*
X038728Y006704D01*
X038722Y006862D02*
X041769Y006862D01*
X041769Y007021D02*
X038645Y007021D01*
X038310Y006764D02*
X033113Y006764D01*
X028526Y006764D01*
X028765Y006387D02*
X035529Y006387D01*
X035894Y006387D02*
X038128Y006387D01*
X045250Y005594D02*
X045271Y005594D01*
X048499Y006228D02*
X048659Y006228D01*
X048659Y006387D02*
X048499Y006387D01*
X048499Y006545D02*
X048659Y006545D01*
X048659Y006704D02*
X048499Y006704D01*
X039412Y013103D02*
X036078Y013103D01*
X037830Y014126D02*
X037932Y014168D01*
X037985Y014222D01*
X038039Y014168D01*
X038141Y014126D01*
X038039Y014084D01*
X037985Y014030D01*
X037932Y014084D01*
X037830Y014126D01*
X037895Y014153D02*
X038076Y014153D01*
X039202Y015104D02*
X046191Y015104D01*
X046100Y014946D02*
X039389Y014946D01*
X038877Y015263D02*
X046410Y015263D01*
X046156Y015421D02*
X037960Y015421D01*
X037960Y015580D02*
X046055Y015580D01*
X046013Y015738D02*
X037960Y015738D01*
X037960Y015897D02*
X046014Y015897D01*
X046080Y016055D02*
X037960Y016055D01*
X037960Y016214D02*
X046216Y016214D01*
X048385Y019384D02*
X048932Y019384D01*
X048932Y019542D02*
X048544Y019542D01*
X048654Y019701D02*
X048932Y019701D01*
X048932Y019859D02*
X048739Y019859D01*
X048782Y020018D02*
X048932Y020018D01*
X048932Y020176D02*
X048810Y020176D01*
X048810Y020335D02*
X048932Y020335D01*
X048932Y020493D02*
X048788Y020493D01*
X048746Y020652D02*
X048932Y020652D01*
X048932Y020810D02*
X048668Y020810D01*
X048569Y020969D02*
X048932Y020969D01*
X048932Y021127D02*
X048410Y021127D01*
X048157Y021286D02*
X048932Y021286D01*
X048932Y021444D02*
X036361Y021444D01*
X036386Y021603D02*
X048932Y021603D01*
X048932Y021761D02*
X036348Y021761D01*
X036226Y021920D02*
X048932Y021920D01*
X048932Y022078D02*
X034590Y022078D01*
X034590Y021920D02*
X035708Y021920D01*
X035587Y021761D02*
X034590Y021761D01*
X034557Y021603D02*
X035549Y021603D01*
X035574Y021444D02*
X034488Y021444D01*
X034329Y021286D02*
X035607Y021286D01*
X036327Y021286D02*
X047243Y021286D01*
X046989Y021127D02*
X036327Y021127D01*
X036327Y020969D02*
X038528Y020969D01*
X038800Y020969D02*
X046831Y020969D01*
X046731Y020810D02*
X039088Y020810D01*
X039218Y020652D02*
X046653Y020652D01*
X046611Y020493D02*
X039284Y020493D01*
X039294Y020335D02*
X046590Y020335D01*
X046590Y020176D02*
X039294Y020176D01*
X039294Y020018D02*
X046618Y020018D01*
X048932Y022237D02*
X038530Y022237D01*
X038746Y022395D02*
X048932Y022395D01*
X048932Y022554D02*
X038846Y022554D01*
X038901Y022712D02*
X048932Y022712D01*
X048932Y022871D02*
X038901Y022871D01*
X038901Y023029D02*
X048932Y023029D01*
X048932Y023188D02*
X038901Y023188D01*
X038901Y023346D02*
X048932Y023346D01*
X048932Y023505D02*
X038901Y023505D01*
X038901Y023663D02*
X048932Y023663D01*
X048932Y023822D02*
X038857Y023822D01*
X038772Y023980D02*
X048932Y023980D01*
X048932Y024139D02*
X038595Y024139D01*
X037946Y024139D02*
X023452Y024139D01*
X023516Y023663D02*
X023641Y023663D01*
X023521Y023505D02*
X023441Y023505D01*
X023480Y023346D02*
X023250Y023346D01*
X023403Y023188D02*
X023480Y023188D01*
X031564Y018116D02*
X034406Y018116D01*
X034406Y017957D02*
X031583Y017957D01*
X031548Y017799D02*
X034406Y017799D01*
X034406Y017640D02*
X031431Y017640D01*
X036145Y017020D02*
X036105Y016134D01*
X035018Y015263D02*
X034983Y015263D01*
X034997Y015104D02*
X034792Y015104D01*
X037509Y018345D02*
X037509Y018412D01*
X037763Y018412D01*
X037734Y018383D01*
X037601Y018383D01*
X037509Y018345D01*
X038034Y020335D02*
X036327Y020335D01*
X036327Y020493D02*
X038045Y020493D01*
X038110Y020652D02*
X036327Y020652D01*
X036327Y020810D02*
X038240Y020810D01*
X038011Y022237D02*
X034590Y022237D01*
X034590Y022395D02*
X037795Y022395D01*
X037641Y022871D02*
X034524Y022871D01*
X034408Y023029D02*
X037641Y023029D01*
X018156Y009557D02*
X018141Y009557D01*
X018031Y009398D02*
X018266Y009398D01*
X003666Y006228D02*
X002669Y006228D01*
X004620Y017323D02*
X004825Y017323D01*
X004502Y017482D02*
X006399Y017482D01*
X006480Y018750D02*
X000955Y018750D01*
X000955Y018908D02*
X006480Y018908D01*
X006479Y019067D02*
X000955Y019067D01*
X000955Y019225D02*
X006478Y019225D01*
X006478Y019384D02*
X000955Y019384D01*
X000955Y019542D02*
X006477Y019542D01*
X006476Y019701D02*
X000955Y019701D01*
X000955Y019859D02*
X006475Y019859D01*
X006475Y020018D02*
X000955Y020018D01*
X000955Y020176D02*
X006474Y020176D01*
X004277Y020493D02*
X004075Y020493D01*
D24*
X007660Y021725D02*
X014137Y021685D01*
X014137Y019244D01*
X007582Y016193D02*
X007582Y014461D01*
X009944Y014461D01*
X031164Y017965D02*
X031164Y018595D01*
X032818Y018595D01*
X034806Y018595D01*
X034806Y018536D02*
X034806Y015622D01*
X034235Y015622D01*
D25*
X036400Y008378D03*
X036735Y008378D03*
X037070Y008378D03*
X037404Y008378D03*
X037404Y008044D03*
X037070Y008044D03*
X036735Y008044D03*
X036400Y008044D03*
X036400Y007709D03*
X036735Y007709D03*
X037070Y007709D03*
X037404Y007709D03*
X043172Y007866D03*
X043566Y007866D03*
X043566Y008260D03*
X043192Y008260D03*
D26*
X035987Y009244D03*
X035534Y009166D03*
X035475Y008752D03*
X035652Y006016D03*
M02*
