%
M48
M72
T01C0.0118
T02C0.0157
T03C0.0197
T04C0.0236
T05C0.0240
T06C0.0400
T07C0.0520
T08C0.1260
%
T01
X36400Y7709
X36400Y8044
X36735Y8044
X37070Y8044
X37404Y8044
X37404Y7709
X37070Y7709
X36735Y7709
X36735Y8378
X36400Y8378
X37070Y8378
X37404Y8378
X43192Y8260
X43566Y8260
X43566Y7866
X43172Y7866
T02
X35987Y9244
X35534Y9166
X35475Y8752
X35652Y6016
T03
X6676Y4658
X8645Y4658
X10613Y4658
X12582Y4658
X14550Y4658
X16519Y4658
X19649Y4559
X22030Y7807
X23999Y7807
X25574Y7807
X27149Y7807
X28526Y6764
X31184Y6213
X31184Y7394
X31184Y8575
X31184Y9756
X31282Y10445
X33448Y10957
X33448Y12138
X36991Y12138
X38172Y12138
X39294Y12138
X40023Y11410
X40889Y12138
X41597Y11429
X42326Y10701
X41519Y9933
X40771Y10681
X38704Y10091
X38015Y10603
X36991Y10957
X40160Y12866
X41007Y13614
X41656Y12965
X42345Y12276
X47089Y13398
X48408Y15721
X48408Y18083
X46440Y18083
X44471Y18083
X42503Y17256
X42109Y18437
X42109Y20012
X42109Y21587
X42109Y23555
X40534Y23555
X37089Y23575
X35967Y21587
X33546Y21173
X32759Y21173
X32759Y20386
X33546Y20386
X33546Y19599
X32759Y19599
X35652Y18378
X36538Y18378
X36145Y17020
X36105Y16134
X37149Y15524
X38566Y15681
X40928Y15681
X34235Y15622
X31184Y15268
X31184Y16055
X31184Y16843
X31912Y17630
X31164Y17965
X27975Y16351
X27149Y16469
X27582Y15445
X28526Y14973
X27149Y13713
X28526Y13477
X27149Y12532
X27149Y11351
X27149Y10170
X27149Y8988
X27975Y8988
X33645Y8063
X35711Y6764
X38310Y6764
X39747Y7236
X40456Y7256
X41440Y7394
X41400Y6508
X40574Y6508
X40574Y5859
X41400Y5859
X42995Y6252
X43487Y6764
X45062Y7280
X46026Y7729
X47011Y7729
X46420Y7000
X47759Y5996
X48763Y5996
X47759Y4717
X45692Y4540
X44609Y4717
X43211Y4481
X43211Y5406
X38763Y5445
X38763Y4461
X39156Y8418
X40456Y8634
X41479Y8595
X44629Y8713
X46046Y8634
X47011Y8634
X47916Y10406
X48802Y10406
X28526Y20839
X27149Y21193
X27149Y20012
X27149Y18831
X27149Y17650
X31578Y21961
X32759Y21961
X32759Y22748
X31578Y22748
X28526Y22335
X27582Y22847
X27149Y22374
X12897Y16587
X11991Y15307
X13054Y14736
X11853Y14185
X11361Y14185
X10869Y14185
X10377Y14185
X9944Y14461
X10318Y15307
X8133Y15799
X6361Y13792
X1952Y13319
X1952Y11351
X1952Y9382
X5928Y11154
X7463Y8733
X11499Y9244
X15337Y10957
X14097Y11292
X16519Y10957
X18408Y11784
X20456Y12138
X18487Y13103
X17975Y13103
X16361Y8733
X1952Y15288
X1952Y21193
T04
X7660Y21725
X13400Y19260
X14251Y20359
X14251Y21386
X14251Y23299
X19778Y23299
X21715Y22335
X23625Y22315
X19778Y21386
X19778Y20323
X19778Y19260
X19778Y18410
X19778Y17347
X15613Y15229
X15987Y14540
X11007Y16626
X8113Y16508
X7582Y16193
X9038Y11744
X8133Y11292
X6873Y7551
X17621Y5012
X18629Y5012
X20649Y4796
X35692Y17748
X38054Y18083
X41026Y19520
X32818Y18595
T05
X6794Y15244
X6794Y13244
T06
X3834Y13087
X3834Y14087
X3834Y15087
X3834Y16087
X3834Y17087
X6924Y17925
X7924Y17925
X4885Y20949
X3467Y20949
X3467Y21949
X4885Y21949
X5920Y23181
X6920Y23181
X14141Y17610
X15141Y17610
X16141Y17610
X22700Y17827
X22700Y16827
X22700Y15717
X22700Y14717
X22700Y13717
X22700Y12717
X22700Y11717
X22700Y10717
X22700Y9717
X22700Y8717
X20649Y10079
X19649Y10079
X18649Y10079
X17649Y10079
X12334Y7717
X11334Y7717
X10334Y7717
X9334Y7717
X3834Y12087
X22700Y18827
X22700Y19827
X22700Y20827
X22700Y21827
X22700Y22827
X22700Y23827
X34235Y14626
X35554Y14626
X35554Y13626
X34235Y13626
X37326Y13626
X38645Y13626
X38645Y14626
X37326Y14626
X43164Y12217
X44164Y12217
X45467Y12217
X46467Y12217
X46853Y14788
X46853Y15788
T07
X38664Y19953
X33960Y22197
X38271Y23201
X19806Y15209
X6086Y7118
X3940Y7118
X1794Y7118
T08
X2404Y5150
X1853Y23555
X46381Y5681
X47700Y20268
M30
