G75*
G70*
%OFA0B0*%
%FSLAX24Y24*%
%IPPOS*%
%LPD*%
%AMOC8*
5,1,8,0,0,1.08239X$1,22.5*
%
%ADD10R,0.0552X0.0198*%
%ADD11R,0.0198X0.0552*%
%ADD12C,0.0680*%
%ADD13R,0.0356X0.0178*%
%ADD14R,0.0178X0.0356*%
%ADD15R,0.1517X0.1123*%
%ADD16R,0.0671X0.0592*%
%ADD17R,0.1024X0.1024*%
%ADD18R,0.0354X0.0177*%
%ADD19R,0.0177X0.0354*%
%ADD20R,0.0513X0.0474*%
%ADD21C,0.0520*%
%ADD22R,0.0474X0.0513*%
%ADD23R,0.0434X0.0356*%
%ADD24R,0.0592X0.0671*%
%ADD25R,0.0631X0.0474*%
%ADD26R,0.0880X0.0340*%
%ADD27C,0.0860*%
%ADD28R,0.0710X0.0592*%
%ADD29R,0.0710X0.1143*%
%ADD30C,0.0830*%
%ADD31C,0.1130*%
%ADD32R,0.0690X0.0592*%
%ADD33R,0.0946X0.0316*%
%ADD34R,0.0237X0.0552*%
%ADD35R,0.0340X0.0880*%
%ADD36R,0.1261X0.0710*%
%ADD37R,0.0960X0.0560*%
%ADD38R,0.0946X0.1497*%
%ADD39R,0.0552X0.0316*%
%ADD40C,0.0476*%
%ADD41C,0.0437*%
D10*
X009510Y009219D03*
X009510Y009416D03*
X009510Y009613D03*
X009510Y009810D03*
X009510Y010006D03*
X009510Y010203D03*
X009510Y010400D03*
X009510Y010597D03*
X009510Y010794D03*
X009510Y010991D03*
X009510Y011188D03*
X009510Y011384D03*
X009510Y011581D03*
X009510Y011778D03*
X009510Y011975D03*
X009510Y012172D03*
X013959Y012172D03*
X013959Y011975D03*
X013959Y011778D03*
X013959Y011581D03*
X013959Y011384D03*
X013959Y011188D03*
X013959Y010991D03*
X013959Y010794D03*
X013959Y010597D03*
X013959Y010400D03*
X013959Y010203D03*
X013959Y010006D03*
X013959Y009810D03*
X013959Y009613D03*
X013959Y009416D03*
X013959Y009219D03*
D11*
X013211Y008471D03*
X013014Y008471D03*
X012817Y008471D03*
X012621Y008471D03*
X012424Y008471D03*
X012227Y008471D03*
X012030Y008471D03*
X011833Y008471D03*
X011636Y008471D03*
X011440Y008471D03*
X011243Y008471D03*
X011046Y008471D03*
X010849Y008471D03*
X010652Y008471D03*
X010455Y008471D03*
X010258Y008471D03*
X010258Y012920D03*
X010455Y012920D03*
X010652Y012920D03*
X010849Y012920D03*
X011046Y012920D03*
X011243Y012920D03*
X011440Y012920D03*
X011636Y012920D03*
X011833Y012920D03*
X012030Y012920D03*
X012227Y012920D03*
X012424Y012920D03*
X012621Y012920D03*
X012817Y012920D03*
X013014Y012920D03*
X013211Y012920D03*
D12*
X014455Y014348D02*
X014455Y014948D01*
X015455Y014948D02*
X015455Y014348D01*
X016455Y014348D02*
X016455Y014948D01*
X022714Y014865D02*
X023314Y014865D01*
X023314Y013865D02*
X022714Y013865D01*
X022714Y012754D02*
X023314Y012754D01*
X023314Y011754D02*
X022714Y011754D01*
X022714Y010754D02*
X023314Y010754D01*
X023314Y009754D02*
X022714Y009754D01*
X022714Y008754D02*
X023314Y008754D01*
X023314Y007754D02*
X022714Y007754D01*
X022714Y006754D02*
X023314Y006754D01*
X023314Y005754D02*
X022714Y005754D01*
X020963Y006817D02*
X020963Y007417D01*
X019963Y007417D02*
X019963Y006817D01*
X018963Y006817D02*
X018963Y007417D01*
X017963Y007417D02*
X017963Y006817D01*
X012648Y005054D02*
X012648Y004454D01*
X011648Y004454D02*
X011648Y005054D01*
X010648Y005054D02*
X010648Y004454D01*
X009648Y004454D02*
X009648Y005054D01*
X004448Y009125D02*
X003848Y009125D01*
X003848Y010125D02*
X004448Y010125D01*
X004448Y011125D02*
X003848Y011125D01*
X003848Y012125D02*
X004448Y012125D01*
X004448Y013125D02*
X003848Y013125D01*
X003848Y014125D02*
X004448Y014125D01*
X007239Y014663D02*
X007239Y015263D01*
X008239Y015263D02*
X008239Y014663D01*
X005499Y017987D02*
X004899Y017987D01*
X004082Y017987D02*
X003482Y017987D01*
X003482Y018987D02*
X004082Y018987D01*
X004899Y018987D02*
X005499Y018987D01*
X006235Y019919D02*
X006235Y020519D01*
X007235Y020519D02*
X007235Y019919D01*
X022714Y019865D02*
X023314Y019865D01*
X023314Y020865D02*
X022714Y020865D01*
X022714Y018865D02*
X023314Y018865D01*
X023314Y017865D02*
X022714Y017865D01*
X022714Y016865D02*
X023314Y016865D01*
X023314Y015865D02*
X022714Y015865D01*
X034250Y011664D02*
X034850Y011664D01*
X035569Y011664D02*
X036169Y011664D01*
X037340Y011664D02*
X037940Y011664D01*
X038659Y011664D02*
X039259Y011664D01*
X039259Y010664D02*
X038659Y010664D01*
X037940Y010664D02*
X037340Y010664D01*
X036169Y010664D02*
X035569Y010664D01*
X034850Y010664D02*
X034250Y010664D01*
X044581Y010342D02*
X044581Y009742D01*
X045581Y009742D02*
X045581Y010342D01*
X046884Y010342D02*
X046884Y009742D01*
X047884Y009742D02*
X047884Y010342D01*
X047970Y012613D02*
X048570Y012613D01*
X048570Y013613D02*
X047970Y013613D01*
D13*
X038156Y006361D03*
X038156Y006164D03*
X038156Y005967D03*
X038156Y005770D03*
X038156Y005573D03*
X038156Y005377D03*
X036266Y005377D03*
X036266Y005573D03*
X036266Y005770D03*
X036266Y005967D03*
X036266Y006164D03*
X036266Y006361D03*
D14*
X036522Y006617D03*
X036719Y006617D03*
X036916Y006617D03*
X037113Y006617D03*
X037310Y006617D03*
X037506Y006617D03*
X037703Y006617D03*
X037900Y006617D03*
X037900Y005121D03*
X037703Y005121D03*
X037506Y005121D03*
X037310Y005121D03*
X037113Y005121D03*
X036916Y005121D03*
X036719Y005121D03*
X036522Y005121D03*
D15*
X037215Y005869D03*
D16*
X036203Y007640D03*
X035317Y007640D03*
X035317Y008388D03*
X036203Y008310D03*
D17*
X043487Y005947D03*
D18*
X042699Y005819D03*
X042699Y006075D03*
X042699Y006331D03*
X044274Y006331D03*
X044274Y006075D03*
X044274Y005819D03*
X044274Y005564D03*
X042699Y005564D03*
D19*
X043103Y005160D03*
X043359Y005160D03*
X043615Y005160D03*
X043871Y005160D03*
X043871Y006735D03*
X043615Y006735D03*
X043359Y006735D03*
X043103Y006735D03*
D20*
X043880Y007877D03*
X044550Y007877D03*
X039884Y007247D03*
X039215Y007247D03*
X037542Y007109D03*
X036873Y007109D03*
X034471Y006853D03*
X033802Y006853D03*
X033566Y005495D03*
X034235Y005495D03*
X034766Y005495D03*
X035436Y005495D03*
X043880Y004058D03*
X044550Y004058D03*
X044786Y011125D03*
X045455Y011125D03*
X037837Y016026D03*
X037837Y016695D03*
X037837Y017345D03*
X037837Y018014D03*
X035003Y018014D03*
X035003Y017345D03*
X035003Y016695D03*
X035003Y016026D03*
X013762Y007148D03*
X013093Y007148D03*
X010436Y007719D03*
X009766Y007719D03*
X009136Y007719D03*
X008467Y007719D03*
X004077Y007247D03*
X003408Y007247D03*
X008467Y010337D03*
X008467Y011006D03*
X008467Y011617D03*
X008467Y012286D03*
X010022Y013644D03*
X010691Y013644D03*
X007719Y017109D03*
X007050Y017109D03*
D21*
X006889Y012282D02*
X007329Y012282D01*
X007329Y010282D02*
X006889Y010282D01*
D22*
X005711Y010298D03*
X005711Y010967D03*
X005711Y011617D03*
X005711Y012286D03*
X002345Y014136D03*
X001676Y014136D03*
X006282Y017109D03*
X006282Y017778D03*
X014550Y013014D03*
X015357Y013014D03*
X015357Y012345D03*
X014550Y012345D03*
X008467Y009727D03*
X008467Y009058D03*
X013841Y008487D03*
X013841Y007817D03*
X014491Y007227D03*
X015160Y007227D03*
X015160Y006420D03*
X014491Y006420D03*
X014491Y005455D03*
X015160Y005455D03*
X015160Y004648D03*
X014491Y004648D03*
X030849Y006321D03*
X030849Y006991D03*
X030849Y007503D03*
X030849Y008172D03*
X030691Y009491D03*
X031361Y009491D03*
X031636Y010377D03*
X030829Y010377D03*
X030829Y011046D03*
X030829Y011558D03*
X031636Y011046D03*
X030829Y012227D03*
X030770Y013841D03*
X030770Y014510D03*
X030770Y015022D03*
X030770Y015691D03*
X030672Y016873D03*
X031341Y016873D03*
X031440Y017758D03*
X030632Y017758D03*
X030632Y018428D03*
X031440Y018428D03*
X030632Y018940D03*
X030632Y019609D03*
X035947Y018014D03*
X036873Y018014D03*
X036873Y017345D03*
X035947Y017345D03*
X035947Y016695D03*
X036873Y016695D03*
X036873Y016026D03*
X035947Y016026D03*
X034314Y015475D03*
X033644Y015475D03*
X033644Y014648D03*
X034314Y014648D03*
X047286Y013349D03*
X047286Y012680D03*
X038349Y008191D03*
X038349Y007522D03*
X035849Y006833D03*
X035180Y006833D03*
X035751Y004825D03*
X036558Y004530D03*
X035751Y004156D03*
X036558Y003861D03*
X038172Y003861D03*
X038172Y004530D03*
D23*
X038762Y005180D03*
X038762Y005691D03*
X038762Y006361D03*
X038762Y006873D03*
D24*
X039412Y006420D03*
X040160Y006420D03*
X040160Y005613D03*
X039412Y005613D03*
X039432Y008054D03*
X040180Y008054D03*
D25*
X016676Y006814D03*
X015810Y007188D03*
X015810Y006440D03*
X015810Y005416D03*
X016676Y005042D03*
X015810Y004668D03*
D26*
X025837Y006004D03*
X025837Y006504D03*
X025837Y007004D03*
X025837Y007504D03*
X025837Y008004D03*
X025837Y008504D03*
X025837Y009004D03*
X025837Y009504D03*
X025837Y010004D03*
X025837Y010504D03*
X025837Y011004D03*
X025837Y011504D03*
X025837Y012004D03*
X025837Y012504D03*
X025837Y013367D03*
X025837Y013867D03*
X025837Y014367D03*
X025837Y014867D03*
X025837Y015367D03*
X025837Y015867D03*
X025837Y016367D03*
X025837Y016867D03*
X025837Y017367D03*
X025837Y017867D03*
X025837Y018367D03*
X025837Y018867D03*
X025837Y019367D03*
X025837Y019867D03*
X029797Y019867D03*
X029797Y019367D03*
X029797Y018867D03*
X029797Y018367D03*
X029797Y017867D03*
X029797Y017367D03*
X029797Y016867D03*
X029797Y016367D03*
X029797Y015867D03*
X029797Y015367D03*
X029797Y014867D03*
X029797Y014367D03*
X029797Y013867D03*
X029797Y013367D03*
X029797Y012504D03*
X029797Y012004D03*
X029797Y011504D03*
X029797Y011004D03*
X029797Y010504D03*
X029797Y010004D03*
X029797Y009504D03*
X029797Y009004D03*
X029797Y008504D03*
X029797Y008004D03*
X029797Y007504D03*
X029797Y007004D03*
X029797Y006504D03*
X029797Y006004D03*
D27*
X002109Y004113D02*
X002109Y003333D01*
X004254Y003333D02*
X004254Y004113D01*
X006400Y004113D02*
X006400Y003333D01*
X019731Y012247D02*
X020511Y012247D01*
X034451Y018845D02*
X034451Y019625D01*
X038585Y019849D02*
X038585Y020629D01*
X038979Y017381D02*
X038979Y016601D01*
D28*
X034786Y004786D03*
X033211Y004786D03*
X033211Y003802D03*
X034786Y003802D03*
D29*
X035317Y009333D03*
X036420Y009333D03*
D30*
X046873Y006085D03*
X040947Y003408D03*
D31*
X039944Y004412D03*
X041951Y004412D03*
X045869Y005081D03*
X047876Y005081D03*
X047876Y007089D03*
X045869Y007089D03*
X041951Y002404D03*
X039944Y002404D03*
D32*
X007276Y006420D03*
X004146Y006420D03*
X004146Y008191D03*
X007276Y008191D03*
X004776Y015022D03*
X001646Y015022D03*
X001646Y016794D03*
X004776Y016794D03*
D33*
X035396Y018642D03*
X035396Y019142D03*
X035396Y019642D03*
X035396Y020142D03*
X037443Y020142D03*
X037443Y019642D03*
X037443Y019142D03*
X037443Y018642D03*
D34*
X037473Y014786D03*
X037729Y014786D03*
X037985Y014786D03*
X037217Y014786D03*
X035623Y014786D03*
X035367Y014786D03*
X035111Y014786D03*
X034855Y014786D03*
X034855Y013172D03*
X035111Y013172D03*
X035367Y013172D03*
X035623Y013172D03*
X037217Y013172D03*
X037473Y013172D03*
X037729Y013172D03*
X037985Y013172D03*
D35*
X039843Y015623D03*
X040343Y015623D03*
X040843Y015623D03*
X041343Y015623D03*
X041343Y018043D03*
X040843Y018043D03*
X040343Y018043D03*
X039843Y018043D03*
D36*
X039825Y019786D03*
X041558Y019786D03*
X041066Y014117D03*
X039333Y014117D03*
D37*
X046360Y013905D03*
X046360Y012995D03*
X046360Y012085D03*
X008487Y016199D03*
X008487Y017109D03*
X008487Y018019D03*
D38*
X010927Y017109D03*
X043920Y012995D03*
D39*
X034316Y013231D03*
X034316Y013605D03*
X034316Y013979D03*
X033288Y013979D03*
X033288Y013231D03*
D40*
X036006Y014786D03*
X038369Y015121D03*
X041341Y016558D03*
X033132Y015632D03*
X023940Y019353D03*
X022030Y019373D03*
X011321Y013664D03*
X008428Y013546D03*
X007896Y013231D03*
X015928Y012266D03*
X016302Y011538D03*
X009353Y008782D03*
X008447Y008329D03*
X007188Y004589D03*
X017955Y002542D03*
X018963Y002562D03*
X020983Y002325D03*
X032443Y003329D03*
X035928Y003585D03*
X038841Y004018D03*
X041440Y005436D03*
X041440Y006321D03*
X041814Y006794D03*
X038861Y007778D03*
X037286Y007975D03*
X038959Y008605D03*
X036341Y007010D03*
X034825Y006400D03*
X036892Y005869D03*
X037581Y005869D03*
X032443Y005475D03*
X043310Y004609D03*
X043880Y004609D03*
X007975Y018762D03*
D41*
X013211Y013625D03*
X012463Y012424D03*
X013369Y011774D03*
X012148Y011223D03*
X011695Y011223D03*
X011243Y011223D03*
X010790Y011223D03*
X010258Y011499D03*
X010573Y012424D03*
X008447Y012837D03*
X006676Y010829D03*
X006243Y008191D03*
X007778Y005770D03*
X011814Y006282D03*
X014412Y008329D03*
X018290Y010121D03*
X018802Y010121D03*
X018723Y008821D03*
X016676Y005770D03*
X019983Y002089D03*
X028841Y003802D03*
X028290Y006026D03*
X031597Y007483D03*
X028841Y010514D03*
X028841Y012010D03*
X027896Y012483D03*
X028290Y013388D03*
X031479Y015003D03*
X035967Y015416D03*
X036833Y015416D03*
X036420Y014058D03*
X036420Y013172D03*
X037463Y012562D03*
X034747Y012660D03*
X028841Y017877D03*
X028841Y019373D03*
X027896Y019884D03*
X036282Y018625D03*
X037404Y020613D03*
M02*
