G75*
G70*
%OFA0B0*%
%FSLAX24Y24*%
%IPPOS*%
%LPD*%
%AMOC8*
5,1,8,0,0,1.08239X$1,22.5*
%
%ADD10C,0.0680*%
%ADD11C,0.0520*%
%ADD12C,0.0860*%
%ADD13C,0.0830*%
%ADD14C,0.1130*%
%ADD15C,0.0476*%
%ADD16C,0.0437*%
D10*
X009648Y004454D02*
X009648Y005054D01*
X010648Y005054D02*
X010648Y004454D01*
X011648Y004454D02*
X011648Y005054D01*
X012648Y005054D02*
X012648Y004454D01*
X017963Y006817D02*
X017963Y007417D01*
X018963Y007417D02*
X018963Y006817D01*
X019963Y006817D02*
X019963Y007417D01*
X020963Y007417D02*
X020963Y006817D01*
X022714Y006754D02*
X023314Y006754D01*
X023314Y007754D02*
X022714Y007754D01*
X022714Y008754D02*
X023314Y008754D01*
X023314Y009754D02*
X022714Y009754D01*
X022714Y010754D02*
X023314Y010754D01*
X023314Y011754D02*
X022714Y011754D01*
X022714Y012754D02*
X023314Y012754D01*
X023314Y013865D02*
X022714Y013865D01*
X022714Y014865D02*
X023314Y014865D01*
X023314Y015865D02*
X022714Y015865D01*
X022714Y016865D02*
X023314Y016865D01*
X023314Y017865D02*
X022714Y017865D01*
X022714Y018865D02*
X023314Y018865D01*
X023314Y019865D02*
X022714Y019865D01*
X022714Y020865D02*
X023314Y020865D01*
X016455Y014948D02*
X016455Y014348D01*
X015455Y014348D02*
X015455Y014948D01*
X014455Y014948D02*
X014455Y014348D01*
X008239Y014663D02*
X008239Y015263D01*
X007239Y015263D02*
X007239Y014663D01*
X004448Y014125D02*
X003848Y014125D01*
X003848Y013125D02*
X004448Y013125D01*
X004448Y012125D02*
X003848Y012125D01*
X003848Y011125D02*
X004448Y011125D01*
X004448Y010125D02*
X003848Y010125D01*
X003848Y009125D02*
X004448Y009125D01*
X022714Y005754D02*
X023314Y005754D01*
X034250Y010664D02*
X034850Y010664D01*
X035569Y010664D02*
X036169Y010664D01*
X037340Y010664D02*
X037940Y010664D01*
X038659Y010664D02*
X039259Y010664D01*
X039259Y011664D02*
X038659Y011664D01*
X037940Y011664D02*
X037340Y011664D01*
X036169Y011664D02*
X035569Y011664D01*
X034850Y011664D02*
X034250Y011664D01*
X044581Y010342D02*
X044581Y009742D01*
X045581Y009742D02*
X045581Y010342D01*
X046884Y010342D02*
X046884Y009742D01*
X047884Y009742D02*
X047884Y010342D01*
X047970Y012613D02*
X048570Y012613D01*
X048570Y013613D02*
X047970Y013613D01*
X007235Y019919D02*
X007235Y020519D01*
X006235Y020519D02*
X006235Y019919D01*
X005499Y018987D02*
X004899Y018987D01*
X004082Y018987D02*
X003482Y018987D01*
X003482Y017987D02*
X004082Y017987D01*
X004899Y017987D02*
X005499Y017987D01*
D11*
X006889Y012282D02*
X007329Y012282D01*
X007329Y010282D02*
X006889Y010282D01*
D12*
X002109Y004113D02*
X002109Y003333D01*
X004254Y003333D02*
X004254Y004113D01*
X006400Y004113D02*
X006400Y003333D01*
X019731Y012247D02*
X020511Y012247D01*
X034451Y018845D02*
X034451Y019625D01*
X038585Y019849D02*
X038585Y020629D01*
X038979Y017381D02*
X038979Y016601D01*
D13*
X046873Y006085D03*
X040947Y003408D03*
D14*
X039944Y004412D03*
X041951Y004412D03*
X045869Y005081D03*
X047876Y005081D03*
X047876Y007089D03*
X045869Y007089D03*
X041951Y002404D03*
X039944Y002404D03*
D15*
X038841Y004018D03*
X035928Y003585D03*
X032443Y003329D03*
X032443Y005475D03*
X034825Y006400D03*
X036341Y007010D03*
X037286Y007975D03*
X038861Y007778D03*
X038959Y008605D03*
X041814Y006794D03*
X041440Y006321D03*
X041440Y005436D03*
X043310Y004609D03*
X043880Y004609D03*
X037581Y005869D03*
X036892Y005869D03*
X020983Y002325D03*
X018963Y002562D03*
X017955Y002542D03*
X007188Y004589D03*
X008447Y008329D03*
X009353Y008782D03*
X016302Y011538D03*
X015928Y012266D03*
X011321Y013664D03*
X008428Y013546D03*
X007896Y013231D03*
X007975Y018762D03*
X022030Y019373D03*
X023940Y019353D03*
X033132Y015632D03*
X036006Y014786D03*
X038369Y015121D03*
X041341Y016558D03*
D16*
X036833Y015416D03*
X035967Y015416D03*
X036420Y014058D03*
X036420Y013172D03*
X037463Y012562D03*
X034747Y012660D03*
X031479Y015003D03*
X028290Y013388D03*
X027896Y012483D03*
X028841Y012010D03*
X028841Y010514D03*
X031597Y007483D03*
X028290Y006026D03*
X028841Y003802D03*
X019983Y002089D03*
X016676Y005770D03*
X011814Y006282D03*
X007778Y005770D03*
X006243Y008191D03*
X006676Y010829D03*
X010258Y011499D03*
X010790Y011223D03*
X011243Y011223D03*
X011695Y011223D03*
X012148Y011223D03*
X013369Y011774D03*
X012463Y012424D03*
X010573Y012424D03*
X008447Y012837D03*
X013211Y013625D03*
X018290Y010121D03*
X018802Y010121D03*
X018723Y008821D03*
X014412Y008329D03*
X028841Y017877D03*
X028841Y019373D03*
X027896Y019884D03*
X036282Y018625D03*
X037404Y020613D03*
M02*
